<?xml version="1.0" encoding="UTF-8" standalone="no"?>
<!-- Created with Inkscape (http://www.inkscape.org/) -->

<svg
   xmlns:dc="http://purl.org/dc/elements/1.1/"
   xmlns:cc="http://creativecommons.org/ns#"
   xmlns:rdf="http://www.w3.org/1999/02/22-rdf-syntax-ns#"
   xmlns:svg="http://www.w3.org/2000/svg"
   xmlns="http://www.w3.org/2000/svg"
   xmlns:sodipodi="http://sodipodi.sourceforge.net/DTD/sodipodi-0.dtd"
   xmlns:inkscape="http://www.inkscape.org/namespaces/inkscape"
   version="1.1"
   id="svg2"
   xml:space="preserve"
   width="774.71997"
   height="160"
   viewBox="0 0 774.71997 160"
   sodipodi:docname="enh_pipeline.svg"
   inkscape:version="0.92.4 (unknown)"><metadata
     id="metadata8"><rdf:RDF><cc:Work
         rdf:about=""><dc:format>image/svg+xml</dc:format><dc:type
           rdf:resource="http://purl.org/dc/dcmitype/StillImage" /><dc:title></dc:title></cc:Work></rdf:RDF></metadata><defs
     id="defs6"><clipPath
       clipPathUnits="userSpaceOnUse"
       id="clipPath18"><path
         d="M 0,0 H 2420.8333 V 499.72702 H 0 Z"
         id="path16"
         inkscape:connector-curvature="0"
         style="clip-rule:evenodd" /></clipPath><clipPath
       clipPathUnits="userSpaceOnUse"
       id="clipPath30"><path
         d="M 0,0 H 2420.8333 V 496.73462 H 0 Z"
         id="path28"
         inkscape:connector-curvature="0"
         style="clip-rule:evenodd" /></clipPath></defs><sodipodi:namedview
     pagecolor="#ffffff"
     bordercolor="#666666"
     borderopacity="1"
     objecttolerance="10"
     gridtolerance="10"
     guidetolerance="10"
     inkscape:pageopacity="0"
     inkscape:pageshadow="2"
     inkscape:window-width="1920"
     inkscape:window-height="1136"
     id="namedview4"
     showgrid="false"
     inkscape:zoom="1.6109046"
     inkscape:cx="501.04279"
     inkscape:cy="89.126661"
     inkscape:window-x="0"
     inkscape:window-y="27"
     inkscape:window-maximized="1"
     inkscape:current-layer="g10" /><g
     id="g10"
     inkscape:groupmode="layer"
     inkscape:label="enh_pipeline"
     transform="matrix(0.31999998,0,0,0.31999998,0,4e-6)"><g
       id="g24"><g
         id="g26"
         clip-path="url(#clipPath30)"><g
           id="g32"
           transform="matrix(2.9923773,0,0,2.9923773,1.4961886,1.4961886)"><path
             d="m 163.5,79 h 102 c 0.59094,0 1.17621,0.05765 1.7558,0.172935 0.57956,0.115288 1.14233,0.286004 1.68832,0.512146 0.54599,0.226143 1.06464,0.503373 1.55597,0.831681 0.49137,0.328316 0.94599,0.701408 1.36386,1.11927 0.41785,0.41787 0.79093,0.872475 1.11927,1.363831 0.3283,0.491356 0.60553,1.010009 0.83169,1.555977 0.22611,0.545967 0.39682,1.108741 0.51215,1.688339 C 274.44232,86.823776 274.49997,87.40905 274.5,88 v 42 c -3e-5,0.59096 -0.0577,1.17622 -0.17297,1.75581 -0.1153,0.57958 -0.28601,1.14235 -0.51215,1.68833 -0.22617,0.54597 -0.50339,1.06463 -0.8317,1.55598 -0.3283,0.49135 -0.70138,0.94597 -1.11923,1.36383 -0.41787,0.41786 -0.87246,0.79094 -1.36383,1.11925 -0.49136,0.32831 -1.01001,0.60555 -1.556,0.8317 -0.54599,0.22615 -1.10876,0.39686 -1.68832,0.51216 C 266.67621,138.94235 266.09094,139 265.5,139 h -102 c -0.59096,0 -1.17624,-0.0576 -1.75584,-0.17294 -0.57959,-0.1153 -1.14237,-0.28601 -1.68833,-0.51216 -0.54597,-0.22615 -1.06463,-0.50339 -1.55598,-0.8317 -0.49135,-0.32831 -0.94597,-0.70139 -1.36383,-1.11925 -0.41787,-0.41786 -0.79096,-0.87248 -1.11928,-1.36383 -0.32832,-0.49135 -0.60555,-1.01001 -0.83168,-1.55598 -0.22615,-0.54598 -0.39687,-1.10875 -0.51215,-1.68833 C 154.55763,131.17622 154.49998,130.59096 154.5,130 V 88 c -2e-5,-0.59095 0.0576,-1.176224 0.17291,-1.755821 0.11528,-0.579598 0.286,-1.142372 0.51215,-1.688339 0.22613,-0.545968 0.50336,-1.064621 0.83168,-1.555977 0.32832,-0.491356 0.70141,-0.945961 1.11928,-1.363831 0.41786,-0.417862 0.87248,-0.790947 1.36383,-1.119263 0.49135,-0.328315 1.01001,-0.605545 1.55598,-0.831688 0.54596,-0.226142 1.10874,-0.396858 1.68833,-0.512146 C 162.32376,79.057648 162.90904,79 163.5,79 Z"
             style="fill:#ffffff;fill-opacity:1;fill-rule:nonzero;stroke:none"
             id="path34"
             inkscape:connector-curvature="0" /><path
             d="m 163.5,79 h 102 c 0.59094,0 1.17621,0.05765 1.7558,0.172935 0.57956,0.115288 1.14233,0.286004 1.68832,0.512146 0.54599,0.226143 1.06464,0.503373 1.55597,0.831681 0.49137,0.328316 0.94599,0.701408 1.36386,1.11927 0.41785,0.41787 0.79093,0.872475 1.11927,1.363831 0.3283,0.491356 0.60553,1.010009 0.83169,1.555977 0.22611,0.545967 0.39682,1.108741 0.51215,1.688339 C 274.44232,86.823776 274.49997,87.40905 274.5,88 v 42 c -3e-5,0.59096 -0.0577,1.17622 -0.17297,1.75581 -0.1153,0.57958 -0.28601,1.14235 -0.51215,1.68833 -0.22617,0.54597 -0.50339,1.06463 -0.8317,1.55598 -0.3283,0.49135 -0.70138,0.94597 -1.11923,1.36383 -0.41787,0.41786 -0.87246,0.79094 -1.36383,1.11925 -0.49136,0.32831 -1.01001,0.60555 -1.556,0.8317 -0.54599,0.22615 -1.10876,0.39686 -1.68832,0.51216 C 266.67621,138.94235 266.09094,139 265.5,139 h -102 c -0.59096,0 -1.17624,-0.0576 -1.75584,-0.17294 -0.57959,-0.1153 -1.14237,-0.28601 -1.68833,-0.51216 -0.54597,-0.22615 -1.06463,-0.50339 -1.55598,-0.8317 -0.49135,-0.32831 -0.94597,-0.70139 -1.36383,-1.11925 -0.41787,-0.41786 -0.79096,-0.87248 -1.11928,-1.36383 -0.32832,-0.49135 -0.60555,-1.01001 -0.83168,-1.55598 -0.22615,-0.54598 -0.39687,-1.10875 -0.51215,-1.68833 C 154.55763,131.17622 154.49998,130.59096 154.5,130 V 88 c -2e-5,-0.59095 0.0576,-1.176224 0.17291,-1.755821 0.11528,-0.579598 0.286,-1.142372 0.51215,-1.688339 0.22613,-0.545968 0.50336,-1.064621 0.83168,-1.555977 0.32832,-0.491356 0.70141,-0.945961 1.11928,-1.363831 0.41786,-0.417862 0.87248,-0.790947 1.36383,-1.119263 0.49135,-0.328315 1.01001,-0.605545 1.55598,-0.831688 0.54596,-0.226142 1.10874,-0.396858 1.68833,-0.512146 C 162.32376,79.057648 162.90904,79 163.5,79 Z"
             style="fill:none;stroke:#000000;stroke-width:1;stroke-linecap:butt;stroke-linejoin:miter;stroke-miterlimit:10;stroke-dasharray:none;stroke-opacity:1"
             id="path36"
             inkscape:connector-curvature="0" /></g><g
           id="g38"
           transform="matrix(2.9923773,0,0,2.9923773,505.71176,275.29871)"><text
             transform="translate(0.140625,14)"
             style="font-variant:normal;font-weight:normal;font-size:15px;font-family:Helvetica;-inkscape-font-specification:Helvetica;writing-mode:lr-tb;fill:#000000;fill-opacity:1;fill-rule:nonzero;stroke:none"
             id="text42"><tspan
               x="0 10.83252 19.174805 22.507324 30.849609 38.349609 42.51709 52.521973 56.689453 66.694336 75.036621 87.531738"
               y="0"
               sodipodi:role="line"
               id="tspan40">Delay &amp; Sum </tspan></text>
<text
             transform="translate(1.390625,32)"
             style="font-variant:normal;font-weight:normal;font-size:15px;font-family:Helvetica;-inkscape-font-specification:Helvetica;writing-mode:lr-tb;fill:#000000;fill-opacity:1;fill-rule:nonzero;stroke:none"
             id="text46"><tspan
               x="0 10.004883 18.347168 26.689453 39.18457 43.352051 51.694336 56.689453 69.18457 72.51709 80.859375"
               y="0"
               sodipodi:role="line"
               id="tspan44">Beamforming</tspan></text>
</g><g
           id="g48"
           transform="matrix(2.9923773,0,0,2.9923773,1.4961886,1.4961886)"><path
             d="m 389,81 h 102 c 0.59091,0 1.17618,0.05764 1.75577,0.172928 0.57956,0.115288 1.14233,0.286003 1.68829,0.512146 0.54593,0.226143 1.06461,0.503372 1.55597,0.831695 0.49136,0.328309 0.94598,0.701394 1.36386,1.119263 0.41785,0.417854 0.79093,0.87246 1.11923,1.363815 0.32831,0.491356 0.60556,1.010018 0.83173,1.555985 0.22614,0.545967 0.39685,1.108749 0.51215,1.688347 C 499.94232,88.823776 499.99997,89.40905 500,90 v 42 c -3e-5,0.59094 -0.0577,1.17621 -0.173,1.7558 -0.1153,0.5796 -0.28601,1.14238 -0.51218,1.68835 -0.22617,0.54596 -0.50339,1.06462 -0.8317,1.55597 -0.3283,0.49135 -0.70138,0.94597 -1.11923,1.36383 -0.41788,0.41786 -0.8725,0.79094 -1.36386,1.11925 -0.49136,0.32832 -1.01004,0.60555 -1.55597,0.8317 -0.54596,0.22615 -1.10873,0.39686 -1.68829,0.51214 C 492.17618,140.94234 491.59091,140.99998 491,141 H 389 c -0.59097,-2e-5 -1.17624,-0.0577 -1.75583,-0.17296 -0.57962,-0.11528 -1.14239,-0.28599 -1.68838,-0.51214 -0.54599,-0.22615 -1.06464,-0.50338 -1.556,-0.8317 -0.49137,-0.32831 -0.94596,-0.70139 -1.36377,-1.11925 -0.41788,-0.41786 -0.79096,-0.87248 -1.11927,-1.36383 -0.32833,-0.49135 -0.60556,-1.01001 -0.83172,-1.55597 -0.22614,-0.54597 -0.39685,-1.10875 -0.51215,-1.68835 C 380.05762,133.17621 379.99997,132.59094 380,132 V 90 c -3e-5,-0.59095 0.0576,-1.176216 0.17288,-1.755814 0.1153,-0.579605 0.28601,-1.142387 0.51215,-1.688354 0.22616,-0.545967 0.50339,-1.064629 0.83169,-1.555985 0.32834,-0.491355 0.70142,-0.945961 1.1193,-1.363815 0.41781,-0.417869 0.8724,-0.790954 1.36377,-1.119263 0.49136,-0.328323 1.01001,-0.605552 1.556,-0.831695 0.54599,-0.226143 1.10876,-0.396858 1.68835,-0.512146 C 387.82376,81.05764 388.40903,81 389,81 Z"
             style="fill:#ffffff;fill-opacity:1;fill-rule:nonzero;stroke:none"
             id="path50"
             inkscape:connector-curvature="0" /><path
             d="m 389,81 h 102 c 0.59091,0 1.17618,0.05764 1.75577,0.172928 0.57956,0.115288 1.14233,0.286003 1.68829,0.512146 0.54593,0.226143 1.06461,0.503372 1.55597,0.831695 0.49136,0.328309 0.94598,0.701394 1.36386,1.119263 0.41785,0.417854 0.79093,0.87246 1.11923,1.363815 0.32831,0.491356 0.60556,1.010018 0.83173,1.555985 0.22614,0.545967 0.39685,1.108749 0.51215,1.688347 C 499.94232,88.823776 499.99997,89.40905 500,90 v 42 c -3e-5,0.59094 -0.0577,1.17621 -0.173,1.7558 -0.1153,0.5796 -0.28601,1.14238 -0.51218,1.68835 -0.22617,0.54596 -0.50339,1.06462 -0.8317,1.55597 -0.3283,0.49135 -0.70138,0.94597 -1.11923,1.36383 -0.41788,0.41786 -0.8725,0.79094 -1.36386,1.11925 -0.49136,0.32832 -1.01004,0.60555 -1.55597,0.8317 -0.54596,0.22615 -1.10873,0.39686 -1.68829,0.51214 C 492.17618,140.94234 491.59091,140.99998 491,141 H 389 c -0.59097,-2e-5 -1.17624,-0.0577 -1.75583,-0.17296 -0.57962,-0.11528 -1.14239,-0.28599 -1.68838,-0.51214 -0.54599,-0.22615 -1.06464,-0.50338 -1.556,-0.8317 -0.49137,-0.32831 -0.94596,-0.70139 -1.36377,-1.11925 -0.41788,-0.41786 -0.79096,-0.87248 -1.11927,-1.36383 -0.32833,-0.49135 -0.60556,-1.01001 -0.83172,-1.55597 -0.22614,-0.54597 -0.39685,-1.10875 -0.51215,-1.68835 C 380.05762,133.17621 379.99997,132.59094 380,132 V 90 c -3e-5,-0.59095 0.0576,-1.176216 0.17288,-1.755814 0.1153,-0.579605 0.28601,-1.142387 0.51215,-1.688354 0.22616,-0.545967 0.50339,-1.064629 0.83169,-1.555985 0.32834,-0.491355 0.70142,-0.945961 1.1193,-1.363815 0.41781,-0.417869 0.8724,-0.790954 1.36377,-1.119263 0.49136,-0.328323 1.01001,-0.605552 1.556,-0.831695 0.54599,-0.226143 1.10876,-0.396858 1.68835,-0.512146 C 387.82376,81.05764 388.40903,81 389,81 Z"
             style="fill:none;stroke:#000000;stroke-width:1;stroke-linecap:butt;stroke-linejoin:miter;stroke-miterlimit:10;stroke-dasharray:none;stroke-opacity:1"
             id="path52"
             inkscape:connector-curvature="0" /></g><g
           id="g54"
           transform="matrix(2.9923773,0,0,2.9923773,1176.0043,281.28348)"><text
             transform="translate(0.90625,14)"
             style="font-variant:normal;font-weight:normal;font-size:15px;font-family:Helvetica;-inkscape-font-specification:Helvetica;writing-mode:lr-tb;fill:#000000;fill-opacity:1;fill-rule:nonzero;stroke:none"
             id="text58"><tspan
               x="0 10.83252 21.665039 32.497559 36.665039 40.83252 49.174805 54.169922 58.337402 70.83252 79.174805 86.674805"
               y="0"
               sodipodi:role="line"
               id="tspan56">DNN for Mask</tspan></text>
<text
             transform="translate(12.984375,32)"
             style="font-variant:normal;font-weight:normal;font-size:15px;font-family:Helvetica;-inkscape-font-specification:Helvetica;writing-mode:lr-tb;fill:#000000;fill-opacity:1;fill-rule:nonzero;stroke:none"
             id="text62"><tspan
               x="0 10.004883 17.504883 21.672363 25.004883 37.5 45.842285 50.009766 53.342285 61.68457"
               y="0"
               sodipodi:role="line"
               id="tspan60">Estimation</tspan></text>
</g><g
           id="g64"
           transform="matrix(2.9923773,0,0,2.9923773,1.4961886,1.4961886)"><path
             d="m 573,81 h 102 c 0.59088,0 1.17615,0.05764 1.75574,0.172928 0.57953,0.115288 1.14233,0.286003 1.68829,0.512146 0.54596,0.226143 1.06464,0.503372 1.55603,0.831695 0.4914,0.328309 0.94598,0.701394 1.36383,1.119263 0.41791,0.417854 0.79096,0.87246 1.1192,1.363815 0.32837,0.491356 0.60559,1.010018 0.83173,1.555985 0.22613,0.545967 0.39691,1.108749 0.51221,1.688347 C 683.94232,88.823776 684,89.40905 684,90 v 42 c 0,0.59094 -0.0577,1.17621 -0.17297,1.7558 -0.1153,0.5796 -0.28608,1.14238 -0.51221,1.68835 -0.22614,0.54596 -0.50336,1.06462 -0.83173,1.55597 -0.32824,0.49135 -0.70129,0.94597 -1.1192,1.36383 -0.41785,0.41786 -0.87243,0.79094 -1.36383,1.11925 -0.49139,0.32832 -1.01007,0.60555 -1.55603,0.8317 -0.54596,0.22615 -1.10876,0.39686 -1.68829,0.51214 C 676.17615,140.94234 675.59088,140.99998 675,141 H 573 c -0.591,-2e-5 -1.17627,-0.0577 -1.75586,-0.17296 -0.57965,-0.11528 -1.14239,-0.28599 -1.68835,-0.51214 -0.54596,-0.22615 -1.06464,-0.50338 -1.55597,-0.8317 -0.4914,-0.32831 -0.94599,-0.70139 -1.36383,-1.11925 -0.41791,-0.41786 -0.79102,-0.87248 -1.11933,-1.36383 -0.32831,-0.49135 -0.60553,-1.01001 -0.83166,-1.55597 -0.22614,-0.54597 -0.39679,-1.10875 -0.51209,-1.68835 C 564.05762,133.17621 563.99994,132.59094 564,132 V 90 c -6e-5,-0.59095 0.0576,-1.176216 0.17291,-1.755814 0.1153,-0.579605 0.28595,-1.142387 0.51209,-1.688354 0.22613,-0.545967 0.50335,-1.064629 0.83166,-1.555985 0.32831,-0.491355 0.70142,-0.945961 1.11933,-1.363815 0.41784,-0.417869 0.87243,-0.790954 1.36383,-1.119263 0.49133,-0.328323 1.01001,-0.605552 1.55597,-0.831695 0.54596,-0.226143 1.1087,-0.396858 1.68835,-0.512146 C 571.82373,81.05764 572.409,81 573,81 Z"
             style="fill:#ffffff;fill-opacity:1;fill-rule:nonzero;stroke:none"
             id="path66"
             inkscape:connector-curvature="0" /><path
             d="m 573,81 h 102 c 0.59088,0 1.17615,0.05764 1.75574,0.172928 0.57953,0.115288 1.14233,0.286003 1.68829,0.512146 0.54596,0.226143 1.06464,0.503372 1.55603,0.831695 0.4914,0.328309 0.94598,0.701394 1.36383,1.119263 0.41791,0.417854 0.79096,0.87246 1.1192,1.363815 0.32837,0.491356 0.60559,1.010018 0.83173,1.555985 0.22613,0.545967 0.39691,1.108749 0.51221,1.688347 C 683.94232,88.823776 684,89.40905 684,90 v 42 c 0,0.59094 -0.0577,1.17621 -0.17297,1.7558 -0.1153,0.5796 -0.28608,1.14238 -0.51221,1.68835 -0.22614,0.54596 -0.50336,1.06462 -0.83173,1.55597 -0.32824,0.49135 -0.70129,0.94597 -1.1192,1.36383 -0.41785,0.41786 -0.87243,0.79094 -1.36383,1.11925 -0.49139,0.32832 -1.01007,0.60555 -1.55603,0.8317 -0.54596,0.22615 -1.10876,0.39686 -1.68829,0.51214 C 676.17615,140.94234 675.59088,140.99998 675,141 H 573 c -0.591,-2e-5 -1.17627,-0.0577 -1.75586,-0.17296 -0.57965,-0.11528 -1.14239,-0.28599 -1.68835,-0.51214 -0.54596,-0.22615 -1.06464,-0.50338 -1.55597,-0.8317 -0.4914,-0.32831 -0.94599,-0.70139 -1.36383,-1.11925 -0.41791,-0.41786 -0.79102,-0.87248 -1.11933,-1.36383 -0.32831,-0.49135 -0.60553,-1.01001 -0.83166,-1.55597 -0.22614,-0.54597 -0.39679,-1.10875 -0.51209,-1.68835 C 564.05762,133.17621 563.99994,132.59094 564,132 V 90 c -6e-5,-0.59095 0.0576,-1.176216 0.17291,-1.755814 0.1153,-0.579605 0.28595,-1.142387 0.51209,-1.688354 0.22613,-0.545967 0.50335,-1.064629 0.83166,-1.555985 0.32831,-0.491355 0.70142,-0.945961 1.11933,-1.363815 0.41784,-0.417869 0.87243,-0.790954 1.36383,-1.119263 0.49133,-0.328323 1.01001,-0.605552 1.55597,-0.831695 0.54596,-0.226143 1.1087,-0.396858 1.68835,-0.512146 C 571.82373,81.05764 572.409,81 573,81 Z"
             style="fill:none;stroke:#000000;stroke-width:1;stroke-linecap:butt;stroke-linejoin:miter;stroke-miterlimit:10;stroke-dasharray:none;stroke-opacity:1"
             id="path68"
             inkscape:connector-curvature="0" /></g><g
           id="g70"
           transform="matrix(2.9923773,0,0,2.9923773,1729.5941,254.35207)"><text
             transform="translate(22.8125,14)"
             style="font-variant:normal;font-weight:normal;font-size:15px;font-family:Helvetica;-inkscape-font-specification:Helvetica;writing-mode:lr-tb;fill:#000000;fill-opacity:1;fill-rule:nonzero;stroke:none"
             id="text74"><tspan
               x="0 10.83252 19.174805 27.51709 35.01709 40.012207"
               y="0"
               sodipodi:role="line"
               id="tspan72">Rank-1</tspan></text>
<text
             transform="translate(0.71875,32)"
             style="font-variant:normal;font-weight:normal;font-size:15px;font-family:Helvetica;-inkscape-font-specification:Helvetica;writing-mode:lr-tb;fill:#000000;fill-opacity:1;fill-rule:nonzero;stroke:none"
             id="text78"><tspan
               x="0 12.495117 20.837402 24.169922 28.337402 31.669922 36.665039 47.497559 55.839844 64.182129 72.524414 80.866699 89.208984"
               y="0"
               sodipodi:role="line"
               id="tspan76">Multi-Channel</tspan></text>
<text
             transform="translate(4.484375,50)"
             style="font-variant:normal;font-weight:normal;font-size:15px;font-family:Helvetica;-inkscape-font-specification:Helvetica;writing-mode:lr-tb;fill:#000000;fill-opacity:1;fill-rule:nonzero;stroke:none"
             id="text82"><tspan
               x="0 14.157715 17.490234 25.83252 34.174805 42.51709 47.512207 51.679688 60.842285 64.174805 67.507324 71.674805 80.01709"
               y="0"
               sodipodi:role="line"
               id="tspan80">Wiener Filter</tspan></text>
</g><g
           id="g84"
           transform="matrix(2.9923773,0,0,2.9923773,1.4961886,1.4961886)"><path
             d="m 310.5,118 v -12 h 6 V 94.5 l 21,17.5 -21,17.5 V 118 Z"
             style="fill:none;stroke:#000000;stroke-width:1;stroke-linecap:butt;stroke-linejoin:miter;stroke-miterlimit:10;stroke-dasharray:none;stroke-opacity:1"
             id="path86"
             inkscape:connector-curvature="0" /><path
             d="m 519.5,115 v -12 h 6 V 91.5 l 21,17.5 -21,17.5 V 115 Z"
             style="fill:none;stroke:#000000;stroke-width:1;stroke-linecap:butt;stroke-linejoin:miter;stroke-miterlimit:10;stroke-dasharray:none;stroke-opacity:1"
             id="path88"
             inkscape:connector-curvature="0" /><path
             d="m 117.5,135 v -12 h 10 v -11.5 l 21,17.5 -21,17.5 V 135 Z"
             style="fill:#d5e8d4;fill-opacity:1;fill-rule:nonzero;stroke:none"
             id="path90"
             inkscape:connector-curvature="0" /><path
             d="m 117.5,135 v -12 h 10 v -11.5 l 21,17.5 -21,17.5 V 135 Z"
             style="fill:none;stroke:#82b366;stroke-width:1;stroke-linecap:butt;stroke-linejoin:miter;stroke-miterlimit:10;stroke-dasharray:none;stroke-opacity:1"
             id="path92"
             inkscape:connector-curvature="0" /></g><g
           id="g94"
           transform="matrix(2.9923773,0,0,2.9923773,197.4969,377.03955)"><path
             d="M 0,0 H 39 V 21 H 0 Z"
             style="fill:#ffffff;fill-opacity:1;fill-rule:nonzero;stroke:none"
             id="path96"
             inkscape:connector-curvature="0" /><text
             transform="translate(0,17)"
             style="font-variant:normal;font-weight:normal;font-size:18px;font-family:Helvetica;-inkscape-font-specification:Helvetica;writing-mode:lr-tb;fill:#000000;fill-opacity:1;fill-rule:nonzero;stroke:none"
             id="text100"><tspan
               x="0 12.999023 27"
               y="0"
               sodipodi:role="line"
               id="tspan98">DOA</tspan></text>
</g><g
           id="g102"
           transform="matrix(2.9923773,0,0,2.9923773,1.4961886,1.4961886)"><path
             d="M 117.17,95 V 85 h 10 V 74.5 l 19,15.5 -19,15.5 V 95 Z"
             style="fill:none;stroke:#000000;stroke-width:1;stroke-linecap:butt;stroke-linejoin:miter;stroke-miterlimit:10;stroke-dasharray:none;stroke-opacity:1"
             id="path104"
             inkscape:connector-curvature="0" /></g><g
           id="g106"
           transform="matrix(2.9923773,0,0,2.9923773,0,125.67985)"><path
             d="M 0,0 H 101 V 42 H 0 Z"
             style="fill:#ffffff;fill-opacity:1;fill-rule:nonzero;stroke:none"
             id="path108"
             inkscape:connector-curvature="0" /><text
             transform="translate(0,17)"
             style="font-variant:normal;font-weight:normal;font-size:18px;font-family:Helvetica;-inkscape-font-specification:Helvetica;writing-mode:lr-tb;fill:#000000;fill-opacity:1;fill-rule:nonzero;stroke:none"
             id="text112"><tspan
               x="0 14.994141 25.004883 29.003906 34.004883 38.003906 47.003906 57.014648 67.025391 77.036133 87.046875 97.057617"
               y="0"
               sodipodi:role="line"
               id="tspan110">Multichannel</tspan></text>
<text
             transform="translate(25.515625,38)"
             style="font-variant:normal;font-weight:normal;font-size:18px;font-family:Helvetica;-inkscape-font-specification:Helvetica;writing-mode:lr-tb;fill:#000000;fill-opacity:1;fill-rule:nonzero;stroke:none"
             id="text116"><tspan
               x="0 12.005859 16.004883 26.015625 36.026367 46.037109"
               y="0"
               sodipodi:role="line"
               id="tspan114">Signal</tspan></text>
</g><g
           id="g118"
           transform="matrix(2.9923773,0,0,2.9923773,1.4961886,1.4961886)"><path
             d="m 697.5,118 v -12 h 10 V 94.5 l 21,17.5 -21,17.5 V 118 Z"
             style="fill:none;stroke:#000000;stroke-width:1;stroke-linecap:butt;stroke-linejoin:miter;stroke-miterlimit:10;stroke-dasharray:none;stroke-opacity:1"
             id="path120"
             inkscape:connector-curvature="0" /></g><g
           id="g122"
           transform="matrix(2.9923773,0,0,2.9923773,2208.3745,272.30634)"><text
             transform="translate(0,11)"
             style="font-variant:normal;font-weight:normal;font-size:12px;font-family:Helvetica;-inkscape-font-specification:Helvetica;writing-mode:lr-tb;fill:#000000;fill-opacity:1;fill-rule:nonzero;stroke:none"
             id="text126"><tspan
               x="0 8.0039062 14.677734 21.351562 28.025391 34.699219 40.699219 47.373047"
               y="0"
               sodipodi:role="line"
               id="tspan124">Enhanced</tspan></text>
<text
             transform="translate(0,25)"
             style="font-variant:normal;font-weight:normal;font-size:12px;font-family:Helvetica;-inkscape-font-specification:Helvetica;writing-mode:lr-tb;fill:#000000;fill-opacity:1;fill-rule:nonzero;stroke:none"
             id="text130"><tspan
               x="0 8.0039062 10.669922 17.34375 24.017578 30.691406"
               y="0"
               sodipodi:role="line"
               id="tspan128">Signal</tspan></text>
</g><g
           id="g132"
           transform="matrix(2.9923773,0,0,2.9923773,1.4961886,1.4961886)"><path
             d="m 286,86 h 73.63"
             style="fill:none;stroke:#000000;stroke-width:1;stroke-linecap:butt;stroke-linejoin:miter;stroke-miterlimit:10;stroke-dasharray:none;stroke-opacity:1"
             id="path134"
             inkscape:connector-curvature="0" /><path
             d="m 364.88,86 -7,3.5 1.75,-3.5 -1.75,-3.5 z"
             style="fill:#000000;fill-opacity:1;fill-rule:nonzero;stroke:none"
             id="path136"
             inkscape:connector-curvature="0" /><path
             d="m 364.88,86 -7,3.5 1.75,-3.5 -1.75,-3.5 z"
             style="fill:none;stroke:#000000;stroke-width:1;stroke-linecap:butt;stroke-linejoin:miter;stroke-miterlimit:10;stroke-dasharray:none;stroke-opacity:1"
             id="path138"
             inkscape:connector-curvature="0" /></g><g
           id="g140"
           transform="matrix(2.9923773,0,0,2.9923773,849.83514,113.71034)"><path
             d="M 0,0 H 84 V 42 H 0 Z"
             style="fill:#ffffff;fill-opacity:1;fill-rule:nonzero;stroke:none"
             id="path142"
             inkscape:connector-curvature="0" /><text
             transform="translate(0,17)"
             style="font-variant:normal;font-weight:normal;font-size:18px;font-family:Helvetica;-inkscape-font-specification:Helvetica;writing-mode:lr-tb;fill:#000000;fill-opacity:1;fill-rule:nonzero;stroke:none"
             id="text146"><tspan
               x="0 14.994141 25.004883 35.015625 45.026367 49.025391 54.026367 64.037109 74.047852"
               y="0"
               sodipodi:role="line"
               id="tspan144">Magnitude</tspan></text>
<text
             transform="translate(11.015625,38)"
             style="font-variant:normal;font-weight:normal;font-size:18px;font-family:Helvetica;-inkscape-font-specification:Helvetica;writing-mode:lr-tb;fill:#000000;fill-opacity:1;fill-rule:nonzero;stroke:none"
             id="text150"><tspan
               x="0 12.005859 22.016602 32.027344 41.027344 46.02832 52.022461"
               y="0"
               sodipodi:role="line"
               id="tspan148">Spectra</tspan></text>
</g><g
           id="g152"
           transform="matrix(2.9923773,0,0,2.9923773,1.4961886,1.4961886)"><path
             d="m 286,137 h 73.63"
             style="fill:none;stroke:#000000;stroke-width:1;stroke-linecap:butt;stroke-linejoin:miter;stroke-miterlimit:10;stroke-dasharray:none;stroke-opacity:1"
             id="path154"
             inkscape:connector-curvature="0" /><path
             d="m 364.88,137 -7,3.5 1.75,-3.5 -1.75,-3.5 z"
             style="fill:#000000;fill-opacity:1;fill-rule:nonzero;stroke:none"
             id="path156"
             inkscape:connector-curvature="0" /><path
             d="m 364.88,137 -7,3.5 1.75,-3.5 -1.75,-3.5 z"
             style="fill:none;stroke:#000000;stroke-width:1;stroke-linecap:butt;stroke-linejoin:miter;stroke-miterlimit:10;stroke-dasharray:none;stroke-opacity:1"
             id="path158"
             inkscape:connector-curvature="0" /></g><g
           id="g160"
           transform="matrix(2.9923773,0,0,2.9923773,894.72083,436.88708)"><text
             transform="translate(0,17)"
             style="font-variant:normal;font-weight:normal;font-size:18px;font-family:Helvetica;-inkscape-font-specification:Helvetica;writing-mode:lr-tb;fill:#000000;fill-opacity:1;fill-rule:nonzero;stroke:none"
             id="text164"><tspan
               x="0 12.999023 25.004883 30.005859 42.011719"
               y="0"
               sodipodi:role="line"
               id="tspan162">CSIPD</tspan></text>
</g><g
           id="g166"
           transform="matrix(2.9923773,0,0,2.9923773,1.4961886,1.4961886)"><path
             d="M 127,85.5 H 117 V 11 c 0,-6.666667 3.33334,-10 10,-10 h 500.07001 c 6.5733,0 9.90667,3.29 10,9.87 l 0.66998,50.569999 10.5,-0.14 -15.25,19.200001 -15.75,-18.790001 10.5,-0.139999 L 627.07001,11 H 127 Z"
             style="fill:none;stroke:#000000;stroke-width:1;stroke-linecap:butt;stroke-linejoin:miter;stroke-miterlimit:10;stroke-dasharray:none;stroke-opacity:1"
             id="path168"
             inkscape:connector-curvature="0" /><path
             d="m 637.73999,61.439999 10.5,-0.14 -15.25,19.200001 -15.75,-18.790001 10.5,-0.139999"
             style="fill:none;stroke:#000000;stroke-width:1;stroke-linecap:butt;stroke-linejoin:miter;stroke-miterlimit:10;stroke-dasharray:none;stroke-opacity:1"
             id="path170"
             inkscape:connector-curvature="0" /></g></g></g></g></svg>