<?xml version="1.0" encoding="UTF-8" standalone="no"?>
<!-- Created with Inkscape (http://www.inkscape.org/) -->
<svg xmlns:dc="http://purl.org/dc/elements/1.1/" xmlns:cc="http://creativecommons.org/ns#" xmlns:rdf="http://www.w3.org/1999/02/22-rdf-syntax-ns#" xmlns:svg="http://www.w3.org/2000/svg" xmlns="http://www.w3.org/2000/svg" xmlns:sodipodi="http://sodipodi.sourceforge.net/DTD/sodipodi-0.dtd" xmlns:inkscape="http://www.inkscape.org/namespaces/inkscape" width="58.210358mm" height="20.909155mm" viewBox="0 0 206.25716 74.087557" id="svg3404" version="1.1" inkscape:version="0.91 r13725" sodipodi:docname="UPMC.svg">
  <defs id="defs3406"/>
  <sodipodi:namedview id="base" pagecolor="#ffffff" bordercolor="#666666" borderopacity="1.0" inkscape:pageopacity="0.0" inkscape:pageshadow="2" inkscape:zoom="2.8" inkscape:cx="161.00177" inkscape:cy="19.383637" inkscape:document-units="px" inkscape:current-layer="layer1" showgrid="false" fit-margin-left="1" fit-margin-top="1" fit-margin-bottom="1" fit-margin-right="1" inkscape:window-width="1920" inkscape:window-height="1017" inkscape:window-x="-8" inkscape:window-y="-8" inkscape:window-maximized="1"/>
  <metadata id="metadata3409">
    <rdf:RDF>
      <cc:Work rdf:about="">
        <dc:format>image/svg+xml</dc:format>
        <dc:type rdf:resource="http://purl.org/dc/dcmitype/StillImage"/>
        <dc:title/>
      </cc:Work>
    </rdf:RDF>
  </metadata>
  <g inkscape:label="Calque 1" inkscape:groupmode="layer" id="layer1" transform="translate(-368.29985,-418.17558)">
    <g id="g3470" transform="matrix(0.5,0,0,0.5,235.71421,227.60968)">
      <path id="path26" style="fill:#f14b1c;fill-opacity:1;fill-rule:nonzero;stroke:none" d="m 306.05196,510.72538 0,11.25486 16.28672,0 0,-11.25486 c 0,-5.26485 -3.25884,-8.60806 -8.09777,-8.60806 -4.84392,0 -8.18895,3.34321 -8.18895,8.60806" inkscape:connector-curvature="0"/>
      <path id="path28" style="fill:#f14b1c;fill-opacity:1;fill-rule:nonzero;stroke:none" d="m 285.13366,510.72538 0,11.25486 16.27922,0 0,-11.25486 c 0,-5.26485 -3.24885,-8.60806 -8.09777,-8.60806 -4.84517,0 -8.18145,3.34321 -8.18145,8.60806" inkscape:connector-curvature="0"/>
      <path id="path30" style="fill:#f14b1c;fill-opacity:1;fill-rule:nonzero;stroke:none" d="m 327.12015,510.72538 0,11.25486 8.07154,0 0,-19.86292 c -4.84642,0 -8.07154,3.34321 -8.07154,8.60806" inkscape:connector-curvature="0"/>
      <path id="path32" style="fill:#f14b1c;fill-opacity:1;fill-rule:nonzero;stroke:none" d="m 272.38807,502.11732 -0.1299,0.005 0,19.85792 8.22892,0 0,-11.25486 c 0,-5.26485 -3.25635,-8.60806 -8.09902,-8.60806" inkscape:connector-curvature="0"/>
      <path id="path34" style="fill:#8c6851;fill-opacity:1;fill-rule:nonzero;stroke:none" d="m 325.30649,388.4072 c -0.2748,-0.0313 -0.55709,-0.0463 -0.83189,-0.0463 l -0.004,0 -0.10742,0.006 -0.10742,-0.006 c -5.64333,0 -10.20746,4.57596 -10.20746,10.22089 l 0,60.08887 c 0,5.85373 -4.74275,10.62098 -10.57969,10.68474 -5.83943,-0.0638 -10.57469,-4.83101 -10.57469,-10.68474 l 0,-60.08887 c 0,-5.64493 -4.58036,-10.22089 -10.21245,-10.22089 l -0.10743,0.006 -0.10117,-0.006 c -0.28604,0 -0.56833,0.015 -0.83938,0.0463 -5.25117,0.42009 -9.37562,4.81351 -9.37562,10.17463 l 0,60.08887 c 0,17.1636 13.94844,31.13529 31.10452,31.13529 l 0.21235,0 c 17.15108,0 31.10827,-13.97169 31.10827,-31.13529 l 0,-60.08887 c 0,-5.36112 -4.13319,-9.75454 -9.37682,-10.17463" inkscape:connector-curvature="0"/>
      <path id="path36" style="fill:#8c6851;fill-opacity:1;fill-rule:nonzero;stroke:none" d="m 538.22549,388.36094 c -8.08403,0 -15.46233,3.10565 -21.00324,8.19297 -5.53841,-5.08732 -12.90796,-8.19297 -20.99824,-8.19297 -17.15358,0 -31.10827,13.96668 -31.10827,31.13653 l 0,60.08637 c 0,5.64619 4.56662,10.22215 10.20871,10.22215 5.64083,0 10.21495,-4.57596 10.21495,-10.22215 l 0,-60.08637 c 0,-5.89748 4.79646,-10.68974 10.68461,-10.68974 5.89065,0 10.67836,4.79226 10.67836,10.68974 l 0,60.08637 c 0,5.64619 4.57787,10.22215 10.22121,10.22215 l 0.21359,0 c 5.63708,0 10.20871,-4.57596 10.20871,-10.22215 l 0,-60.08637 c 0,-5.89748 4.79271,-10.68974 10.67961,-10.68974 5.89315,0 10.68711,4.79226 10.68711,10.68974 l 0,60.08637 c 0,5.64619 4.56538,10.22215 10.21121,10.22215 5.63958,0 10.20746,-4.57596 10.20746,-10.22215 l 0,-60.08637 c 0,-17.16985 -13.95844,-31.13653 -31.10578,-31.13653" inkscape:connector-curvature="0"/>
      <path id="path38" style="fill:#8c6851;fill-opacity:1;fill-rule:nonzero;stroke:none" d="m 595.24088,403.23656 c -9.69284,9.69829 -15.02765,22.5985 -15.02765,36.32138 0,13.71788 5.33481,26.61433 15.02765,36.31012 20.01147,20.03421 52.56368,20.03421 72.57016,0 3.62107,-3.61326 3.62107,-9.48574 0,-13.1015 -3.62108,-3.62576 -9.4805,-3.62576 -13.09908,0 -12.78181,12.79018 -33.58145,12.79018 -46.37325,0 -6.18793,-6.20505 -9.59666,-14.44303 -9.59666,-23.20862 0,-8.77059 3.40873,-17.01483 9.59666,-23.20988 12.7918,-12.79768 33.59144,-12.79768 46.37325,0 3.61858,3.62201 9.478,3.62201 13.09908,0 3.62107,-3.62451 3.62107,-9.49074 0,-13.1115 -20.00648,-20.0242 -52.55869,-20.0242 -72.57016,0" inkscape:connector-curvature="0"/>
      <path id="path40" style="fill:#8c6851;fill-opacity:1;fill-rule:nonzero;stroke:none" d="m 453.66045,418.6723 c 0,-16.77227 -13.63493,-30.42264 -30.39755,-30.42264 l -66.28355,0 c -0.34475,0 -0.68575,0.02 -1.02675,0.0588 -5.03003,0.5101 -8.95213,4.7635 -8.95213,9.92833 l 0.002,0.11002 -0.002,0.10003 c 0,5.5199 4.47169,9.99584 9.97888,9.99584 l 66.28355,0 c 5.71952,0 10.37983,4.62848 10.43354,10.33842 -0.0537,5.7112 -4.71402,10.34218 -10.43354,10.34218 l -46.32829,0 c -16.75263,0 -30.38756,13.65286 -30.38756,30.42638 l 0.004,0.10253 -0.004,0.10752 0,19.7804 c 0,0.34257 0.0187,0.68765 0.0487,1.02147 0.51462,5.03605 4.75899,8.96313 9.92642,8.96313 l 0.10242,-0.002 0.10618,0.002 c 5.51467,0 9.97388,-4.46719 9.97388,-9.9846 l -0.20609,-19.88792 c 0.0625,-5.70495 4.71776,-10.34093 10.43604,-10.34093 l 46.32829,0 c 16.76262,0 30.39755,-13.64911 30.39755,-30.42263 l -10e-4,-0.10753 10e-4,-0.10877" inkscape:connector-curvature="0"/>
      <path id="path42" style="fill:#8c6851;fill-opacity:1;fill-rule:nonzero;stroke:none" d="m 354.88714,522.22029 c -3.01777,0 -5.31108,-0.64388 -7.26838,-2.6343 l 2.51814,-2.51303 c 1.25532,1.25777 2.96281,1.67536 4.8052,1.67536 2.29456,0 3.52365,-0.86394 3.52365,-2.46302 0,-0.6989 -0.19486,-1.28402 -0.6158,-1.68035 -0.39096,-0.36008 -0.83813,-0.55887 -1.75995,-0.69765 l -2.40572,-0.33507 c -1.70249,-0.25255 -2.96031,-0.78142 -3.85465,-1.65285 -0.9518,-0.94895 -1.42645,-2.23547 -1.42645,-3.91957 0,-3.55325 2.62556,-6.04127 6.93238,-6.04127 2.73923,0 4.72401,0.67264 6.429,2.32299 l -2.45943,2.43426 c -1.25782,-1.2015 -2.76796,-1.37404 -4.08199,-1.37404 -2.06722,0 -3.07398,1.14774 -3.07398,2.52178 0,0.50136 0.16613,1.03647 0.58707,1.42655 0.39096,0.36383 1.03299,0.67139 1.84364,0.78391 l 2.34826,0.33507 c 1.81741,0.25256 2.96406,0.75641 3.8022,1.53783 1.06296,1.00896 1.53761,2.46552 1.53761,4.22714 0,3.85956 -3.21513,6.04626 -7.3808,6.04626" inkscape:connector-curvature="0"/>
      <path id="path44" style="fill:#8c6851;fill-opacity:1;fill-rule:nonzero;stroke:none" d="m 375.07474,506.48949 c -0.55834,-0.63888 -1.4252,-1.06022 -2.48692,-1.06022 -1.06422,0 -1.95731,0.42134 -2.51814,1.06022 -0.75444,0.83768 -0.9493,1.76537 -0.9493,5.60118 0,3.83205 0.19486,4.75725 0.9493,5.59492 0.56083,0.64514 1.45392,1.06273 2.51814,1.06273 1.06172,0 1.92858,-0.41759 2.48692,-1.06273 0.75444,-0.83767 0.97927,-1.76287 0.97927,-5.59492 0,-3.83581 -0.22483,-4.7635 -0.97927,-5.60118 z m 2.88037,13.5441 c -1.39772,1.40154 -3.10396,2.1867 -5.36729,2.1867 -2.26458,0 -3.99705,-0.78516 -5.39851,-2.1867 -2.01227,-2.01168 -1.95606,-4.50345 -1.95606,-7.94292 0,-3.44323 -0.0562,-5.935 1.95606,-7.94792 1.40146,-1.39904 3.13393,-2.18421 5.39851,-2.18421 2.26333,0 3.96957,0.78517 5.36729,2.18421 2.01101,2.01292 1.98478,4.50469 1.98478,7.94792 0,3.43947 0.0262,5.93124 -1.98478,7.94292" inkscape:connector-curvature="0"/>
      <path id="path46" style="fill:#8c6851;fill-opacity:1;fill-rule:nonzero;stroke:none" d="m 391.43016,505.5968 -3.65855,0 0,5.26111 3.65855,0 c 1.70624,0 2.82541,-1.09273 2.82541,-2.63055 0,-1.53783 -1.11917,-2.63056 -2.82541,-2.63056 z m 3.02027,16.45471 -3.88588,-7.94917 -2.79294,0 0,7.94917 -3.88588,0 0,-19.92668 7.79674,0 c 4.05451,0 6.45898,2.77058 6.45898,6.10253 0,2.79683 -1.70624,4.5297 -3.63357,5.22984 l 4.44547,8.59431 -4.50292,0" inkscape:connector-curvature="0"/>
      <path id="path48" style="fill:#8c6851;fill-opacity:1;fill-rule:nonzero;stroke:none" d="m 410.08138,513.68225 -4.0545,0 0,4.89978 4.0545,0 c 1.7612,0 2.60058,-1.12023 2.60058,-2.46427 0,-1.34153 -0.83938,-2.43551 -2.60058,-2.43551 z m -0.25231,-8.08545 -3.80219,0 0,4.58972 3.80219,0 c 1.65128,0 2.5731,-0.9252 2.5731,-2.29548 0,-1.37404 -0.92182,-2.29424 -2.5731,-2.29424 z m 0.64577,16.45471 -8.33384,0 0,-19.92668 7.99784,0 c 3.88588,0 6.14921,2.18295 6.14921,5.60117 0,2.20796 -1.45268,3.63576 -2.45944,4.11086 1.20162,0.55887 2.73923,1.81914 2.73923,4.47719 0,3.71954 -2.54312,5.73746 -6.093,5.73746" inkscape:connector-curvature="0"/>
      <path id="path50" style="fill:#8c6851;fill-opacity:1;fill-rule:nonzero;stroke:none" d="m 429.68191,506.48949 c -0.56084,-0.63888 -1.42645,-1.06022 -2.49067,-1.06022 -1.06171,0 -1.95605,0.42134 -2.51439,1.06022 -0.75444,0.83768 -0.95055,1.76537 -0.95055,5.60118 0,3.83205 0.19611,4.75725 0.95055,5.59492 0.55834,0.64514 1.45268,1.06273 2.51439,1.06273 1.06422,0 1.92983,-0.41759 2.49067,-1.06273 0.75444,-0.83767 0.97677,-1.76287 0.97677,-5.59492 0,-3.83581 -0.22233,-4.7635 -0.97677,-5.60118 z m 2.87912,13.5441 c -1.39772,1.40154 -3.10271,2.1867 -5.36979,2.1867 -2.26332,0 -3.99704,-0.78516 -5.39226,-2.1867 -2.01476,-2.01168 -1.95731,-4.50345 -1.95731,-7.94292 0,-3.44323 -0.0574,-5.935 1.95731,-7.94792 1.39522,-1.39904 3.12894,-2.18421 5.39226,-2.18421 2.26708,0 3.97207,0.78517 5.36979,2.18421 2.01226,2.01292 1.98478,4.50469 1.98478,7.94792 0,3.43947 0.0275,5.93124 -1.98478,7.94292" inkscape:connector-curvature="0"/>
      <path id="path52" style="fill:#8c6851;fill-opacity:1;fill-rule:nonzero;stroke:none" d="m 450.26296,522.05151 -7.88668,-12.23007 0,12.23007 -3.88588,0 0,-19.92668 3.46744,0 7.88418,12.20381 0,-12.20381 3.88713,0 0,19.92668 -3.46619,0" inkscape:connector-curvature="0"/>
      <path id="path54" style="fill:#8c6851;fill-opacity:1;fill-rule:nonzero;stroke:none" d="m 470.1108,522.05151 -7.88418,-12.23007 0,12.23007 -3.88463,0 0,-19.92668 3.46744,0 7.88293,12.20381 0,-12.20381 3.88713,0 0,19.92668 -3.46869,0" inkscape:connector-curvature="0"/>
      <path id="path56" style="fill:#8c6851;fill-opacity:1;fill-rule:nonzero;stroke:none" d="m 478.19608,522.05151 0,-19.92668 13.10906,0 0,3.47197 -9.22568,0 0,4.67474 7.85794,0 0,3.46822 -7.85794,0 0,4.84227 9.22568,0 0,3.46948 -13.10906,0" inkscape:connector-curvature="0"/>
      <path id="path58" style="fill:#c0a896;fill-opacity:1;fill-rule:nonzero;stroke:none" d="m 508.5624,522.22029 c -4.08324,0 -7.32834,-2.77058 -7.32834,-6.99646 l 0,-13.099 3.88713,0 0,12.95772 c 0,2.29298 1.34276,3.66577 3.44121,3.66577 2.0947,0 3.46494,-1.37279 3.46494,-3.66577 l 0,-12.95772 3.85715,0 0,13.099 c 0,4.22588 -3.2426,6.99646 -7.32209,6.99646" inkscape:connector-curvature="0"/>
      <path id="path60" style="fill:#c0a896;fill-opacity:1;fill-rule:nonzero;stroke:none" d="m 535.43255,522.05151 -3.46993,0 -7.88418,-12.23007 0,12.23007 -3.88338,0 0,-19.92668 3.46619,0 7.88293,12.20381 0,-12.20381 3.88837,0 0,19.92668" inkscape:connector-curvature="0"/>
      <path id="path62" style="fill:#c0a896;fill-opacity:1;fill-rule:nonzero;stroke:none" d="m 540.04665,522.05151 3.88434,0 0,-19.92656 -3.88434,0 0,19.92656 z" inkscape:connector-curvature="0"/>
      <path id="path64" style="fill:#c0a896;fill-opacity:1;fill-rule:nonzero;stroke:none" d="m 555.78752,522.05151 -2.90785,0 -6.5689,-19.92668 4.02578,0 3.99829,12.98647 3.9958,-12.98647 4.05576,0 -6.59888,19.92668" inkscape:connector-curvature="0"/>
      <path id="path66" style="fill:#c0a896;fill-opacity:1;fill-rule:nonzero;stroke:none" d="m 577.87746,522.05151 -13.11157,0 0,-19.92668 13.11157,0 0,3.47197 -9.22569,0 0,4.67474 7.8542,0 0,3.46822 -7.8542,0 0,4.84227 9.22569,0 0,3.46948" inkscape:connector-curvature="0"/>
      <path id="path68" style="fill:#c0a896;fill-opacity:1;fill-rule:nonzero;stroke:none" d="m 596.72354,522.05151 -4.50293,0 -3.88588,-7.94917 -2.79418,0 0,7.94917 -3.88588,0 0,-19.92668 7.79799,0 c 4.05575,0 6.45773,2.77058 6.45773,6.10253 0,2.79683 -1.70249,4.5297 -3.63232,5.22984 l 4.44547,8.59431 m -11.18299,-16.45471 0,5.26111 3.66104,0 c 1.70749,0 2.82542,-1.09273 2.82542,-2.63055 0,-1.53783 -1.11793,-2.63056 -2.82542,-2.63056 l -3.66104,0" inkscape:connector-curvature="0"/>
      <path id="path70" style="fill:#c0a896;fill-opacity:1;fill-rule:nonzero;stroke:none" d="m 605.39089,522.22029 c -3.01777,0 -5.30858,-0.64388 -7.26714,-2.6343 l 2.51565,-2.51303 c 1.25657,1.25777 2.96531,1.67536 4.80894,1.67536 2.29206,0 3.5224,-0.86394 3.5224,-2.46302 0,-0.6989 -0.1961,-1.28402 -0.61454,-1.68035 -0.39221,-0.36008 -0.83938,-0.55887 -1.76245,-0.69765 l -2.40198,-0.33507 c -1.70624,-0.25255 -2.96531,-0.78142 -3.8609,-1.65285 -0.95054,-0.94895 -1.42394,-2.23547 -1.42394,-3.91957 0,-3.55325 2.62681,-6.04127 6.93362,-6.04127 2.73798,0 4.72526,0.67139 6.42901,2.32299 l -2.46069,2.43426 c -1.25907,-1.2015 -2.7692,-1.37404 -4.07948,-1.37404 -2.06972,0 -3.07773,1.14774 -3.07773,2.52178 0,0.50136 0.16987,1.03647 0.58707,1.42655 0.3947,0.36383 1.03548,0.67139 1.84363,0.78391 l 2.35077,0.33507 c 1.81866,0.25256 2.96406,0.75641 3.80219,1.53783 1.06421,1.00896 1.53761,2.46552 1.53761,4.22714 0,3.85956 -3.21637,6.04626 -7.38204,6.04626" inkscape:connector-curvature="0"/>
      <path id="path72" style="fill:#c0a896;fill-opacity:1;fill-rule:nonzero;stroke:none" d="m 616.41025,522.05151 3.88483,0 0,-19.92656 -3.88483,0 0,19.92656 z" inkscape:connector-curvature="0"/>
      <path id="path74" style="fill:#c0a896;fill-opacity:1;fill-rule:nonzero;stroke:none" d="m 632.5146,522.05151 -3.88588,0 0,-16.45471 -5.19991,0 0,-3.47197 14.28445,0 0,3.47197 -5.19866,0 0,16.45471" inkscape:connector-curvature="0"/>
      <path id="path76" style="fill:#c0a896;fill-opacity:1;fill-rule:nonzero;stroke:none" d="m 653.96002,522.05151 -13.11032,0 0,-19.92668 13.11032,0 0,3.47197 -9.22569,0 0,4.67474 7.8567,0 0,3.46822 -7.8567,0 0,4.84227 9.22569,0 0,3.46948 m -5.8969,-21.85584 -2.4332,0 1.78868,-4.75975 3.82967,0 -3.18515,4.75975" inkscape:connector-curvature="0"/>
      <path id="path78" style="fill:#c0a896;fill-opacity:1;fill-rule:nonzero;stroke:none" d="m 663.21818,522.22029 c -3.02152,0 -5.31358,-0.64388 -7.26963,-2.6343 l 2.51564,-2.51303 c 1.26032,1.25777 2.96281,1.67536 4.8077,1.67536 2.29331,0 3.52365,-0.86394 3.52365,-2.46302 0,-0.6989 -0.19486,-1.28402 -0.61455,-1.68035 -0.39221,-0.36008 -0.83938,-0.55887 -1.75995,-0.69765 l -2.40697,-0.33507 c -1.70374,-0.25255 -2.96281,-0.78142 -3.85715,-1.65285 -0.9518,-0.94895 -1.4252,-2.23547 -1.4252,-3.91957 0,-3.55325 2.62681,-6.04127 6.93363,-6.04127 2.74047,0 4.72401,0.67139 6.429,2.32299 l -2.45943,2.43426 c -1.25658,-1.2015 -2.76796,-1.37404 -4.08324,-1.37404 -2.06972,0 -3.07273,1.14774 -3.07273,2.52178 0,0.50136 0.16488,1.03647 0.58457,1.42655 0.39221,0.36383 1.03424,0.67139 1.84614,0.78391 l 2.34951,0.33507 c 1.81741,0.25256 2.96156,0.75641 3.80094,1.53783 1.06172,1.00896 1.53887,2.46552 1.53887,4.22714 0,3.85956 -3.21638,6.04626 -7.3808,6.04626" inkscape:connector-curvature="0"/>
    </g>
  </g>
</svg>