<?xml version="1.0" encoding="UTF-8" standalone="no"?>
<!-- Created with Inkscape (http://www.inkscape.org/) -->

<svg
   xmlns:dc="http://purl.org/dc/elements/1.1/"
   xmlns:cc="http://creativecommons.org/ns#"
   xmlns:rdf="http://www.w3.org/1999/02/22-rdf-syntax-ns#"
   xmlns:svg="http://www.w3.org/2000/svg"
   xmlns="http://www.w3.org/2000/svg"
   xmlns:sodipodi="http://sodipodi.sourceforge.net/DTD/sodipodi-0.dtd"
   xmlns:inkscape="http://www.inkscape.org/namespaces/inkscape"
   version="1.1"
   id="svg2"
   xml:space="preserve"
   width="976"
   height="245.44"
   viewBox="0 0 976 245.44"
   sodipodi:docname="estimation_flow.svg"
   inkscape:version="0.92.4 (unknown)"><metadata
     id="metadata8"><rdf:RDF><cc:Work
         rdf:about=""><dc:format>image/svg+xml</dc:format><dc:type
           rdf:resource="http://purl.org/dc/dcmitype/StillImage" /><dc:title></dc:title></cc:Work></rdf:RDF></metadata><defs
     id="defs6"><clipPath
       clipPathUnits="userSpaceOnUse"
       id="clipPath18"><path
         d="M 0,0 H 3050 V 763.99799 H 0 Z"
         id="path16"
         inkscape:connector-curvature="0"
         style="clip-rule:evenodd" /></clipPath><clipPath
       clipPathUnits="userSpaceOnUse"
       id="clipPath30"><path
         d="M 0,0 H 3050 V 763.99799 H 0 Z"
         id="path28"
         inkscape:connector-curvature="0"
         style="clip-rule:evenodd" /></clipPath><clipPath
       clipPathUnits="userSpaceOnUse"
       id="clipPath38"><path
         d="M 0,0 H 276 V 277 H 0 Z"
         id="path36"
         inkscape:connector-curvature="0" /></clipPath><clipPath
       clipPathUnits="userSpaceOnUse"
       id="clipPath68"><path
         d="M 0,0 H 309 V 310 H 0 Z"
         id="path66"
         inkscape:connector-curvature="0" /></clipPath><clipPath
       clipPathUnits="userSpaceOnUse"
       id="clipPath126"><path
         d="M 0,0 H 280 V 460 H 0 Z"
         id="path124"
         inkscape:connector-curvature="0" /></clipPath><clipPath
       clipPathUnits="userSpaceOnUse"
       id="clipPath176"><path
         d="M 0,0 H 280 V 595 H 0 Z"
         id="path174"
         inkscape:connector-curvature="0" /></clipPath><clipPath
       clipPathUnits="userSpaceOnUse"
       id="clipPath270"><path
         d="M 0,0 H 367 V 637 H 0 Z"
         id="path268"
         inkscape:connector-curvature="0" /></clipPath></defs><sodipodi:namedview
     pagecolor="#ffffff"
     bordercolor="#666666"
     borderopacity="1"
     objecttolerance="10"
     gridtolerance="10"
     guidetolerance="10"
     inkscape:pageopacity="0"
     inkscape:pageshadow="2"
     inkscape:window-width="640"
     inkscape:window-height="480"
     id="namedview4"
     showgrid="false"
     inkscape:zoom="0.33913934"
     inkscape:cx="488"
     inkscape:cy="122.72"
     inkscape:window-x="0"
     inkscape:window-y="27"
     inkscape:window-maximized="0"
     inkscape:current-layer="g10" /><g
     id="g10"
     inkscape:groupmode="layer"
     inkscape:label="estimation_flow"
     transform="matrix(0.31999998,0,0,0.31999998,0,6.136e-6)"><g
       id="g12"><g
         id="g14"
         clip-path="url(#clipPath18)"><g
           id="g20"
           transform="scale(2.9960706)"><path
             d="M 0,0 H 1018 V 256 H 0 Z"
             style="fill:#ffffff;fill-opacity:1;fill-rule:nonzero;stroke:none"
             id="path22"
             inkscape:connector-curvature="0" /></g></g></g><g
       id="g24"><g
         id="g26"
         clip-path="url(#clipPath30)"><g
           id="g32"
           transform="translate(755,47)"><g
             id="g34" /><g
             id="g48"><g
               clip-path="url(#clipPath38)"
               id="g46"
               style="opacity:0.24709999"><g
                 transform="matrix(2.9960706,0,0,2.9960706,-749.00787,-38.011787)"
                 id="g44"><path
                   d="m 251.5,14.5 h 89 v 89 h -89 z"
                   style="fill:#000000;fill-opacity:1;fill-rule:nonzero;stroke:none"
                   id="path40"
                   inkscape:connector-curvature="0" /><path
                   d="m 251.5,14.5 h 89 v 89 h -89 z"
                   style="fill:none;stroke:#000000;stroke-width:1;stroke-linecap:butt;stroke-linejoin:miter;stroke-miterlimit:10;stroke-dasharray:none;stroke-opacity:1"
                   id="path42"
                   inkscape:connector-curvature="0" /></g></g></g></g><g
           id="g50"
           transform="scale(2.9960706)"><path
             d="m 251.5,14.5 h 89 v 89 h -89 z"
             style="fill:#ffffff;fill-opacity:1;fill-rule:nonzero;stroke:none"
             id="path52"
             inkscape:connector-curvature="0" /><path
             d="m 251.5,14.5 h 89 v 89 h -89 z"
             style="fill:none;stroke:#000000;stroke-width:1;stroke-linecap:butt;stroke-linejoin:miter;stroke-miterlimit:10;stroke-dasharray:none;stroke-opacity:1"
             id="path54"
             inkscape:connector-curvature="0" /></g><g
           id="g56"
           transform="matrix(2.9960706,0,0,2.9960706,811.93512,143.81139)"><text
             transform="translate(0.5,18)"
             style="font-variant:normal;font-weight:normal;font-size:20px;font-family:Helvetica;-inkscape-font-specification:Helvetica;writing-mode:lr-tb;fill:#000000;fill-opacity:1;fill-rule:nonzero;stroke:none"
             id="text60"><tspan
               x="0 13.339844 25.556641 37.773438"
               y="0"
               sodipodi:role="line"
               id="tspan58">STFT</tspan></text>
</g><g
           id="g62"
           transform="translate(1360,347)"><g
             id="g64" /><g
             id="g78"><g
               clip-path="url(#clipPath68)"
               id="g76"
               style="opacity:0.24709999"><g
                 transform="matrix(2.9960706,0,0,2.9960706,-1354.0078,-338.01178)"
                 id="g74"><path
                   d="m 453.5,114.5 h 100 v 100 h -100 z"
                   style="fill:#000000;fill-opacity:1;fill-rule:nonzero;stroke:none"
                   id="path70"
                   inkscape:connector-curvature="0" /><path
                   d="m 453.5,114.5 h 100 v 100 h -100 z"
                   style="fill:none;stroke:#000000;stroke-width:1;stroke-linecap:butt;stroke-linejoin:miter;stroke-miterlimit:10;stroke-dasharray:none;stroke-opacity:1"
                   id="path72"
                   inkscape:connector-curvature="0" /></g></g></g></g><g
           id="g80"
           transform="scale(2.9960706)"><path
             d="m 453.5,114.5 h 100 v 100 h -100 z"
             style="fill:#ffffff;fill-opacity:1;fill-rule:nonzero;stroke:none"
             id="path82"
             inkscape:connector-curvature="0" /><path
             d="m 453.5,114.5 h 100 v 100 h -100 z"
             style="fill:none;stroke:#000000;stroke-width:1;stroke-linecap:butt;stroke-linejoin:miter;stroke-miterlimit:10;stroke-dasharray:none;stroke-opacity:1"
             id="path84"
             inkscape:connector-curvature="0" /></g><g
           id="g86"
           transform="matrix(2.9960706,0,0,2.9960706,1381.1886,386.4931)"><text
             transform="translate(0.6875,18)"
             style="font-variant:normal;font-weight:normal;font-size:20px;font-family:Helvetica;-inkscape-font-specification:Helvetica;writing-mode:lr-tb;fill:#000000;fill-opacity:1;fill-rule:nonzero;stroke:none"
             id="text90"><tspan
               x="0 13.339844 24.462891 35.585938 46.708984 57.832031 74.492188"
               y="0"
               sodipodi:role="line"
               id="tspan88">Phoneme</tspan></text>
<text
             transform="translate(9.03125,42)"
             style="font-variant:normal;font-weight:normal;font-size:20px;font-family:Helvetica;-inkscape-font-specification:Helvetica;writing-mode:lr-tb;fill:#000000;fill-opacity:1;fill-rule:nonzero;stroke:none"
             id="text94"><tspan
               x="0 13.339844 24.462891 35.585938 45.585938 51.142578 57.802734"
               y="0"
               sodipodi:role="line"
               id="tspan92">Spectra</tspan></text>
<text
             transform="translate(0.6875,66)"
             style="font-variant:normal;font-weight:normal;font-size:20px;font-family:Helvetica;-inkscape-font-specification:Helvetica;writing-mode:lr-tb;fill:#000000;fill-opacity:1;fill-rule:nonzero;stroke:none"
             id="text98"><tspan
               x="0 14.443359 25.566406 31.123047 42.246094 53.369141 64.492188 74.492188"
               y="0"
               sodipodi:role="line"
               id="tspan96">Database</tspan></text>
</g><g
           id="g100"
           transform="matrix(2.9960706,0,0,2.9960706,1.4980353,1.4980353)"><path
             d="m 122,168 323.63,0.98"
             style="fill:none;stroke:#000000;stroke-width:1;stroke-linecap:butt;stroke-linejoin:miter;stroke-miterlimit:10;stroke-dasharray:none;stroke-opacity:1"
             id="path102"
             inkscape:connector-curvature="0" /><path
             d="m 450.88,169 -7.01,3.48 1.76,-3.5 -1.73999,-3.5 z"
             style="fill:#000000;fill-opacity:1;fill-rule:nonzero;stroke:none"
             id="path104"
             inkscape:connector-curvature="0" /><path
             d="m 450.88,169 -7.01,3.48 1.76,-3.5 -1.73999,-3.5 z"
             style="fill:none;stroke:#000000;stroke-width:1;stroke-linecap:butt;stroke-linejoin:miter;stroke-miterlimit:10;stroke-dasharray:none;stroke-opacity:1"
             id="path106"
             inkscape:connector-curvature="0" /></g><g
           id="g108"
           transform="matrix(2.9960706,0,0,2.9960706,410.46167,329.56778)"><path
             d="M 0,0 H 312 V 48 H 0 Z"
             style="fill:#ffffff;fill-opacity:1;fill-rule:nonzero;stroke:none"
             id="path110"
             inkscape:connector-curvature="0" /><text
             transform="translate(0,18)"
             style="font-variant:normal;font-weight:normal;font-size:20px;font-family:Helvetica;-inkscape-font-specification:Helvetica;writing-mode:lr-tb;fill:#000000;fill-opacity:1;fill-rule:nonzero;stroke:none"
             id="text114"><tspan
               x="0 13.339844 24.462891 35.585938 46.708984 57.832031 63.388672 67.832031 77.832031 83.388672 94.511719 98.955078 103.39844 114.52148 125.64453 142.30469 153.42773 164.55078 170.10742 180.10742 185.66406 195.66406 206.78711 213.44727 220.10742 231.23047 241.23047 252.35352 263.47656 274.59961 285.72266 290.16602 301.28906"
               y="0"
               sodipodi:role="line"
               id="tspan112">Phonetic alignments corresponding</tspan></text>
<text
             transform="translate(91.171875,42)"
             style="font-variant:normal;font-weight:normal;font-size:20px;font-family:Helvetica;-inkscape-font-specification:Helvetica;writing-mode:lr-tb;fill:#000000;fill-opacity:1;fill-rule:nonzero;stroke:none"
             id="text118"><tspan
               x="0 5.5566406 16.679688 22.236328 27.792969 38.916016 50.039062 55.595703 65.595703 76.71875 86.71875 101.16211 112.28516 118.94531"
               y="0"
               sodipodi:role="line"
               id="tspan116">to the keyword</tspan></text>
</g><g
           id="g120"
           transform="translate(1941,197)"><g
             id="g122" /><g
             id="g136"><g
               clip-path="url(#clipPath126)"
               id="g134"
               style="opacity:0.24709999"><g
                 transform="matrix(2.9960706,0,0,2.9960706,-1935.0078,-188.0118)"
                 id="g132"><path
                   d="m 661,64.5 h 63 c 0.88641,0 1.76428,0.08646 2.63361,0.259392 0.86944,0.172935 1.71362,0.429008 2.53253,0.768226 0.81897,0.339219 1.59698,0.755066 2.33398,1.247536 0.737,0.49247 1.41895,1.052101 2.04578,1.678894 0.62677,0.626801 1.18634,1.308716 1.67877,2.045746 0.49255,0.73703 0.90845,1.515022 1.24762,2.333969 0.33917,0.818947 0.59528,1.663117 0.76825,2.532509 0.17291,0.869392 0.2594,1.747299 0.25946,2.633728 v 123 c -6e-5,0.88641 -0.0865,1.76431 -0.25946,2.6337 -0.17297,0.86938 -0.42908,1.71354 -0.76825,2.5325 -0.33917,0.81894 -0.75507,1.59692 -1.24756,2.33397 -0.49249,0.73704 -1.05206,1.41896 -1.67883,2.04576 -0.62683,0.62678 -1.30878,1.1864 -2.04584,1.67888 -0.737,0.49248 -1.51495,0.90832 -2.33392,1.24754 -0.81891,0.33922 -1.66309,0.59529 -2.53247,0.76824 -0.86939,0.17292 -1.74726,0.25939 -2.63367,0.25941 h -63 c -0.88641,-2e-5 -1.76434,-0.0865 -2.63379,-0.25941 -0.86938,-0.17295 -1.71356,-0.42902 -2.53253,-0.76824 -0.81897,-0.33922 -1.59699,-0.75506 -2.33399,-1.24756 -0.73706,-0.49246 -1.41894,-1.05208 -2.04571,-1.67886 -0.62683,-0.6268 -1.18646,-1.30872 -1.67889,-2.04576 -0.4925,-0.73705 -0.90833,-1.51503 -1.24756,-2.33397 -0.33924,-0.81896 -0.59528,-1.66312 -0.76819,-2.5325 C 647.58643,202.76431 647.49994,201.88641 647.5,201 V 78 c -6e-5,-0.886429 0.0864,-1.764336 0.25934,-2.633728 0.17291,-0.869392 0.42895,-1.713562 0.76819,-2.532509 0.33923,-0.818947 0.75506,-1.596939 1.24756,-2.333969 0.49243,-0.73703 1.05206,-1.418945 1.67889,-2.045746 0.62677,-0.626793 1.30865,-1.186424 2.04571,-1.678894 0.737,-0.49247 1.51502,-0.908317 2.33399,-1.247536 0.81897,-0.339218 1.66315,-0.595291 2.53253,-0.768226 C 659.23566,64.586464 660.11359,64.5 661,64.5 Z"
                   style="fill:#000000;fill-opacity:1;fill-rule:nonzero;stroke:none"
                   id="path128"
                   inkscape:connector-curvature="0" /><path
                   d="m 661,64.5 h 63 c 0.88641,0 1.76428,0.08646 2.63361,0.259392 0.86944,0.172935 1.71362,0.429008 2.53253,0.768226 0.81897,0.339219 1.59698,0.755066 2.33398,1.247536 0.737,0.49247 1.41895,1.052101 2.04578,1.678894 0.62677,0.626801 1.18634,1.308716 1.67877,2.045746 0.49255,0.73703 0.90845,1.515022 1.24762,2.333969 0.33917,0.818947 0.59528,1.663117 0.76825,2.532509 0.17291,0.869392 0.2594,1.747299 0.25946,2.633728 v 123 c -6e-5,0.88641 -0.0865,1.76431 -0.25946,2.6337 -0.17297,0.86938 -0.42908,1.71354 -0.76825,2.5325 -0.33917,0.81894 -0.75507,1.59692 -1.24756,2.33397 -0.49249,0.73704 -1.05206,1.41896 -1.67883,2.04576 -0.62683,0.62678 -1.30878,1.1864 -2.04584,1.67888 -0.737,0.49248 -1.51495,0.90832 -2.33392,1.24754 -0.81891,0.33922 -1.66309,0.59529 -2.53247,0.76824 -0.86939,0.17292 -1.74726,0.25939 -2.63367,0.25941 h -63 c -0.88641,-2e-5 -1.76434,-0.0865 -2.63379,-0.25941 -0.86938,-0.17295 -1.71356,-0.42902 -2.53253,-0.76824 -0.81897,-0.33922 -1.59699,-0.75506 -2.33399,-1.24756 -0.73706,-0.49246 -1.41894,-1.05208 -2.04571,-1.67886 -0.62683,-0.6268 -1.18646,-1.30872 -1.67889,-2.04576 -0.4925,-0.73705 -0.90833,-1.51503 -1.24756,-2.33397 -0.33924,-0.81896 -0.59528,-1.66312 -0.76819,-2.5325 C 647.58643,202.76431 647.49994,201.88641 647.5,201 V 78 c -6e-5,-0.886429 0.0864,-1.764336 0.25934,-2.633728 0.17291,-0.869392 0.42895,-1.713562 0.76819,-2.532509 0.33923,-0.818947 0.75506,-1.596939 1.24756,-2.333969 0.49243,-0.73703 1.05206,-1.418945 1.67889,-2.045746 0.62677,-0.626793 1.30865,-1.186424 2.04571,-1.678894 0.737,-0.49247 1.51502,-0.908317 2.33399,-1.247536 0.81897,-0.339218 1.66315,-0.595291 2.53253,-0.768226 C 659.23566,64.586464 660.11359,64.5 661,64.5 Z"
                   style="fill:none;stroke:#000000;stroke-width:1;stroke-linecap:butt;stroke-linejoin:miter;stroke-miterlimit:10;stroke-dasharray:none;stroke-opacity:1"
                   id="path130"
                   inkscape:connector-curvature="0" /></g></g></g></g><g
           id="g138"
           transform="scale(2.9960706)"><path
             d="m 661,64.5 h 63 c 0.88641,0 1.76428,0.08646 2.63361,0.259392 0.86944,0.172935 1.71362,0.429008 2.53253,0.768226 0.81897,0.339219 1.59698,0.755066 2.33398,1.247536 0.737,0.49247 1.41895,1.052101 2.04578,1.678894 0.62677,0.626801 1.18634,1.308716 1.67877,2.045746 0.49255,0.73703 0.90845,1.515022 1.24762,2.333969 0.33917,0.818947 0.59528,1.663117 0.76825,2.532509 0.17291,0.869392 0.2594,1.747299 0.25946,2.633728 v 123 c -6e-5,0.88641 -0.0865,1.76431 -0.25946,2.6337 -0.17297,0.86938 -0.42908,1.71354 -0.76825,2.5325 -0.33917,0.81894 -0.75507,1.59692 -1.24756,2.33397 -0.49249,0.73704 -1.05206,1.41896 -1.67883,2.04576 -0.62683,0.62678 -1.30878,1.1864 -2.04584,1.67888 -0.737,0.49248 -1.51495,0.90832 -2.33392,1.24754 -0.81891,0.33922 -1.66309,0.59529 -2.53247,0.76824 -0.86939,0.17292 -1.74726,0.25939 -2.63367,0.25941 h -63 c -0.88641,-2e-5 -1.76434,-0.0865 -2.63379,-0.25941 -0.86938,-0.17295 -1.71356,-0.42902 -2.53253,-0.76824 -0.81897,-0.33922 -1.59699,-0.75506 -2.33399,-1.24756 -0.73706,-0.49246 -1.41894,-1.05208 -2.04571,-1.67886 -0.62683,-0.6268 -1.18646,-1.30872 -1.67889,-2.04576 -0.4925,-0.73705 -0.90833,-1.51503 -1.24756,-2.33397 -0.33924,-0.81896 -0.59528,-1.66312 -0.76819,-2.5325 C 647.58643,202.76431 647.49994,201.88641 647.5,201 V 78 c -6e-5,-0.886429 0.0864,-1.764336 0.25934,-2.633728 0.17291,-0.869392 0.42895,-1.713562 0.76819,-2.532509 0.33923,-0.818947 0.75506,-1.596939 1.24756,-2.333969 0.49243,-0.73703 1.05206,-1.418945 1.67889,-2.045746 0.62677,-0.626793 1.30865,-1.186424 2.04571,-1.678894 0.737,-0.49247 1.51502,-0.908317 2.33399,-1.247536 0.81897,-0.339218 1.66315,-0.595291 2.53253,-0.768226 C 659.23566,64.586464 660.11359,64.5 661,64.5 Z"
             style="fill:#ffffff;fill-opacity:1;fill-rule:nonzero;stroke:none"
             id="path140"
             inkscape:connector-curvature="0" /><path
             d="m 661,64.5 h 63 c 0.88641,0 1.76428,0.08646 2.63361,0.259392 0.86944,0.172935 1.71362,0.429008 2.53253,0.768226 0.81897,0.339219 1.59698,0.755066 2.33398,1.247536 0.737,0.49247 1.41895,1.052101 2.04578,1.678894 0.62677,0.626801 1.18634,1.308716 1.67877,2.045746 0.49255,0.73703 0.90845,1.515022 1.24762,2.333969 0.33917,0.818947 0.59528,1.663117 0.76825,2.532509 0.17291,0.869392 0.2594,1.747299 0.25946,2.633728 v 123 c -6e-5,0.88641 -0.0865,1.76431 -0.25946,2.6337 -0.17297,0.86938 -0.42908,1.71354 -0.76825,2.5325 -0.33917,0.81894 -0.75507,1.59692 -1.24756,2.33397 -0.49249,0.73704 -1.05206,1.41896 -1.67883,2.04576 -0.62683,0.62678 -1.30878,1.1864 -2.04584,1.67888 -0.737,0.49248 -1.51495,0.90832 -2.33392,1.24754 -0.81891,0.33922 -1.66309,0.59529 -2.53247,0.76824 -0.86939,0.17292 -1.74726,0.25939 -2.63367,0.25941 h -63 c -0.88641,-2e-5 -1.76434,-0.0865 -2.63379,-0.25941 -0.86938,-0.17295 -1.71356,-0.42902 -2.53253,-0.76824 -0.81897,-0.33922 -1.59699,-0.75506 -2.33399,-1.24756 -0.73706,-0.49246 -1.41894,-1.05208 -2.04571,-1.67886 -0.62683,-0.6268 -1.18646,-1.30872 -1.67889,-2.04576 -0.4925,-0.73705 -0.90833,-1.51503 -1.24756,-2.33397 -0.33924,-0.81896 -0.59528,-1.66312 -0.76819,-2.5325 C 647.58643,202.76431 647.49994,201.88641 647.5,201 V 78 c -6e-5,-0.886429 0.0864,-1.764336 0.25934,-2.633728 0.17291,-0.869392 0.42895,-1.713562 0.76819,-2.532509 0.33923,-0.818947 0.75506,-1.596939 1.24756,-2.333969 0.49243,-0.73703 1.05206,-1.418945 1.67889,-2.045746 0.62677,-0.626793 1.30865,-1.186424 2.04571,-1.678894 0.737,-0.49247 1.51502,-0.908317 2.33399,-1.247536 0.81897,-0.339218 1.66315,-0.595291 2.53253,-0.768226 C 659.23566,64.586464 660.11359,64.5 661,64.5 Z"
             style="fill:none;stroke:#000000;stroke-width:1;stroke-linecap:butt;stroke-linejoin:miter;stroke-miterlimit:10;stroke-dasharray:none;stroke-opacity:1"
             id="path142"
             inkscape:connector-curvature="0" /></g><g
           id="g144"
           transform="matrix(2.9960706,0,0,2.9960706,2010.3634,383.49704)"><text
             transform="translate(0.828125,18)"
             style="font-variant:normal;font-weight:normal;font-size:20px;font-family:Helvetica;-inkscape-font-specification:Helvetica;writing-mode:lr-tb;fill:#000000;fill-opacity:1;fill-rule:nonzero;stroke:none"
             id="text148"><tspan
               x="0 14.443359 28.886719"
               y="0"
               sodipodi:role="line"
               id="tspan146">DNN</tspan></text>
</g><g
           id="g150"
           transform="matrix(2.9960706,0,0,2.9960706,1.4980353,1.4980353)"><path
             d="m 554,165 h 87.63"
             style="fill:none;stroke:#000000;stroke-width:1;stroke-linecap:butt;stroke-linejoin:miter;stroke-miterlimit:10;stroke-dasharray:none;stroke-opacity:1"
             id="path152"
             inkscape:connector-curvature="0" /><path
             d="m 646.88,165 -7,3.5 1.75,-3.5 -1.75,-3.5 z"
             style="fill:#000000;fill-opacity:1;fill-rule:nonzero;stroke:none"
             id="path154"
             inkscape:connector-curvature="0" /><path
             d="m 646.88,165 -7,3.5 1.75,-3.5 -1.75,-3.5 z"
             style="fill:none;stroke:#000000;stroke-width:1;stroke-linecap:butt;stroke-linejoin:miter;stroke-miterlimit:10;stroke-dasharray:none;stroke-opacity:1"
             id="path156"
             inkscape:connector-curvature="0" /></g><g
           id="g158"
           transform="matrix(2.9960706,0,0,2.9960706,1674.8035,323.57562)"><path
             d="M 0,0 H 86 V 48 H 0 Z"
             style="fill:#ffffff;fill-opacity:1;fill-rule:nonzero;stroke:none"
             id="path160"
             inkscape:connector-curvature="0" /><text
             transform="translate(0,18)"
             style="font-variant:normal;font-weight:normal;font-size:20px;font-family:Helvetica;-inkscape-font-specification:Helvetica;writing-mode:lr-tb;fill:#000000;fill-opacity:1;fill-rule:nonzero;stroke:none"
             id="text164"><tspan
               x="0 13.339844 24.462891 35.585938 46.708984 57.832031 74.492188"
               y="0"
               sodipodi:role="line"
               id="tspan162">Phoneme</tspan></text>
<text
             transform="translate(0.015625,42)"
             style="font-variant:normal;font-weight:normal;font-size:20px;font-family:Helvetica;-inkscape-font-specification:Helvetica;writing-mode:lr-tb;fill:#000000;fill-opacity:1;fill-rule:nonzero;stroke:none"
             id="text168"><tspan
               x="0 13.339844 24.462891 35.585938 45.585938 51.142578 57.802734 68.925781"
               y="0"
               sodipodi:role="line"
               id="tspan166">Spectrum</tspan></text>
</g><g
           id="g170"
           transform="translate(2492,47)"><g
             id="g172" /><g
             id="g186"><g
               clip-path="url(#clipPath176)"
               id="g184"
               style="opacity:0.24709999"><g
                 transform="matrix(2.9960706,0,0,2.9960706,-2486.0078,-38.011787)"
                 id="g182"><path
                   d="m 845,14.5 h 63 c 0.88641,0 1.76434,0.08647 2.63367,0.259399 0.86932,0.172932 1.7135,0.429007 2.53247,0.768226 0.81891,0.339219 1.59692,0.755063 2.33398,1.247535 0.73706,0.49247 1.41901,1.052103 2.04578,1.678898 0.62677,0.626795 1.1864,1.30871 1.67883,2.045742 0.49243,0.737032 0.90827,1.515022 1.24756,2.333971 0.33923,0.818948 0.59534,1.663116 0.76825,2.532507 0.17291,0.86939 0.2594,1.747299 0.25946,2.633722 v 168 c -6e-5,0.88641 -0.0865,1.76431 -0.25946,2.6337 -0.17291,0.86938 -0.42902,1.71354 -0.76825,2.53248 -0.33929,0.81896 -0.75513,1.59694 -1.24756,2.33397 -0.49243,0.73705 -1.05206,1.41896 -1.67883,2.04576 -0.62677,0.62679 -1.30872,1.18642 -2.04578,1.67888 -0.73706,0.49248 -1.51507,0.90833 -2.33398,1.24756 -0.81897,0.33922 -1.66315,0.59529 -2.53247,0.76822 -0.86933,0.17294 -1.74726,0.25941 -2.63367,0.25943 h -63 c -0.88647,-2e-5 -1.7644,-0.0865 -2.63379,-0.25943 -0.86944,-0.17293 -1.71362,-0.42902 -2.53253,-0.76823 -0.81897,-0.33924 -1.59699,-0.75509 -2.33405,-1.24755 -0.737,-0.49246 -1.41888,-1.05209 -2.04565,-1.67888 -0.62677,-0.6268 -1.1864,-1.30871 -1.67889,-2.04574 -0.4925,-0.73705 -0.90839,-1.51503 -1.24756,-2.33397 -0.33918,-0.81896 -0.59528,-1.66312 -0.76819,-2.5325 C 831.58643,197.76431 831.5,196.88641 831.5,196 V 28 c 0,-0.886423 0.0864,-1.764332 0.25934,-2.633722 0.17291,-0.869391 0.42901,-1.713559 0.76819,-2.532507 0.33917,-0.818949 0.755,-1.596939 1.24749,-2.333971 0.4925,-0.737032 1.05219,-1.418947 1.67896,-2.045742 0.62677,-0.626795 1.30865,-1.186428 2.04565,-1.678898 0.737,-0.492472 1.51502,-0.908316 2.33399,-1.247535 0.81897,-0.339219 1.66315,-0.595294 2.53259,-0.768226 C 843.2356,14.586466 844.11353,14.5 845,14.5 Z"
                   style="fill:#000000;fill-opacity:1;fill-rule:nonzero;stroke:none"
                   id="path178"
                   inkscape:connector-curvature="0" /><path
                   d="m 845,14.5 h 63 c 0.88641,0 1.76434,0.08647 2.63367,0.259399 0.86932,0.172932 1.7135,0.429007 2.53247,0.768226 0.81891,0.339219 1.59692,0.755063 2.33398,1.247535 0.73706,0.49247 1.41901,1.052103 2.04578,1.678898 0.62677,0.626795 1.1864,1.30871 1.67883,2.045742 0.49243,0.737032 0.90827,1.515022 1.24756,2.333971 0.33923,0.818948 0.59534,1.663116 0.76825,2.532507 0.17291,0.86939 0.2594,1.747299 0.25946,2.633722 v 168 c -6e-5,0.88641 -0.0865,1.76431 -0.25946,2.6337 -0.17291,0.86938 -0.42902,1.71354 -0.76825,2.53248 -0.33929,0.81896 -0.75513,1.59694 -1.24756,2.33397 -0.49243,0.73705 -1.05206,1.41896 -1.67883,2.04576 -0.62677,0.62679 -1.30872,1.18642 -2.04578,1.67888 -0.73706,0.49248 -1.51507,0.90833 -2.33398,1.24756 -0.81897,0.33922 -1.66315,0.59529 -2.53247,0.76822 -0.86933,0.17294 -1.74726,0.25941 -2.63367,0.25943 h -63 c -0.88647,-2e-5 -1.7644,-0.0865 -2.63379,-0.25943 -0.86944,-0.17293 -1.71362,-0.42902 -2.53253,-0.76823 -0.81897,-0.33924 -1.59699,-0.75509 -2.33405,-1.24755 -0.737,-0.49246 -1.41888,-1.05209 -2.04565,-1.67888 -0.62677,-0.6268 -1.1864,-1.30871 -1.67889,-2.04574 -0.4925,-0.73705 -0.90839,-1.51503 -1.24756,-2.33397 -0.33918,-0.81896 -0.59528,-1.66312 -0.76819,-2.5325 C 831.58643,197.76431 831.5,196.88641 831.5,196 V 28 c 0,-0.886423 0.0864,-1.764332 0.25934,-2.633722 0.17291,-0.869391 0.42901,-1.713559 0.76819,-2.532507 0.33917,-0.818949 0.755,-1.596939 1.24749,-2.333971 0.4925,-0.737032 1.05219,-1.418947 1.67896,-2.045742 0.62677,-0.626795 1.30865,-1.186428 2.04565,-1.678898 0.737,-0.492472 1.51502,-0.908316 2.33399,-1.247535 0.81897,-0.339219 1.66315,-0.595294 2.53259,-0.768226 C 843.2356,14.586466 844.11353,14.5 845,14.5 Z"
                   style="fill:none;stroke:#000000;stroke-width:1;stroke-linecap:butt;stroke-linejoin:miter;stroke-miterlimit:10;stroke-dasharray:none;stroke-opacity:1"
                   id="path180"
                   inkscape:connector-curvature="0" /></g></g></g></g><g
           id="g188"
           transform="scale(2.9960706)"><path
             d="m 845,14.5 h 63 c 0.88641,0 1.76434,0.08647 2.63367,0.259399 0.86932,0.172932 1.7135,0.429007 2.53247,0.768226 0.81891,0.339219 1.59692,0.755063 2.33398,1.247535 0.73706,0.49247 1.41901,1.052103 2.04578,1.678898 0.62677,0.626795 1.1864,1.30871 1.67883,2.045742 0.49243,0.737032 0.90827,1.515022 1.24756,2.333971 0.33923,0.818948 0.59534,1.663116 0.76825,2.532507 0.17291,0.86939 0.2594,1.747299 0.25946,2.633722 v 168 c -6e-5,0.88641 -0.0865,1.76431 -0.25946,2.6337 -0.17291,0.86938 -0.42902,1.71354 -0.76825,2.53248 -0.33929,0.81896 -0.75513,1.59694 -1.24756,2.33397 -0.49243,0.73705 -1.05206,1.41896 -1.67883,2.04576 -0.62677,0.62679 -1.30872,1.18642 -2.04578,1.67888 -0.73706,0.49248 -1.51507,0.90833 -2.33398,1.24756 -0.81897,0.33922 -1.66315,0.59529 -2.53247,0.76822 -0.86933,0.17294 -1.74726,0.25941 -2.63367,0.25943 h -63 c -0.88647,-2e-5 -1.7644,-0.0865 -2.63379,-0.25943 -0.86944,-0.17293 -1.71362,-0.42902 -2.53253,-0.76823 -0.81897,-0.33924 -1.59699,-0.75509 -2.33405,-1.24755 -0.737,-0.49246 -1.41888,-1.05209 -2.04565,-1.67888 -0.62677,-0.6268 -1.1864,-1.30871 -1.67889,-2.04574 -0.4925,-0.73705 -0.90839,-1.51503 -1.24756,-2.33397 -0.33918,-0.81896 -0.59528,-1.66312 -0.76819,-2.5325 C 831.58643,197.76431 831.5,196.88641 831.5,196 V 28 c 0,-0.886423 0.0864,-1.764332 0.25934,-2.633722 0.17291,-0.869391 0.42901,-1.713559 0.76819,-2.532507 0.33917,-0.818949 0.755,-1.596939 1.24749,-2.333971 0.4925,-0.737032 1.05219,-1.418947 1.67896,-2.045742 0.62677,-0.626795 1.30865,-1.186428 2.04565,-1.678898 0.737,-0.492472 1.51502,-0.908316 2.33399,-1.247535 0.81897,-0.339219 1.66315,-0.595294 2.53259,-0.768226 C 843.2356,14.586466 844.11353,14.5 845,14.5 Z"
             style="fill:#ffffff;fill-opacity:1;fill-rule:nonzero;stroke:none"
             id="path190"
             inkscape:connector-curvature="0" /><path
             d="m 845,14.5 h 63 c 0.88641,0 1.76434,0.08647 2.63367,0.259399 0.86932,0.172932 1.7135,0.429007 2.53247,0.768226 0.81891,0.339219 1.59692,0.755063 2.33398,1.247535 0.73706,0.49247 1.41901,1.052103 2.04578,1.678898 0.62677,0.626795 1.1864,1.30871 1.67883,2.045742 0.49243,0.737032 0.90827,1.515022 1.24756,2.333971 0.33923,0.818948 0.59534,1.663116 0.76825,2.532507 0.17291,0.86939 0.2594,1.747299 0.25946,2.633722 v 168 c -6e-5,0.88641 -0.0865,1.76431 -0.25946,2.6337 -0.17291,0.86938 -0.42902,1.71354 -0.76825,2.53248 -0.33929,0.81896 -0.75513,1.59694 -1.24756,2.33397 -0.49243,0.73705 -1.05206,1.41896 -1.67883,2.04576 -0.62677,0.62679 -1.30872,1.18642 -2.04578,1.67888 -0.73706,0.49248 -1.51507,0.90833 -2.33398,1.24756 -0.81897,0.33922 -1.66315,0.59529 -2.53247,0.76822 -0.86933,0.17294 -1.74726,0.25941 -2.63367,0.25943 h -63 c -0.88647,-2e-5 -1.7644,-0.0865 -2.63379,-0.25943 -0.86944,-0.17293 -1.71362,-0.42902 -2.53253,-0.76823 -0.81897,-0.33924 -1.59699,-0.75509 -2.33405,-1.24755 -0.737,-0.49246 -1.41888,-1.05209 -2.04565,-1.67888 -0.62677,-0.6268 -1.1864,-1.30871 -1.67889,-2.04574 -0.4925,-0.73705 -0.90839,-1.51503 -1.24756,-2.33397 -0.33918,-0.81896 -0.59528,-1.66312 -0.76819,-2.5325 C 831.58643,197.76431 831.5,196.88641 831.5,196 V 28 c 0,-0.886423 0.0864,-1.764332 0.25934,-2.633722 0.17291,-0.869391 0.42901,-1.713559 0.76819,-2.532507 0.33917,-0.818949 0.755,-1.596939 1.24749,-2.333971 0.4925,-0.737032 1.05219,-1.418947 1.67896,-2.045742 0.62677,-0.626795 1.30865,-1.186428 2.04565,-1.678898 0.737,-0.492472 1.51502,-0.908316 2.33399,-1.247535 0.81897,-0.339219 1.66315,-0.595294 2.53259,-0.768226 C 843.2356,14.586466 844.11353,14.5 845,14.5 Z"
             style="fill:none;stroke:#000000;stroke-width:1;stroke-linecap:butt;stroke-linejoin:miter;stroke-miterlimit:10;stroke-dasharray:none;stroke-opacity:1"
             id="path192"
             inkscape:connector-curvature="0" /></g><g
           id="g194"
           transform="matrix(2.9960706,0,0,2.9960706,2561.6404,302.60312)"><text
             transform="translate(0.828125,18)"
             style="font-variant:normal;font-weight:normal;font-size:20px;font-family:Helvetica;-inkscape-font-specification:Helvetica;writing-mode:lr-tb;fill:#000000;fill-opacity:1;fill-rule:nonzero;stroke:none"
             id="text198"><tspan
               x="0 14.443359 28.886719"
               y="0"
               sodipodi:role="line"
               id="tspan196">DNN</tspan></text>
</g><g
           id="g200"
           transform="matrix(2.9960706,0,0,2.9960706,1.4980353,1.4980353)"><path
             d="m 738.53003,145 -0.0601,-10 72.5,-0.39 -0.05,-10.5 L 830,139.5 l -18.91998,15.61 -0.05,-10.5 -72.5,0.39 z"
             style="fill:#000000;fill-opacity:1;fill-rule:nonzero;stroke:none"
             id="path202"
             inkscape:connector-curvature="0" /><path
             d="m 738.53003,145 -0.0601,-10 72.5,-0.39 -0.05,-10.5 L 830,139.5 l -18.91998,15.61 -0.05,-10.5 -72.5,0.39 z"
             style="fill:none;stroke:#000000;stroke-width:1;stroke-linecap:butt;stroke-linejoin:miter;stroke-miterlimit:10;stroke-dasharray:none;stroke-opacity:1"
             id="path204"
             inkscape:connector-curvature="0" /></g><g
           id="g206"
           transform="matrix(2.9960706,0,0,2.9960706,2220.0884,224.70529)"><path
             d="M 0,0 H 77 V 48 H 0 Z"
             style="fill:#ffffff;fill-opacity:1;fill-rule:nonzero;stroke:none"
             id="path208"
             inkscape:connector-curvature="0" /><text
             transform="translate(10.5625,18)"
             style="font-variant:normal;font-weight:normal;font-size:20px;font-family:Helvetica;-inkscape-font-specification:Helvetica;writing-mode:lr-tb;fill:#000000;fill-opacity:1;fill-rule:nonzero;stroke:none"
             id="text212"><tspan
               x="0 10 21.123047 27.783203 38.90625 50.029297"
               y="0"
               sodipodi:role="line"
               id="tspan210">Target</tspan></text>
<text
             transform="translate(0,42)"
             style="font-variant:normal;font-weight:normal;font-size:20px;font-family:Helvetica;-inkscape-font-specification:Helvetica;writing-mode:lr-tb;fill:#000000;fill-opacity:1;fill-rule:nonzero;stroke:none"
             id="text216"><tspan
               x="0 5.5566406 16.679688 27.802734 38.925781 44.482422 48.925781 58.925781 70.048828"
               y="0"
               sodipodi:role="line"
               id="tspan214">Identiﬁer</tspan></text>
</g><g
           id="g218"
           transform="matrix(2.9960706,0,0,2.9960706,1.4980353,1.4980353)"><path
             d="m 921.07001,117.08 -0.04,-10 74.75995,-0.31 -0.05,-10.500003 19.07004,15.420003 -18.94003,15.58 -0.04,-10.5 -74.76001,0.31 z"
             style="fill:#000000;fill-opacity:1;fill-rule:nonzero;stroke:none"
             id="path220"
             inkscape:connector-curvature="0" /><path
             d="m 921.07001,117.08 -0.04,-10 74.75995,-0.31 -0.05,-10.500003 19.07004,15.420003 -18.94003,15.58 -0.04,-10.5 -74.76001,0.31 z"
             style="fill:none;stroke:#000000;stroke-width:1;stroke-linecap:butt;stroke-linejoin:miter;stroke-miterlimit:10;stroke-dasharray:none;stroke-opacity:1"
             id="path222"
             inkscape:connector-curvature="0" /></g><g
           id="g224"
           transform="matrix(2.9960706,0,0,2.9960706,2783.3496,245.6778)"><path
             d="M 0,0 H 43 V 24 H 0 Z"
             style="fill:#ffffff;fill-opacity:1;fill-rule:nonzero;stroke:none"
             id="path226"
             inkscape:connector-curvature="0" /><text
             transform="translate(0,18)"
             style="font-variant:normal;font-weight:normal;font-size:20px;font-family:Helvetica;-inkscape-font-specification:Helvetica;writing-mode:lr-tb;fill:#000000;fill-opacity:1;fill-rule:nonzero;stroke:none"
             id="text230"><tspan
               x="0 14.443359 30"
               y="0"
               sodipodi:role="line"
               id="tspan228">DOA</tspan></text>
</g><g
           id="g232"
           transform="matrix(2.9960706,0,0,2.9960706,1.4980353,1.4980353)"><path
             d="M 341.5,94.5 H 634.13"
             style="fill:none;stroke:#000000;stroke-width:1;stroke-linecap:butt;stroke-linejoin:miter;stroke-miterlimit:10;stroke-dasharray:none;stroke-opacity:1"
             id="path234"
             inkscape:connector-curvature="0" /><path
             d="m 639.38,94.5 -7,3.5 1.75,-3.5 -1.75,-3.5 z"
             style="fill:#000000;fill-opacity:1;fill-rule:nonzero;stroke:none"
             id="path236"
             inkscape:connector-curvature="0" /><path
             d="m 639.38,94.5 -7,3.5 1.75,-3.5 -1.75,-3.5 z"
             style="fill:none;stroke:#000000;stroke-width:1;stroke-linecap:butt;stroke-linejoin:miter;stroke-miterlimit:10;stroke-dasharray:none;stroke-opacity:1"
             id="path238"
             inkscape:connector-curvature="0" /></g><g
           id="g240"
           transform="matrix(2.9960706,0,0,2.9960706,1165.4714,191.74852)"><path
             d="M 0,0 H 185 V 24 H 0 Z"
             style="fill:#ffffff;fill-opacity:1;fill-rule:nonzero;stroke:none"
             id="path242"
             inkscape:connector-curvature="0" /><text
             transform="translate(0,18)"
             style="font-variant:normal;font-weight:normal;font-size:20px;font-family:Helvetica;-inkscape-font-specification:Helvetica;writing-mode:lr-tb;fill:#000000;fill-opacity:1;fill-rule:nonzero;stroke:none"
             id="text246"><tspan
               x="0 16.660156 27.783203 38.90625 50.029297 54.472656 60.029297 71.152344 82.275391 93.398438 98.955078 112.29492 123.41797 134.54102 144.54102 150.09766 156.75781 167.88086"
               y="0"
               sodipodi:role="line"
               id="tspan244">Magnitude Spectrum</tspan></text>
</g><g
           id="g248"
           transform="matrix(2.9960706,0,0,2.9960706,1.4980353,1.4980353)"><path
             d="M 340.5,44.5 H 824.13"
             style="fill:none;stroke:#000000;stroke-width:1;stroke-linecap:butt;stroke-linejoin:miter;stroke-miterlimit:10;stroke-dasharray:none;stroke-opacity:1"
             id="path250"
             inkscape:connector-curvature="0" /><path
             d="m 829.38,44.5 -7,3.5 1.75,-3.5 -1.75,-3.5 z"
             style="fill:#000000;fill-opacity:1;fill-rule:nonzero;stroke:none"
             id="path252"
             inkscape:connector-curvature="0" /><path
             d="m 829.38,44.5 -7,3.5 1.75,-3.5 -1.75,-3.5 z"
             style="fill:none;stroke:#000000;stroke-width:1;stroke-linecap:butt;stroke-linejoin:miter;stroke-miterlimit:10;stroke-dasharray:none;stroke-opacity:1"
             id="path254"
             inkscape:connector-curvature="0" /></g><g
           id="g256"
           transform="matrix(2.9960706,0,0,2.9960706,1620.8743,41.944988)"><path
             d="M 0,0 H 61 V 24 H 0 Z"
             style="fill:#ffffff;fill-opacity:1;fill-rule:nonzero;stroke:none"
             id="path258"
             inkscape:connector-curvature="0" /><text
             transform="translate(0,18)"
             style="font-variant:normal;font-weight:normal;font-size:20px;font-family:Helvetica;-inkscape-font-specification:Helvetica;writing-mode:lr-tb;fill:#000000;fill-opacity:1;fill-rule:nonzero;stroke:none"
             id="text262"><tspan
               x="0 14.443359 27.783203 33.339844 46.679688"
               y="0"
               sodipodi:role="line"
               id="tspan260">CSIPD</tspan></text>
</g><g
           id="g264"
           transform="translate(5,14)"><g
             id="g266" /><g
             id="g280"><g
               clip-path="url(#clipPath270)"
               id="g278"
               style="opacity:0.24709999"><g
                 transform="matrix(2.9960706,0,0,2.9960706,0.99214125,-5.0117884)"
                 id="g276"><path
                   d="m 19,3 h 84 c 1.18189,0 2.35243,0.1152883 3.51162,0.345865 1.15919,0.2305763 2.28474,0.5720108 3.37667,1.0243032 1.09194,0.4522925 2.12926,1.006752 3.11197,1.6633782 0.9827,0.6566267 1.89192,1.4028039 2.72765,2.2385312 0.83573,0.8357267 1.5819,1.7449464 2.23853,2.7276574 0.65662,0.982711 1.21109,2.020032 1.66338,3.111962 0.4523,1.091931 0.79373,2.21749 1.02431,3.376678 C 120.88471,18.64756 121,19.818102 121,21 v 174 c 0,1.18188 -0.11529,2.35242 -0.34587,3.5116 -0.23058,1.15919 -0.57201,2.28474 -1.02431,3.37668 -0.45229,1.09193 -1.00676,2.12925 -1.66338,3.11196 -0.65663,0.98272 -1.4028,1.89193 -2.23853,2.72767 -0.83573,0.8357 -1.74495,1.58187 -2.72765,2.23849 -0.98271,0.65665 -2.02003,1.21111 -3.11197,1.66339 -1.09193,0.4523 -2.21748,0.79375 -3.37667,1.02432 C 105.35243,212.88469 104.18189,212.99998 103,213 H 19 c -1.181898,-2e-5 -2.352442,-0.11533 -3.511627,-0.3459 -1.159187,-0.23058 -2.284746,-0.57201 -3.376676,-1.02431 -1.09193,-0.45228 -2.1292513,-1.00674 -3.1119621,-1.66337 C 8.017024,209.30978 7.1078048,208.56361 6.2720776,207.72791 5.4363503,206.89217 4.6901731,205.98296 4.0335464,205.00024 3.3769197,204.01753 2.8224604,202.98021 2.3701682,201.88828 1.9178758,200.79634 1.5764414,199.67079 1.3458648,198.5116 1.1152881,197.35242 0.99999994,196.18188 1,195 V 21 c -6e-8,-1.181898 0.1152881,-2.35244 0.3458648,-3.511627 0.2305766,-1.159186 0.572011,-2.284745 1.0243034,-3.376676 0.4522922,-1.09193 1.0067515,-2.129251 1.6633782,-3.111962 C 4.6901731,10.017024 5.4363503,9.1078043 6.2720776,8.2720776 7.1078048,7.4363503 8.017024,6.6901731 8.9997358,6.0335469 9.9824467,5.3769202 11.019767,4.8224607 12.111697,4.3701682 13.203627,3.9178758 14.329186,3.5764413 15.488373,3.3458648 16.647558,3.1152883 17.818102,3 19,3 Z"
                   style="fill:#000000;fill-opacity:1;fill-rule:nonzero;stroke:none"
                   id="path272"
                   inkscape:connector-curvature="0" /><path
                   d="m 19,3 h 84 c 1.18189,0 2.35243,0.1152883 3.51162,0.345865 1.15919,0.2305763 2.28474,0.5720108 3.37667,1.0243032 1.09194,0.4522925 2.12926,1.006752 3.11197,1.6633782 0.9827,0.6566267 1.89192,1.4028039 2.72765,2.2385312 0.83573,0.8357267 1.5819,1.7449464 2.23853,2.7276574 0.65662,0.982711 1.21109,2.020032 1.66338,3.111962 0.4523,1.091931 0.79373,2.21749 1.02431,3.376678 C 120.88471,18.64756 121,19.818102 121,21 v 174 c 0,1.18188 -0.11529,2.35242 -0.34587,3.5116 -0.23058,1.15919 -0.57201,2.28474 -1.02431,3.37668 -0.45229,1.09193 -1.00676,2.12925 -1.66338,3.11196 -0.65663,0.98272 -1.4028,1.89193 -2.23853,2.72767 -0.83573,0.8357 -1.74495,1.58187 -2.72765,2.23849 -0.98271,0.65665 -2.02003,1.21111 -3.11197,1.66339 -1.09193,0.4523 -2.21748,0.79375 -3.37667,1.02432 C 105.35243,212.88469 104.18189,212.99998 103,213 H 19 c -1.181898,-2e-5 -2.352442,-0.11533 -3.511627,-0.3459 -1.159187,-0.23058 -2.284746,-0.57201 -3.376676,-1.02431 -1.09193,-0.45228 -2.1292513,-1.00674 -3.1119621,-1.66337 C 8.017024,209.30978 7.1078048,208.56361 6.2720776,207.72791 5.4363503,206.89217 4.6901731,205.98296 4.0335464,205.00024 3.3769197,204.01753 2.8224604,202.98021 2.3701682,201.88828 1.9178758,200.79634 1.5764414,199.67079 1.3458648,198.5116 1.1152881,197.35242 0.99999994,196.18188 1,195 V 21 c -6e-8,-1.181898 0.1152881,-2.35244 0.3458648,-3.511627 0.2305766,-1.159186 0.572011,-2.284745 1.0243034,-3.376676 0.4522922,-1.09193 1.0067515,-2.129251 1.6633782,-3.111962 C 4.6901731,10.017024 5.4363503,9.1078043 6.2720776,8.2720776 7.1078048,7.4363503 8.017024,6.6901731 8.9997358,6.0335469 9.9824467,5.3769202 11.019767,4.8224607 12.111697,4.3701682 13.203627,3.9178758 14.329186,3.5764413 15.488373,3.3458648 16.647558,3.1152883 17.818102,3 19,3 Z"
                   style="fill:none;stroke:#000000;stroke-width:1;stroke-linecap:butt;stroke-linejoin:miter;stroke-miterlimit:10;stroke-dasharray:none;stroke-opacity:1"
                   id="path274"
                   inkscape:connector-curvature="0" /></g></g></g></g><g
           id="g282"
           transform="scale(2.9960706)"><path
             d="m 19,3 h 84 c 1.18189,0 2.35243,0.1152883 3.51162,0.345865 1.15919,0.2305763 2.28474,0.5720108 3.37667,1.0243032 1.09194,0.4522925 2.12926,1.006752 3.11197,1.6633782 0.9827,0.6566267 1.89192,1.4028039 2.72765,2.2385312 0.83573,0.8357267 1.5819,1.7449464 2.23853,2.7276574 0.65662,0.982711 1.21109,2.020032 1.66338,3.111962 0.4523,1.091931 0.79373,2.21749 1.02431,3.376678 C 120.88471,18.64756 121,19.818102 121,21 v 174 c 0,1.18188 -0.11529,2.35242 -0.34587,3.5116 -0.23058,1.15919 -0.57201,2.28474 -1.02431,3.37668 -0.45229,1.09193 -1.00676,2.12925 -1.66338,3.11196 -0.65663,0.98272 -1.4028,1.89193 -2.23853,2.72767 -0.83573,0.8357 -1.74495,1.58187 -2.72765,2.23849 -0.98271,0.65665 -2.02003,1.21111 -3.11197,1.66339 -1.09193,0.4523 -2.21748,0.79375 -3.37667,1.02432 C 105.35243,212.88469 104.18189,212.99998 103,213 H 19 c -1.181898,-2e-5 -2.352442,-0.11533 -3.511627,-0.3459 -1.159187,-0.23058 -2.284746,-0.57201 -3.376676,-1.02431 -1.09193,-0.45228 -2.1292513,-1.00674 -3.1119621,-1.66337 C 8.017024,209.30978 7.1078048,208.56361 6.2720776,207.72791 5.4363503,206.89217 4.6901731,205.98296 4.0335464,205.00024 3.3769197,204.01753 2.8224604,202.98021 2.3701682,201.88828 1.9178758,200.79634 1.5764414,199.67079 1.3458648,198.5116 1.1152881,197.35242 0.99999994,196.18188 1,195 V 21 c -6e-8,-1.181898 0.1152881,-2.35244 0.3458648,-3.511627 0.2305766,-1.159186 0.572011,-2.284745 1.0243034,-3.376676 0.4522922,-1.09193 1.0067515,-2.129251 1.6633782,-3.111962 C 4.6901731,10.017024 5.4363503,9.1078043 6.2720776,8.2720776 7.1078048,7.4363503 8.017024,6.6901731 8.9997358,6.0335469 9.9824467,5.3769202 11.019767,4.8224607 12.111697,4.3701682 13.203627,3.9178758 14.329186,3.5764413 15.488373,3.3458648 16.647558,3.1152883 17.818102,3 19,3 Z"
             style="fill:#ffffff;fill-opacity:1;fill-rule:nonzero;stroke:none"
             id="path284"
             inkscape:connector-curvature="0" /><path
             d="m 19,3 h 84 c 1.18189,0 2.35243,0.1152883 3.51162,0.345865 1.15919,0.2305763 2.28474,0.5720108 3.37667,1.0243032 1.09194,0.4522925 2.12926,1.006752 3.11197,1.6633782 0.9827,0.6566267 1.89192,1.4028039 2.72765,2.2385312 0.83573,0.8357267 1.5819,1.7449464 2.23853,2.7276574 0.65662,0.982711 1.21109,2.020032 1.66338,3.111962 0.4523,1.091931 0.79373,2.21749 1.02431,3.376678 C 120.88471,18.64756 121,19.818102 121,21 v 174 c 0,1.18188 -0.11529,2.35242 -0.34587,3.5116 -0.23058,1.15919 -0.57201,2.28474 -1.02431,3.37668 -0.45229,1.09193 -1.00676,2.12925 -1.66338,3.11196 -0.65663,0.98272 -1.4028,1.89193 -2.23853,2.72767 -0.83573,0.8357 -1.74495,1.58187 -2.72765,2.23849 -0.98271,0.65665 -2.02003,1.21111 -3.11197,1.66339 -1.09193,0.4523 -2.21748,0.79375 -3.37667,1.02432 C 105.35243,212.88469 104.18189,212.99998 103,213 H 19 c -1.181898,-2e-5 -2.352442,-0.11533 -3.511627,-0.3459 -1.159187,-0.23058 -2.284746,-0.57201 -3.376676,-1.02431 -1.09193,-0.45228 -2.1292513,-1.00674 -3.1119621,-1.66337 C 8.017024,209.30978 7.1078048,208.56361 6.2720776,207.72791 5.4363503,206.89217 4.6901731,205.98296 4.0335464,205.00024 3.3769197,204.01753 2.8224604,202.98021 2.3701682,201.88828 1.9178758,200.79634 1.5764414,199.67079 1.3458648,198.5116 1.1152881,197.35242 0.99999994,196.18188 1,195 V 21 c -6e-8,-1.181898 0.1152881,-2.35244 0.3458648,-3.511627 0.2305766,-1.159186 0.572011,-2.284745 1.0243034,-3.376676 0.4522922,-1.09193 1.0067515,-2.129251 1.6633782,-3.111962 C 4.6901731,10.017024 5.4363503,9.1078043 6.2720776,8.2720776 7.1078048,7.4363503 8.017024,6.6901731 8.9997358,6.0335469 9.9824467,5.3769202 11.019767,4.8224607 12.111697,4.3701682 13.203627,3.9178758 14.329186,3.5764413 15.488373,3.3458648 16.647558,3.1152883 17.818102,3 19,3 Z"
             style="fill:none;stroke:#000000;stroke-width:1;stroke-linecap:butt;stroke-linejoin:miter;stroke-miterlimit:10;stroke-dasharray:none;stroke-opacity:1"
             id="path286"
             inkscape:connector-curvature="0" /></g><g
           id="g288"
           transform="matrix(2.9960706,0,0,2.9960706,59.921413,146.80746)"><text
             transform="translate(16.296875,18)"
             style="font-variant:normal;font-weight:normal;font-size:20px;font-family:Helvetica;-inkscape-font-specification:Helvetica;writing-mode:lr-tb;fill:#000000;fill-opacity:1;fill-rule:nonzero;stroke:none"
             id="text292"><tspan
               x="0 18.144531 29.267578 39.267578"
               y="0"
               sodipodi:role="line"
               id="tspan290">Wake</tspan></text>
<text
             transform="translate(30.375,42)"
             style="font-variant:normal;font-weight:normal;font-size:20px;font-family:Helvetica;-inkscape-font-specification:Helvetica;writing-mode:lr-tb;fill:#000000;fill-opacity:1;fill-rule:nonzero;stroke:none"
             id="text296"><tspan
               x="0 11.123047"
               y="0"
               sodipodi:role="line"
               id="tspan294">up</tspan></text>
<text
             transform="translate(19.8125,66)"
             style="font-variant:normal;font-weight:normal;font-size:20px;font-family:Helvetica;-inkscape-font-specification:Helvetica;writing-mode:lr-tb;fill:#000000;fill-opacity:1;fill-rule:nonzero;stroke:none"
             id="text300"><tspan
               x="0 14.443359 25.566406 32.226562"
               y="0"
               sodipodi:role="line"
               id="tspan298">word</tspan></text>
<text
             transform="translate(0.90625,90)"
             style="font-variant:normal;font-weight:normal;font-size:20px;font-family:Helvetica;-inkscape-font-specification:Helvetica;writing-mode:lr-tb;fill:#000000;fill-opacity:1;fill-rule:nonzero;stroke:none"
             id="text304"><tspan
               x="0 11.123047 22.246094 27.802734 38.925781 48.925781 54.482422 58.925781 70.048828"
               y="0"
               sodipodi:role="line"
               id="tspan302">detection</tspan></text>
<text
             transform="translate(9.828125,114)"
             style="font-variant:normal;font-weight:normal;font-size:20px;font-family:Helvetica;-inkscape-font-specification:Helvetica;writing-mode:lr-tb;fill:#000000;fill-opacity:1;fill-rule:nonzero;stroke:none"
             id="text308"><tspan
               x="0 10 20 30 35.556641 46.679688"
               y="0"
               sodipodi:role="line"
               id="tspan306">system</tspan></text>
</g><g
           id="g310"
           transform="matrix(2.9960706,0,0,2.9960706,1.4980353,1.4980353)"><path
             d="M 121,56 244.63,55.049999"
             style="fill:none;stroke:#000000;stroke-width:1;stroke-linecap:butt;stroke-linejoin:miter;stroke-miterlimit:10;stroke-dasharray:none;stroke-opacity:1"
             id="path312"
             inkscape:connector-curvature="0" /><path
             d="m 249.88,55.009998 -6.97,3.550003 1.72,-3.510002 -1.77,-3.489998 z"
             style="fill:#000000;fill-opacity:1;fill-rule:nonzero;stroke:none"
             id="path314"
             inkscape:connector-curvature="0" /><path
             d="m 249.88,55.009998 -6.97,3.550003 1.72,-3.510002 -1.77,-3.489998 z"
             style="fill:none;stroke:#000000;stroke-width:1;stroke-linecap:butt;stroke-linejoin:miter;stroke-miterlimit:10;stroke-dasharray:none;stroke-opacity:1"
             id="path316"
             inkscape:connector-curvature="0" /></g><g
           id="g318"
           transform="matrix(2.9960706,0,0,2.9960706,389.48917,2.9960706)"><path
             d="M 0,0 H 112 V 48 H 0 Z"
             style="fill:#ffffff;fill-opacity:1;fill-rule:nonzero;stroke:none"
             id="path320"
             inkscape:connector-curvature="0" /><text
             transform="translate(0,18)"
             style="font-variant:normal;font-weight:normal;font-size:20px;font-family:Helvetica;-inkscape-font-specification:Helvetica;writing-mode:lr-tb;fill:#000000;fill-opacity:1;fill-rule:nonzero;stroke:none"
             id="text324"><tspan
               x="0 16.660156 27.783203 32.226562 37.783203 42.226562 52.226562 63.349609 74.472656 85.595703 96.71875 107.8418"
               y="0"
               sodipodi:role="line"
               id="tspan322">Multichannel</tspan></text>
<text
             transform="translate(22.234375,42)"
             style="font-variant:normal;font-weight:normal;font-size:20px;font-family:Helvetica;-inkscape-font-specification:Helvetica;writing-mode:lr-tb;fill:#000000;fill-opacity:1;fill-rule:nonzero;stroke:none"
             id="text328"><tspan
               x="0 13.339844 24.462891 35.585938 46.708984 56.708984"
               y="0"
               sodipodi:role="line"
               id="tspan326">Speech</tspan></text>
</g><g
           id="g330"
           transform="matrix(2.9960706,0,0,2.9960706,83.889977,680.10803)"><text
             transform="translate(0,23)"
             style="font-variant:normal;font-weight:normal;font-size:25px;font-family:Helvetica;-inkscape-font-specification:Helvetica;writing-mode:lr-tb;fill:#ff0000;fill-opacity:1;fill-rule:nonzero;stroke:none"
             id="text334"><tspan
               x="0 16.674805 23.620605 37.524414 51.428223 58.374023"
               y="0"
               sodipodi:role="line"
               id="tspan332">Step 1</tspan></text>
</g><g
           id="g336"
           transform="matrix(2.9960706,0,0,2.9960706,1396.169,677.11194)"><text
             transform="translate(0,23)"
             style="font-variant:normal;font-weight:normal;font-size:25px;font-family:Helvetica;-inkscape-font-specification:Helvetica;writing-mode:lr-tb;fill:#ff0000;fill-opacity:1;fill-rule:nonzero;stroke:none"
             id="text340"><tspan
               x="0 16.674805 23.620605 37.524414 51.428223 58.374023"
               y="0"
               sodipodi:role="line"
               id="tspan338">Step 2</tspan></text>
</g><g
           id="g342"
           transform="matrix(2.9960706,0,0,2.9960706,2241.0608,677.11194)"><text
             transform="translate(0,23)"
             style="font-variant:normal;font-weight:normal;font-size:25px;font-family:Helvetica;-inkscape-font-specification:Helvetica;writing-mode:lr-tb;fill:#ff0000;fill-opacity:1;fill-rule:nonzero;stroke:none"
             id="text346"><tspan
               x="0 16.674805 23.620605 37.524414 51.428223 58.374023"
               y="0"
               sodipodi:role="line"
               id="tspan344">Step 3</tspan></text>
</g><g
           id="g348"
           transform="matrix(2.9960706,0,0,2.9960706,2780.3535,677.11194)"><text
             transform="translate(0,23)"
             style="font-variant:normal;font-weight:normal;font-size:25px;font-family:Helvetica;-inkscape-font-specification:Helvetica;writing-mode:lr-tb;fill:#ff0000;fill-opacity:1;fill-rule:nonzero;stroke:none"
             id="text352"><tspan
               x="0 16.674805 23.620605 37.524414 51.428223 58.374023"
               y="0"
               sodipodi:role="line"
               id="tspan350">Step 4</tspan></text>
</g></g></g></g></svg>