<?xml version="1.0" encoding="utf-8" standalone="no"?>
<!DOCTYPE svg PUBLIC "-//W3C//DTD SVG 1.1//EN"
  "http://www.w3.org/Graphics/SVG/1.1/DTD/svg11.dtd">
<!-- Created with matplotlib (http://matplotlib.org/) -->
<svg height="345pt" version="1.1" viewBox="0 0 460 345" width="460pt" xmlns="http://www.w3.org/2000/svg" xmlns:xlink="http://www.w3.org/1999/xlink">
 <defs>
  <style type="text/css">
*{stroke-linecap:butt;stroke-linejoin:round;}
  </style>
 </defs>
 <g id="figure_1">
  <g id="patch_1">
   <path d="M 0 345.6 
L 460.8 345.6 
L 460.8 0 
L 0 0 
z
" style="fill:#ffffff;"/>
  </g>
  <g id="axes_1">
   <g id="patch_2">
    <path d="M 57.6 280.9728 
L 414.72 280.9728 
L 414.72 41.472 
L 57.6 41.472 
z
" style="fill:#ffffff;"/>
   </g>
   <g id="matplotlib.axis_1">
    <g id="xtick_1">
     <g id="line2d_1">
      <path clip-path="url(#p71b203e629)" d="M 89.634497 280.9728 
L 89.634497 41.472 
" style="fill:none;stroke:#b0b0b0;stroke-linecap:square;stroke-width:0.8;"/>
     </g>
     <g id="line2d_2">
      <defs>
       <path d="M 0 0 
L 0 3.5 
" id="m9744e42f35" style="stroke:#1a1a1a;stroke-width:0.8;"/>
      </defs>
      <g>
       <use style="fill:#1a1a1a;stroke:#1a1a1a;stroke-width:0.8;" x="89.634497" xlink:href="#m9744e42f35" y="280.9728"/>
      </g>
     </g>
     <g id="text_1">
      <!-- −0.0006 -->
      <defs>
       <path d="M 10.59375 35.5 
L 73.1875 35.5 
L 73.1875 27.203125 
L 10.59375 27.203125 
z
" id="DejaVuSans-2212"/>
       <path d="M 31.78125 66.40625 
Q 24.171875 66.40625 20.328125 58.90625 
Q 16.5 51.421875 16.5 36.375 
Q 16.5 21.390625 20.328125 13.890625 
Q 24.171875 6.390625 31.78125 6.390625 
Q 39.453125 6.390625 43.28125 13.890625 
Q 47.125 21.390625 47.125 36.375 
Q 47.125 51.421875 43.28125 58.90625 
Q 39.453125 66.40625 31.78125 66.40625 
z
M 31.78125 74.21875 
Q 44.046875 74.21875 50.515625 64.515625 
Q 56.984375 54.828125 56.984375 36.375 
Q 56.984375 17.96875 50.515625 8.265625 
Q 44.046875 -1.421875 31.78125 -1.421875 
Q 19.53125 -1.421875 13.0625 8.265625 
Q 6.59375 17.96875 6.59375 36.375 
Q 6.59375 54.828125 13.0625 64.515625 
Q 19.53125 74.21875 31.78125 74.21875 
z
" id="DejaVuSans-30"/>
       <path d="M 10.6875 12.40625 
L 21 12.40625 
L 21 0 
L 10.6875 0 
z
" id="DejaVuSans-2e"/>
       <path d="M 33.015625 40.375 
Q 26.375 40.375 22.484375 35.828125 
Q 18.609375 31.296875 18.609375 23.390625 
Q 18.609375 15.53125 22.484375 10.953125 
Q 26.375 6.390625 33.015625 6.390625 
Q 39.65625 6.390625 43.53125 10.953125 
Q 47.40625 15.53125 47.40625 23.390625 
Q 47.40625 31.296875 43.53125 35.828125 
Q 39.65625 40.375 33.015625 40.375 
z
M 52.59375 71.296875 
L 52.59375 62.3125 
Q 48.875 64.0625 45.09375 64.984375 
Q 41.3125 65.921875 37.59375 65.921875 
Q 27.828125 65.921875 22.671875 59.328125 
Q 17.53125 52.734375 16.796875 39.40625 
Q 19.671875 43.65625 24.015625 45.921875 
Q 28.375 48.1875 33.59375 48.1875 
Q 44.578125 48.1875 50.953125 41.515625 
Q 57.328125 34.859375 57.328125 23.390625 
Q 57.328125 12.15625 50.6875 5.359375 
Q 44.046875 -1.421875 33.015625 -1.421875 
Q 20.359375 -1.421875 13.671875 8.265625 
Q 6.984375 17.96875 6.984375 36.375 
Q 6.984375 53.65625 15.1875 63.9375 
Q 23.390625 74.21875 37.203125 74.21875 
Q 40.921875 74.21875 44.703125 73.484375 
Q 48.484375 72.75 52.59375 71.296875 
z
" id="DejaVuSans-36"/>
      </defs>
      <g style="fill:#1a1a1a;" transform="translate(67.949341 295.571237)scale(0.1 -0.1)">
       <use xlink:href="#DejaVuSans-2212"/>
       <use x="83.789062" xlink:href="#DejaVuSans-30"/>
       <use x="147.412109" xlink:href="#DejaVuSans-2e"/>
       <use x="179.199219" xlink:href="#DejaVuSans-30"/>
       <use x="242.822266" xlink:href="#DejaVuSans-30"/>
       <use x="306.445312" xlink:href="#DejaVuSans-30"/>
       <use x="370.068359" xlink:href="#DejaVuSans-36"/>
      </g>
     </g>
    </g>
    <g id="xtick_2">
     <g id="line2d_3">
      <path clip-path="url(#p71b203e629)" d="M 138.476331 280.9728 
L 138.476331 41.472 
" style="fill:none;stroke:#b0b0b0;stroke-linecap:square;stroke-width:0.8;"/>
     </g>
     <g id="line2d_4">
      <g>
       <use style="fill:#1a1a1a;stroke:#1a1a1a;stroke-width:0.8;" x="138.476331" xlink:href="#m9744e42f35" y="280.9728"/>
      </g>
     </g>
     <g id="text_2">
      <!-- −0.0004 -->
      <defs>
       <path d="M 37.796875 64.3125 
L 12.890625 25.390625 
L 37.796875 25.390625 
z
M 35.203125 72.90625 
L 47.609375 72.90625 
L 47.609375 25.390625 
L 58.015625 25.390625 
L 58.015625 17.1875 
L 47.609375 17.1875 
L 47.609375 0 
L 37.796875 0 
L 37.796875 17.1875 
L 4.890625 17.1875 
L 4.890625 26.703125 
z
" id="DejaVuSans-34"/>
      </defs>
      <g style="fill:#1a1a1a;" transform="translate(116.791175 295.571237)scale(0.1 -0.1)">
       <use xlink:href="#DejaVuSans-2212"/>
       <use x="83.789062" xlink:href="#DejaVuSans-30"/>
       <use x="147.412109" xlink:href="#DejaVuSans-2e"/>
       <use x="179.199219" xlink:href="#DejaVuSans-30"/>
       <use x="242.822266" xlink:href="#DejaVuSans-30"/>
       <use x="306.445312" xlink:href="#DejaVuSans-30"/>
       <use x="370.068359" xlink:href="#DejaVuSans-34"/>
      </g>
     </g>
    </g>
    <g id="xtick_3">
     <g id="line2d_5">
      <path clip-path="url(#p71b203e629)" d="M 187.318166 280.9728 
L 187.318166 41.472 
" style="fill:none;stroke:#b0b0b0;stroke-linecap:square;stroke-width:0.8;"/>
     </g>
     <g id="line2d_6">
      <g>
       <use style="fill:#1a1a1a;stroke:#1a1a1a;stroke-width:0.8;" x="187.318166" xlink:href="#m9744e42f35" y="280.9728"/>
      </g>
     </g>
     <g id="text_3">
      <!-- −0.0002 -->
      <defs>
       <path d="M 19.1875 8.296875 
L 53.609375 8.296875 
L 53.609375 0 
L 7.328125 0 
L 7.328125 8.296875 
Q 12.9375 14.109375 22.625 23.890625 
Q 32.328125 33.6875 34.8125 36.53125 
Q 39.546875 41.84375 41.421875 45.53125 
Q 43.3125 49.21875 43.3125 52.78125 
Q 43.3125 58.59375 39.234375 62.25 
Q 35.15625 65.921875 28.609375 65.921875 
Q 23.96875 65.921875 18.8125 64.3125 
Q 13.671875 62.703125 7.8125 59.421875 
L 7.8125 69.390625 
Q 13.765625 71.78125 18.9375 73 
Q 24.125 74.21875 28.421875 74.21875 
Q 39.75 74.21875 46.484375 68.546875 
Q 53.21875 62.890625 53.21875 53.421875 
Q 53.21875 48.921875 51.53125 44.890625 
Q 49.859375 40.875 45.40625 35.40625 
Q 44.1875 33.984375 37.640625 27.21875 
Q 31.109375 20.453125 19.1875 8.296875 
z
" id="DejaVuSans-32"/>
      </defs>
      <g style="fill:#1a1a1a;" transform="translate(165.633009 295.571237)scale(0.1 -0.1)">
       <use xlink:href="#DejaVuSans-2212"/>
       <use x="83.789062" xlink:href="#DejaVuSans-30"/>
       <use x="147.412109" xlink:href="#DejaVuSans-2e"/>
       <use x="179.199219" xlink:href="#DejaVuSans-30"/>
       <use x="242.822266" xlink:href="#DejaVuSans-30"/>
       <use x="306.445312" xlink:href="#DejaVuSans-30"/>
       <use x="370.068359" xlink:href="#DejaVuSans-32"/>
      </g>
     </g>
    </g>
    <g id="xtick_4">
     <g id="line2d_7">
      <path clip-path="url(#p71b203e629)" d="M 236.16 280.9728 
L 236.16 41.472 
" style="fill:none;stroke:#b0b0b0;stroke-linecap:square;stroke-width:0.8;"/>
     </g>
     <g id="line2d_8">
      <g>
       <use style="fill:#1a1a1a;stroke:#1a1a1a;stroke-width:0.8;" x="236.16" xlink:href="#m9744e42f35" y="280.9728"/>
      </g>
     </g>
     <g id="text_4">
      <!-- 0.0000 -->
      <g style="fill:#1a1a1a;" transform="translate(218.664687 295.571237)scale(0.1 -0.1)">
       <use xlink:href="#DejaVuSans-30"/>
       <use x="63.623047" xlink:href="#DejaVuSans-2e"/>
       <use x="95.410156" xlink:href="#DejaVuSans-30"/>
       <use x="159.033203" xlink:href="#DejaVuSans-30"/>
       <use x="222.65625" xlink:href="#DejaVuSans-30"/>
       <use x="286.279297" xlink:href="#DejaVuSans-30"/>
      </g>
     </g>
    </g>
    <g id="xtick_5">
     <g id="line2d_9">
      <path clip-path="url(#p71b203e629)" d="M 285.001834 280.9728 
L 285.001834 41.472 
" style="fill:none;stroke:#b0b0b0;stroke-linecap:square;stroke-width:0.8;"/>
     </g>
     <g id="line2d_10">
      <g>
       <use style="fill:#1a1a1a;stroke:#1a1a1a;stroke-width:0.8;" x="285.001834" xlink:href="#m9744e42f35" y="280.9728"/>
      </g>
     </g>
     <g id="text_5">
      <!-- 0.0002 -->
      <g style="fill:#1a1a1a;" transform="translate(267.506522 295.571237)scale(0.1 -0.1)">
       <use xlink:href="#DejaVuSans-30"/>
       <use x="63.623047" xlink:href="#DejaVuSans-2e"/>
       <use x="95.410156" xlink:href="#DejaVuSans-30"/>
       <use x="159.033203" xlink:href="#DejaVuSans-30"/>
       <use x="222.65625" xlink:href="#DejaVuSans-30"/>
       <use x="286.279297" xlink:href="#DejaVuSans-32"/>
      </g>
     </g>
    </g>
    <g id="xtick_6">
     <g id="line2d_11">
      <path clip-path="url(#p71b203e629)" d="M 333.843669 280.9728 
L 333.843669 41.472 
" style="fill:none;stroke:#b0b0b0;stroke-linecap:square;stroke-width:0.8;"/>
     </g>
     <g id="line2d_12">
      <g>
       <use style="fill:#1a1a1a;stroke:#1a1a1a;stroke-width:0.8;" x="333.843669" xlink:href="#m9744e42f35" y="280.9728"/>
      </g>
     </g>
     <g id="text_6">
      <!-- 0.0004 -->
      <g style="fill:#1a1a1a;" transform="translate(316.348356 295.571237)scale(0.1 -0.1)">
       <use xlink:href="#DejaVuSans-30"/>
       <use x="63.623047" xlink:href="#DejaVuSans-2e"/>
       <use x="95.410156" xlink:href="#DejaVuSans-30"/>
       <use x="159.033203" xlink:href="#DejaVuSans-30"/>
       <use x="222.65625" xlink:href="#DejaVuSans-30"/>
       <use x="286.279297" xlink:href="#DejaVuSans-34"/>
      </g>
     </g>
    </g>
    <g id="xtick_7">
     <g id="line2d_13">
      <path clip-path="url(#p71b203e629)" d="M 382.685503 280.9728 
L 382.685503 41.472 
" style="fill:none;stroke:#b0b0b0;stroke-linecap:square;stroke-width:0.8;"/>
     </g>
     <g id="line2d_14">
      <g>
       <use style="fill:#1a1a1a;stroke:#1a1a1a;stroke-width:0.8;" x="382.685503" xlink:href="#m9744e42f35" y="280.9728"/>
      </g>
     </g>
     <g id="text_7">
      <!-- 0.0006 -->
      <g style="fill:#1a1a1a;" transform="translate(365.19019 295.571237)scale(0.1 -0.1)">
       <use xlink:href="#DejaVuSans-30"/>
       <use x="63.623047" xlink:href="#DejaVuSans-2e"/>
       <use x="95.410156" xlink:href="#DejaVuSans-30"/>
       <use x="159.033203" xlink:href="#DejaVuSans-30"/>
       <use x="222.65625" xlink:href="#DejaVuSans-30"/>
       <use x="286.279297" xlink:href="#DejaVuSans-36"/>
      </g>
     </g>
    </g>
    <g id="text_8">
     <!-- TDOA(s) -->
     <defs>
      <path d="M -0.296875 72.90625 
L 61.375 72.90625 
L 61.375 64.59375 
L 35.5 64.59375 
L 35.5 0 
L 25.59375 0 
L 25.59375 64.59375 
L -0.296875 64.59375 
z
" id="DejaVuSans-54"/>
      <path d="M 19.671875 64.796875 
L 19.671875 8.109375 
L 31.59375 8.109375 
Q 46.6875 8.109375 53.6875 14.9375 
Q 60.6875 21.78125 60.6875 36.53125 
Q 60.6875 51.171875 53.6875 57.984375 
Q 46.6875 64.796875 31.59375 64.796875 
z
M 9.8125 72.90625 
L 30.078125 72.90625 
Q 51.265625 72.90625 61.171875 64.09375 
Q 71.09375 55.28125 71.09375 36.53125 
Q 71.09375 17.671875 61.125 8.828125 
Q 51.171875 0 30.078125 0 
L 9.8125 0 
z
" id="DejaVuSans-44"/>
      <path d="M 39.40625 66.21875 
Q 28.65625 66.21875 22.328125 58.203125 
Q 16.015625 50.203125 16.015625 36.375 
Q 16.015625 22.609375 22.328125 14.59375 
Q 28.65625 6.59375 39.40625 6.59375 
Q 50.140625 6.59375 56.421875 14.59375 
Q 62.703125 22.609375 62.703125 36.375 
Q 62.703125 50.203125 56.421875 58.203125 
Q 50.140625 66.21875 39.40625 66.21875 
z
M 39.40625 74.21875 
Q 54.734375 74.21875 63.90625 63.9375 
Q 73.09375 53.65625 73.09375 36.375 
Q 73.09375 19.140625 63.90625 8.859375 
Q 54.734375 -1.421875 39.40625 -1.421875 
Q 24.03125 -1.421875 14.8125 8.828125 
Q 5.609375 19.09375 5.609375 36.375 
Q 5.609375 53.65625 14.8125 63.9375 
Q 24.03125 74.21875 39.40625 74.21875 
z
" id="DejaVuSans-4f"/>
      <path d="M 34.1875 63.1875 
L 20.796875 26.90625 
L 47.609375 26.90625 
z
M 28.609375 72.90625 
L 39.796875 72.90625 
L 67.578125 0 
L 57.328125 0 
L 50.6875 18.703125 
L 17.828125 18.703125 
L 11.1875 0 
L 0.78125 0 
z
" id="DejaVuSans-41"/>
      <path d="M 31 75.875 
Q 24.46875 64.65625 21.28125 53.65625 
Q 18.109375 42.671875 18.109375 31.390625 
Q 18.109375 20.125 21.3125 9.0625 
Q 24.515625 -2 31 -13.1875 
L 23.1875 -13.1875 
Q 15.875 -1.703125 12.234375 9.375 
Q 8.59375 20.453125 8.59375 31.390625 
Q 8.59375 42.28125 12.203125 53.3125 
Q 15.828125 64.359375 23.1875 75.875 
z
" id="DejaVuSans-28"/>
      <path d="M 44.28125 53.078125 
L 44.28125 44.578125 
Q 40.484375 46.53125 36.375 47.5 
Q 32.28125 48.484375 27.875 48.484375 
Q 21.1875 48.484375 17.84375 46.4375 
Q 14.5 44.390625 14.5 40.28125 
Q 14.5 37.15625 16.890625 35.375 
Q 19.28125 33.59375 26.515625 31.984375 
L 29.59375 31.296875 
Q 39.15625 29.25 43.1875 25.515625 
Q 47.21875 21.78125 47.21875 15.09375 
Q 47.21875 7.46875 41.1875 3.015625 
Q 35.15625 -1.421875 24.609375 -1.421875 
Q 20.21875 -1.421875 15.453125 -0.5625 
Q 10.6875 0.296875 5.421875 2 
L 5.421875 11.28125 
Q 10.40625 8.6875 15.234375 7.390625 
Q 20.0625 6.109375 24.8125 6.109375 
Q 31.15625 6.109375 34.5625 8.28125 
Q 37.984375 10.453125 37.984375 14.40625 
Q 37.984375 18.0625 35.515625 20.015625 
Q 33.0625 21.96875 24.703125 23.78125 
L 21.578125 24.515625 
Q 13.234375 26.265625 9.515625 29.90625 
Q 5.8125 33.546875 5.8125 39.890625 
Q 5.8125 47.609375 11.28125 51.796875 
Q 16.75 56 26.8125 56 
Q 31.78125 56 36.171875 55.265625 
Q 40.578125 54.546875 44.28125 53.078125 
z
" id="DejaVuSans-73"/>
      <path d="M 8.015625 75.875 
L 15.828125 75.875 
Q 23.140625 64.359375 26.78125 53.3125 
Q 30.421875 42.28125 30.421875 31.390625 
Q 30.421875 20.453125 26.78125 9.375 
Q 23.140625 -1.703125 15.828125 -13.1875 
L 8.015625 -13.1875 
Q 14.5 -2 17.703125 9.0625 
Q 20.90625 20.125 20.90625 31.390625 
Q 20.90625 42.671875 17.703125 53.65625 
Q 14.5 64.65625 8.015625 75.875 
z
" id="DejaVuSans-29"/>
     </defs>
     <g style="fill:#1a1a1a;" transform="translate(215.394375 309.249362)scale(0.1 -0.1)">
      <use xlink:href="#DejaVuSans-54"/>
      <use x="61.083984" xlink:href="#DejaVuSans-44"/>
      <use x="138.085938" xlink:href="#DejaVuSans-4f"/>
      <use x="216.78125" xlink:href="#DejaVuSans-41"/>
      <use x="285.189453" xlink:href="#DejaVuSans-28"/>
      <use x="324.203125" xlink:href="#DejaVuSans-73"/>
      <use x="376.302734" xlink:href="#DejaVuSans-29"/>
     </g>
    </g>
   </g>
   <g id="matplotlib.axis_2">
    <g id="ytick_1">
     <g id="line2d_15">
      <path clip-path="url(#p71b203e629)" d="M 57.6 270.0864 
L 414.72 270.0864 
" style="fill:none;stroke:#b0b0b0;stroke-linecap:square;stroke-width:0.8;"/>
     </g>
     <g id="line2d_16">
      <defs>
       <path d="M 0 0 
L -3.5 0 
" id="meced7eb6f9" style="stroke:#1a1a1a;stroke-width:0.8;"/>
      </defs>
      <g>
       <use style="fill:#1a1a1a;stroke:#1a1a1a;stroke-width:0.8;" x="57.6" xlink:href="#meced7eb6f9" y="270.0864"/>
      </g>
     </g>
     <g id="text_9">
      <!-- 0.0 -->
      <g style="fill:#1a1a1a;" transform="translate(34.696875 273.885619)scale(0.1 -0.1)">
       <use xlink:href="#DejaVuSans-30"/>
       <use x="63.623047" xlink:href="#DejaVuSans-2e"/>
       <use x="95.410156" xlink:href="#DejaVuSans-30"/>
      </g>
     </g>
    </g>
    <g id="ytick_2">
     <g id="line2d_17">
      <path clip-path="url(#p71b203e629)" d="M 57.6 226.5408 
L 414.72 226.5408 
" style="fill:none;stroke:#b0b0b0;stroke-linecap:square;stroke-width:0.8;"/>
     </g>
     <g id="line2d_18">
      <g>
       <use style="fill:#1a1a1a;stroke:#1a1a1a;stroke-width:0.8;" x="57.6" xlink:href="#meced7eb6f9" y="226.5408"/>
      </g>
     </g>
     <g id="text_10">
      <!-- 0.2 -->
      <g style="fill:#1a1a1a;" transform="translate(34.696875 230.340019)scale(0.1 -0.1)">
       <use xlink:href="#DejaVuSans-30"/>
       <use x="63.623047" xlink:href="#DejaVuSans-2e"/>
       <use x="95.410156" xlink:href="#DejaVuSans-32"/>
      </g>
     </g>
    </g>
    <g id="ytick_3">
     <g id="line2d_19">
      <path clip-path="url(#p71b203e629)" d="M 57.6 182.9952 
L 414.72 182.9952 
" style="fill:none;stroke:#b0b0b0;stroke-linecap:square;stroke-width:0.8;"/>
     </g>
     <g id="line2d_20">
      <g>
       <use style="fill:#1a1a1a;stroke:#1a1a1a;stroke-width:0.8;" x="57.6" xlink:href="#meced7eb6f9" y="182.9952"/>
      </g>
     </g>
     <g id="text_11">
      <!-- 0.4 -->
      <g style="fill:#1a1a1a;" transform="translate(34.696875 186.794419)scale(0.1 -0.1)">
       <use xlink:href="#DejaVuSans-30"/>
       <use x="63.623047" xlink:href="#DejaVuSans-2e"/>
       <use x="95.410156" xlink:href="#DejaVuSans-34"/>
      </g>
     </g>
    </g>
    <g id="ytick_4">
     <g id="line2d_21">
      <path clip-path="url(#p71b203e629)" d="M 57.6 139.4496 
L 414.72 139.4496 
" style="fill:none;stroke:#b0b0b0;stroke-linecap:square;stroke-width:0.8;"/>
     </g>
     <g id="line2d_22">
      <g>
       <use style="fill:#1a1a1a;stroke:#1a1a1a;stroke-width:0.8;" x="57.6" xlink:href="#meced7eb6f9" y="139.4496"/>
      </g>
     </g>
     <g id="text_12">
      <!-- 0.6 -->
      <g style="fill:#1a1a1a;" transform="translate(34.696875 143.248819)scale(0.1 -0.1)">
       <use xlink:href="#DejaVuSans-30"/>
       <use x="63.623047" xlink:href="#DejaVuSans-2e"/>
       <use x="95.410156" xlink:href="#DejaVuSans-36"/>
      </g>
     </g>
    </g>
    <g id="ytick_5">
     <g id="line2d_23">
      <path clip-path="url(#p71b203e629)" d="M 57.6 95.904 
L 414.72 95.904 
" style="fill:none;stroke:#b0b0b0;stroke-linecap:square;stroke-width:0.8;"/>
     </g>
     <g id="line2d_24">
      <g>
       <use style="fill:#1a1a1a;stroke:#1a1a1a;stroke-width:0.8;" x="57.6" xlink:href="#meced7eb6f9" y="95.904"/>
      </g>
     </g>
     <g id="text_13">
      <!-- 0.8 -->
      <defs>
       <path d="M 31.78125 34.625 
Q 24.75 34.625 20.71875 30.859375 
Q 16.703125 27.09375 16.703125 20.515625 
Q 16.703125 13.921875 20.71875 10.15625 
Q 24.75 6.390625 31.78125 6.390625 
Q 38.8125 6.390625 42.859375 10.171875 
Q 46.921875 13.96875 46.921875 20.515625 
Q 46.921875 27.09375 42.890625 30.859375 
Q 38.875 34.625 31.78125 34.625 
z
M 21.921875 38.8125 
Q 15.578125 40.375 12.03125 44.71875 
Q 8.5 49.078125 8.5 55.328125 
Q 8.5 64.0625 14.71875 69.140625 
Q 20.953125 74.21875 31.78125 74.21875 
Q 42.671875 74.21875 48.875 69.140625 
Q 55.078125 64.0625 55.078125 55.328125 
Q 55.078125 49.078125 51.53125 44.71875 
Q 48 40.375 41.703125 38.8125 
Q 48.828125 37.15625 52.796875 32.3125 
Q 56.78125 27.484375 56.78125 20.515625 
Q 56.78125 9.90625 50.3125 4.234375 
Q 43.84375 -1.421875 31.78125 -1.421875 
Q 19.734375 -1.421875 13.25 4.234375 
Q 6.78125 9.90625 6.78125 20.515625 
Q 6.78125 27.484375 10.78125 32.3125 
Q 14.796875 37.15625 21.921875 38.8125 
z
M 18.3125 54.390625 
Q 18.3125 48.734375 21.84375 45.5625 
Q 25.390625 42.390625 31.78125 42.390625 
Q 38.140625 42.390625 41.71875 45.5625 
Q 45.3125 48.734375 45.3125 54.390625 
Q 45.3125 60.0625 41.71875 63.234375 
Q 38.140625 66.40625 31.78125 66.40625 
Q 25.390625 66.40625 21.84375 63.234375 
Q 18.3125 60.0625 18.3125 54.390625 
z
" id="DejaVuSans-38"/>
      </defs>
      <g style="fill:#1a1a1a;" transform="translate(34.696875 99.703219)scale(0.1 -0.1)">
       <use xlink:href="#DejaVuSans-30"/>
       <use x="63.623047" xlink:href="#DejaVuSans-2e"/>
       <use x="95.410156" xlink:href="#DejaVuSans-38"/>
      </g>
     </g>
    </g>
    <g id="ytick_6">
     <g id="line2d_25">
      <path clip-path="url(#p71b203e629)" d="M 57.6 52.3584 
L 414.72 52.3584 
" style="fill:none;stroke:#b0b0b0;stroke-linecap:square;stroke-width:0.8;"/>
     </g>
     <g id="line2d_26">
      <g>
       <use style="fill:#1a1a1a;stroke:#1a1a1a;stroke-width:0.8;" x="57.6" xlink:href="#meced7eb6f9" y="52.3584"/>
      </g>
     </g>
     <g id="text_14">
      <!-- 1.0 -->
      <defs>
       <path d="M 12.40625 8.296875 
L 28.515625 8.296875 
L 28.515625 63.921875 
L 10.984375 60.40625 
L 10.984375 69.390625 
L 28.421875 72.90625 
L 38.28125 72.90625 
L 38.28125 8.296875 
L 54.390625 8.296875 
L 54.390625 0 
L 12.40625 0 
z
" id="DejaVuSans-31"/>
      </defs>
      <g style="fill:#1a1a1a;" transform="translate(34.696875 56.157619)scale(0.1 -0.1)">
       <use xlink:href="#DejaVuSans-31"/>
       <use x="63.623047" xlink:href="#DejaVuSans-2e"/>
       <use x="95.410156" xlink:href="#DejaVuSans-30"/>
      </g>
     </g>
    </g>
    <g id="text_15">
     <!-- Normalized Correlation Magnitude -->
     <defs>
      <path d="M 9.8125 72.90625 
L 23.09375 72.90625 
L 55.421875 11.921875 
L 55.421875 72.90625 
L 64.984375 72.90625 
L 64.984375 0 
L 51.703125 0 
L 19.390625 60.984375 
L 19.390625 0 
L 9.8125 0 
z
" id="DejaVuSans-4e"/>
      <path d="M 30.609375 48.390625 
Q 23.390625 48.390625 19.1875 42.75 
Q 14.984375 37.109375 14.984375 27.296875 
Q 14.984375 17.484375 19.15625 11.84375 
Q 23.34375 6.203125 30.609375 6.203125 
Q 37.796875 6.203125 41.984375 11.859375 
Q 46.1875 17.53125 46.1875 27.296875 
Q 46.1875 37.015625 41.984375 42.703125 
Q 37.796875 48.390625 30.609375 48.390625 
z
M 30.609375 56 
Q 42.328125 56 49.015625 48.375 
Q 55.71875 40.765625 55.71875 27.296875 
Q 55.71875 13.875 49.015625 6.21875 
Q 42.328125 -1.421875 30.609375 -1.421875 
Q 18.84375 -1.421875 12.171875 6.21875 
Q 5.515625 13.875 5.515625 27.296875 
Q 5.515625 40.765625 12.171875 48.375 
Q 18.84375 56 30.609375 56 
z
" id="DejaVuSans-6f"/>
      <path d="M 41.109375 46.296875 
Q 39.59375 47.171875 37.8125 47.578125 
Q 36.03125 48 33.890625 48 
Q 26.265625 48 22.1875 43.046875 
Q 18.109375 38.09375 18.109375 28.8125 
L 18.109375 0 
L 9.078125 0 
L 9.078125 54.6875 
L 18.109375 54.6875 
L 18.109375 46.1875 
Q 20.953125 51.171875 25.484375 53.578125 
Q 30.03125 56 36.53125 56 
Q 37.453125 56 38.578125 55.875 
Q 39.703125 55.765625 41.0625 55.515625 
z
" id="DejaVuSans-72"/>
      <path d="M 52 44.1875 
Q 55.375 50.25 60.0625 53.125 
Q 64.75 56 71.09375 56 
Q 79.640625 56 84.28125 50.015625 
Q 88.921875 44.046875 88.921875 33.015625 
L 88.921875 0 
L 79.890625 0 
L 79.890625 32.71875 
Q 79.890625 40.578125 77.09375 44.375 
Q 74.3125 48.1875 68.609375 48.1875 
Q 61.625 48.1875 57.5625 43.546875 
Q 53.515625 38.921875 53.515625 30.90625 
L 53.515625 0 
L 44.484375 0 
L 44.484375 32.71875 
Q 44.484375 40.625 41.703125 44.40625 
Q 38.921875 48.1875 33.109375 48.1875 
Q 26.21875 48.1875 22.15625 43.53125 
Q 18.109375 38.875 18.109375 30.90625 
L 18.109375 0 
L 9.078125 0 
L 9.078125 54.6875 
L 18.109375 54.6875 
L 18.109375 46.1875 
Q 21.1875 51.21875 25.484375 53.609375 
Q 29.78125 56 35.6875 56 
Q 41.65625 56 45.828125 52.96875 
Q 50 49.953125 52 44.1875 
z
" id="DejaVuSans-6d"/>
      <path d="M 34.28125 27.484375 
Q 23.390625 27.484375 19.1875 25 
Q 14.984375 22.515625 14.984375 16.5 
Q 14.984375 11.71875 18.140625 8.90625 
Q 21.296875 6.109375 26.703125 6.109375 
Q 34.1875 6.109375 38.703125 11.40625 
Q 43.21875 16.703125 43.21875 25.484375 
L 43.21875 27.484375 
z
M 52.203125 31.203125 
L 52.203125 0 
L 43.21875 0 
L 43.21875 8.296875 
Q 40.140625 3.328125 35.546875 0.953125 
Q 30.953125 -1.421875 24.3125 -1.421875 
Q 15.921875 -1.421875 10.953125 3.296875 
Q 6 8.015625 6 15.921875 
Q 6 25.140625 12.171875 29.828125 
Q 18.359375 34.515625 30.609375 34.515625 
L 43.21875 34.515625 
L 43.21875 35.40625 
Q 43.21875 41.609375 39.140625 45 
Q 35.0625 48.390625 27.6875 48.390625 
Q 23 48.390625 18.546875 47.265625 
Q 14.109375 46.140625 10.015625 43.890625 
L 10.015625 52.203125 
Q 14.9375 54.109375 19.578125 55.046875 
Q 24.21875 56 28.609375 56 
Q 40.484375 56 46.34375 49.84375 
Q 52.203125 43.703125 52.203125 31.203125 
z
" id="DejaVuSans-61"/>
      <path d="M 9.421875 75.984375 
L 18.40625 75.984375 
L 18.40625 0 
L 9.421875 0 
z
" id="DejaVuSans-6c"/>
      <path d="M 9.421875 54.6875 
L 18.40625 54.6875 
L 18.40625 0 
L 9.421875 0 
z
M 9.421875 75.984375 
L 18.40625 75.984375 
L 18.40625 64.59375 
L 9.421875 64.59375 
z
" id="DejaVuSans-69"/>
      <path d="M 5.515625 54.6875 
L 48.1875 54.6875 
L 48.1875 46.484375 
L 14.40625 7.171875 
L 48.1875 7.171875 
L 48.1875 0 
L 4.296875 0 
L 4.296875 8.203125 
L 38.09375 47.515625 
L 5.515625 47.515625 
z
" id="DejaVuSans-7a"/>
      <path d="M 56.203125 29.59375 
L 56.203125 25.203125 
L 14.890625 25.203125 
Q 15.484375 15.921875 20.484375 11.0625 
Q 25.484375 6.203125 34.421875 6.203125 
Q 39.59375 6.203125 44.453125 7.46875 
Q 49.3125 8.734375 54.109375 11.28125 
L 54.109375 2.78125 
Q 49.265625 0.734375 44.1875 -0.34375 
Q 39.109375 -1.421875 33.890625 -1.421875 
Q 20.796875 -1.421875 13.15625 6.1875 
Q 5.515625 13.8125 5.515625 26.8125 
Q 5.515625 40.234375 12.765625 48.109375 
Q 20.015625 56 32.328125 56 
Q 43.359375 56 49.78125 48.890625 
Q 56.203125 41.796875 56.203125 29.59375 
z
M 47.21875 32.234375 
Q 47.125 39.59375 43.09375 43.984375 
Q 39.0625 48.390625 32.421875 48.390625 
Q 24.90625 48.390625 20.390625 44.140625 
Q 15.875 39.890625 15.1875 32.171875 
z
" id="DejaVuSans-65"/>
      <path d="M 45.40625 46.390625 
L 45.40625 75.984375 
L 54.390625 75.984375 
L 54.390625 0 
L 45.40625 0 
L 45.40625 8.203125 
Q 42.578125 3.328125 38.25 0.953125 
Q 33.9375 -1.421875 27.875 -1.421875 
Q 17.96875 -1.421875 11.734375 6.484375 
Q 5.515625 14.40625 5.515625 27.296875 
Q 5.515625 40.1875 11.734375 48.09375 
Q 17.96875 56 27.875 56 
Q 33.9375 56 38.25 53.625 
Q 42.578125 51.265625 45.40625 46.390625 
z
M 14.796875 27.296875 
Q 14.796875 17.390625 18.875 11.75 
Q 22.953125 6.109375 30.078125 6.109375 
Q 37.203125 6.109375 41.296875 11.75 
Q 45.40625 17.390625 45.40625 27.296875 
Q 45.40625 37.203125 41.296875 42.84375 
Q 37.203125 48.484375 30.078125 48.484375 
Q 22.953125 48.484375 18.875 42.84375 
Q 14.796875 37.203125 14.796875 27.296875 
z
" id="DejaVuSans-64"/>
      <path id="DejaVuSans-20"/>
      <path d="M 64.40625 67.28125 
L 64.40625 56.890625 
Q 59.421875 61.53125 53.78125 63.8125 
Q 48.140625 66.109375 41.796875 66.109375 
Q 29.296875 66.109375 22.65625 58.46875 
Q 16.015625 50.828125 16.015625 36.375 
Q 16.015625 21.96875 22.65625 14.328125 
Q 29.296875 6.6875 41.796875 6.6875 
Q 48.140625 6.6875 53.78125 8.984375 
Q 59.421875 11.28125 64.40625 15.921875 
L 64.40625 5.609375 
Q 59.234375 2.09375 53.4375 0.328125 
Q 47.65625 -1.421875 41.21875 -1.421875 
Q 24.65625 -1.421875 15.125 8.703125 
Q 5.609375 18.84375 5.609375 36.375 
Q 5.609375 53.953125 15.125 64.078125 
Q 24.65625 74.21875 41.21875 74.21875 
Q 47.75 74.21875 53.53125 72.484375 
Q 59.328125 70.75 64.40625 67.28125 
z
" id="DejaVuSans-43"/>
      <path d="M 18.3125 70.21875 
L 18.3125 54.6875 
L 36.8125 54.6875 
L 36.8125 47.703125 
L 18.3125 47.703125 
L 18.3125 18.015625 
Q 18.3125 11.328125 20.140625 9.421875 
Q 21.96875 7.515625 27.59375 7.515625 
L 36.8125 7.515625 
L 36.8125 0 
L 27.59375 0 
Q 17.1875 0 13.234375 3.875 
Q 9.28125 7.765625 9.28125 18.015625 
L 9.28125 47.703125 
L 2.6875 47.703125 
L 2.6875 54.6875 
L 9.28125 54.6875 
L 9.28125 70.21875 
z
" id="DejaVuSans-74"/>
      <path d="M 54.890625 33.015625 
L 54.890625 0 
L 45.90625 0 
L 45.90625 32.71875 
Q 45.90625 40.484375 42.875 44.328125 
Q 39.84375 48.1875 33.796875 48.1875 
Q 26.515625 48.1875 22.3125 43.546875 
Q 18.109375 38.921875 18.109375 30.90625 
L 18.109375 0 
L 9.078125 0 
L 9.078125 54.6875 
L 18.109375 54.6875 
L 18.109375 46.1875 
Q 21.34375 51.125 25.703125 53.5625 
Q 30.078125 56 35.796875 56 
Q 45.21875 56 50.046875 50.171875 
Q 54.890625 44.34375 54.890625 33.015625 
z
" id="DejaVuSans-6e"/>
      <path d="M 9.8125 72.90625 
L 24.515625 72.90625 
L 43.109375 23.296875 
L 61.8125 72.90625 
L 76.515625 72.90625 
L 76.515625 0 
L 66.890625 0 
L 66.890625 64.015625 
L 48.09375 14.015625 
L 38.1875 14.015625 
L 19.390625 64.015625 
L 19.390625 0 
L 9.8125 0 
z
" id="DejaVuSans-4d"/>
      <path d="M 45.40625 27.984375 
Q 45.40625 37.75 41.375 43.109375 
Q 37.359375 48.484375 30.078125 48.484375 
Q 22.859375 48.484375 18.828125 43.109375 
Q 14.796875 37.75 14.796875 27.984375 
Q 14.796875 18.265625 18.828125 12.890625 
Q 22.859375 7.515625 30.078125 7.515625 
Q 37.359375 7.515625 41.375 12.890625 
Q 45.40625 18.265625 45.40625 27.984375 
z
M 54.390625 6.78125 
Q 54.390625 -7.171875 48.1875 -13.984375 
Q 42 -20.796875 29.203125 -20.796875 
Q 24.46875 -20.796875 20.265625 -20.09375 
Q 16.0625 -19.390625 12.109375 -17.921875 
L 12.109375 -9.1875 
Q 16.0625 -11.328125 19.921875 -12.34375 
Q 23.78125 -13.375 27.78125 -13.375 
Q 36.625 -13.375 41.015625 -8.765625 
Q 45.40625 -4.15625 45.40625 5.171875 
L 45.40625 9.625 
Q 42.625 4.78125 38.28125 2.390625 
Q 33.9375 0 27.875 0 
Q 17.828125 0 11.671875 7.65625 
Q 5.515625 15.328125 5.515625 27.984375 
Q 5.515625 40.671875 11.671875 48.328125 
Q 17.828125 56 27.875 56 
Q 33.9375 56 38.28125 53.609375 
Q 42.625 51.21875 45.40625 46.390625 
L 45.40625 54.6875 
L 54.390625 54.6875 
z
" id="DejaVuSans-67"/>
      <path d="M 8.5 21.578125 
L 8.5 54.6875 
L 17.484375 54.6875 
L 17.484375 21.921875 
Q 17.484375 14.15625 20.5 10.265625 
Q 23.53125 6.390625 29.59375 6.390625 
Q 36.859375 6.390625 41.078125 11.03125 
Q 45.3125 15.671875 45.3125 23.6875 
L 45.3125 54.6875 
L 54.296875 54.6875 
L 54.296875 0 
L 45.3125 0 
L 45.3125 8.40625 
Q 42.046875 3.421875 37.71875 1 
Q 33.40625 -1.421875 27.6875 -1.421875 
Q 18.265625 -1.421875 13.375 4.4375 
Q 8.5 10.296875 8.5 21.578125 
z
M 31.109375 56 
z
" id="DejaVuSans-75"/>
     </defs>
     <g style="fill:#1a1a1a;" transform="translate(28.617187 247.098962)rotate(-90)scale(0.1 -0.1)">
      <use xlink:href="#DejaVuSans-4e"/>
      <use x="74.804688" xlink:href="#DejaVuSans-6f"/>
      <use x="135.986328" xlink:href="#DejaVuSans-72"/>
      <use x="177.083984" xlink:href="#DejaVuSans-6d"/>
      <use x="274.496094" xlink:href="#DejaVuSans-61"/>
      <use x="335.775391" xlink:href="#DejaVuSans-6c"/>
      <use x="363.558594" xlink:href="#DejaVuSans-69"/>
      <use x="391.341797" xlink:href="#DejaVuSans-7a"/>
      <use x="443.832031" xlink:href="#DejaVuSans-65"/>
      <use x="505.355469" xlink:href="#DejaVuSans-64"/>
      <use x="568.832031" xlink:href="#DejaVuSans-20"/>
      <use x="600.619141" xlink:href="#DejaVuSans-43"/>
      <use x="670.443359" xlink:href="#DejaVuSans-6f"/>
      <use x="731.625" xlink:href="#DejaVuSans-72"/>
      <use x="772.722656" xlink:href="#DejaVuSans-72"/>
      <use x="813.804688" xlink:href="#DejaVuSans-65"/>
      <use x="875.328125" xlink:href="#DejaVuSans-6c"/>
      <use x="903.111328" xlink:href="#DejaVuSans-61"/>
      <use x="964.390625" xlink:href="#DejaVuSans-74"/>
      <use x="1003.599609" xlink:href="#DejaVuSans-69"/>
      <use x="1031.382812" xlink:href="#DejaVuSans-6f"/>
      <use x="1092.564453" xlink:href="#DejaVuSans-6e"/>
      <use x="1155.943359" xlink:href="#DejaVuSans-20"/>
      <use x="1187.730469" xlink:href="#DejaVuSans-4d"/>
      <use x="1274.009766" xlink:href="#DejaVuSans-61"/>
      <use x="1335.289062" xlink:href="#DejaVuSans-67"/>
      <use x="1398.765625" xlink:href="#DejaVuSans-6e"/>
      <use x="1462.144531" xlink:href="#DejaVuSans-69"/>
      <use x="1489.927734" xlink:href="#DejaVuSans-74"/>
      <use x="1529.136719" xlink:href="#DejaVuSans-75"/>
      <use x="1592.515625" xlink:href="#DejaVuSans-64"/>
      <use x="1655.992188" xlink:href="#DejaVuSans-65"/>
     </g>
    </g>
   </g>
   <g id="line2d_27">
    <path clip-path="url(#p71b203e629)" d="M 73.832727 228.228231 
L 75.636364 227.964369 
L 77.44 227.761852 
L 81.047273 227.643008 
L 84.654545 227.957407 
L 90.065455 228.925483 
L 93.672727 229.483158 
L 97.28 229.676518 
L 100.887273 229.449461 
L 109.905455 228.357264 
L 113.512727 228.372814 
L 117.12 228.741808 
L 122.530909 229.479494 
L 126.138182 229.694382 
L 129.745455 229.525087 
L 140.567273 228.394538 
L 144.174545 228.592375 
L 153.192727 229.782035 
L 154.996364 229.835889 
L 156.8 229.765509 
L 160.407273 229.279926 
L 167.621818 227.946659 
L 169.425455 227.813138 
L 171.229091 227.827158 
L 173.032727 227.992402 
L 176.64 228.686022 
L 182.050909 229.88757 
L 183.854545 230.099459 
L 185.658182 230.145176 
L 187.461818 230.011396 
L 189.265455 229.709946 
L 192.872727 228.770028 
L 196.48 227.816796 
L 198.283636 227.512528 
L 200.087273 227.397208 
L 201.890909 227.498083 
L 203.694545 227.813205 
L 205.498182 228.310353 
L 212.712727 230.692459 
L 214.516364 230.968421 
L 216.32 230.989528 
L 218.123636 230.740714 
L 219.927273 230.243435 
L 223.534545 228.759148 
L 227.141818 227.271734 
L 228.945455 226.787807 
L 230.749091 226.58537 
L 232.552727 226.704269 
L 234.356364 227.141899 
L 236.16 227.851671 
L 243.374545 231.337805 
L 245.178182 231.759601 
L 246.981818 231.813003 
L 248.785455 231.473177 
L 250.589091 230.768219 
L 252.392727 229.777712 
L 257.803636 226.438948 
L 259.607273 225.713072 
L 261.410909 225.393514 
L 263.214545 225.542637 
L 265.018182 226.16116 
L 266.821818 227.185058 
L 270.429091 229.911165 
L 272.232727 231.252404 
L 274.036364 232.323137 
L 275.84 232.958888 
L 277.643636 233.046452 
L 279.447273 232.542148 
L 281.250909 231.481548 
L 283.054545 229.978922 
L 288.465455 224.838711 
L 290.269091 223.701337 
L 292.072727 223.192506 
L 293.876364 223.421398 
L 295.68 224.403097 
L 297.483636 226.050958 
L 299.287273 228.182261 
L 302.894545 232.809109 
L 304.698182 234.683508 
L 306.501818 235.879639 
L 308.305455 236.190747 
L 310.109091 235.516659 
L 311.912727 233.884202 
L 313.716364 231.451949 
L 319.127273 222.540786 
L 320.930909 220.361597 
L 322.734545 219.199707 
L 324.538182 219.291415 
L 326.341818 220.721205 
L 328.145455 223.398827 
L 329.949091 227.057576 
L 333.556364 235.518164 
L 335.36 239.199819 
L 337.163636 241.755164 
L 338.967273 242.714724 
L 340.770909 241.773758 
L 342.574545 238.845877 
L 344.378182 234.093501 
L 346.181818 227.929651 
L 349.789091 214.067607 
L 351.592727 208.041645 
L 353.396364 203.764382 
L 355.2 201.961081 
L 357.003636 203.128565 
L 358.807273 207.453355 
L 360.610909 214.758903 
L 362.414545 224.489955 
L 367.825455 257.828377 
L 369.629091 265.865347 
L 371.432727 270.0864 
L 373.236364 269.395957 
L 375.04 263.066822 
L 376.843636 250.839443 
L 378.647273 232.979115 
L 380.450909 210.283341 
L 382.254545 184.036569 
L 385.861818 127.849694 
L 387.665455 101.860034 
L 389.469091 79.874543 
L 391.272727 63.555745 
L 393.076364 54.147253 
L 394.88 52.3584 
L 396.683636 58.298302 
L 398.487273 71.466211 
L 398.487273 71.466211 
" style="fill:none;stroke:#4c72b0;stroke-dasharray:5.55,2.4;stroke-dashoffset:0;stroke-width:1.5;"/>
   </g>
   <g id="line2d_28">
    <path clip-path="url(#p71b203e629)" d="M 73.832727 211.262959 
L 75.636364 209.032494 
L 77.44 209.765531 
L 79.243636 213.667233 
L 81.047273 220.541462 
L 82.850909 229.777236 
L 86.458182 251.072226 
L 88.261818 260.37912 
L 90.065455 266.816441 
L 91.869091 269.035839 
L 93.672727 265.987208 
L 95.476364 257.054306 
L 97.28 242.151278 
L 99.083636 221.767814 
L 100.887273 196.956013 
L 106.298182 113.031128 
L 108.101818 88.717405 
L 109.905455 69.558993 
L 111.709091 57.099459 
L 113.512727 52.3584 
L 115.316364 55.732089 
L 117.12 66.954285 
L 118.923636 85.121395 
L 120.727273 108.779394 
L 124.334545 164.874965 
L 126.138182 193.079482 
L 127.941818 218.701774 
L 129.745455 240.101432 
L 131.549091 256.109532 
L 133.352727 266.114011 
L 135.156364 270.0864 
L 136.96 268.549072 
L 138.763636 262.488558 
L 140.567273 253.226111 
L 144.174545 231.103976 
L 145.978182 221.120311 
L 147.781818 213.397017 
L 149.585455 208.649269 
L 151.389091 207.173159 
L 153.192727 208.847865 
L 154.996364 213.184237 
L 156.8 219.411707 
L 160.407273 233.741533 
L 162.210909 239.958215 
L 164.014545 244.520547 
L 165.818182 246.965845 
L 167.621818 247.12938 
L 169.425455 245.145351 
L 171.229091 241.411221 
L 173.032727 236.521756 
L 176.64 226.114178 
L 178.443636 221.960909 
L 180.247273 219.212417 
L 182.050909 218.150196 
L 183.854545 218.822585 
L 185.658182 221.050669 
L 187.461818 224.462779 
L 192.872727 236.492566 
L 194.676364 239.314811 
L 196.48 240.884283 
L 198.283636 241.049867 
L 200.087273 239.851172 
L 201.890909 237.505228 
L 203.694545 234.370733 
L 207.301818 227.553559 
L 209.105455 224.783389 
L 210.909091 222.930419 
L 212.712727 222.205901 
L 214.516364 222.664031 
L 216.32 224.200597 
L 218.123636 226.572436 
L 223.534545 235.038353 
L 225.338182 237.041097 
L 227.141818 238.151427 
L 228.945455 238.250547 
L 230.749091 237.357865 
L 232.552727 235.624005 
L 234.356364 233.306714 
L 237.963636 228.255381 
L 239.767273 226.200865 
L 241.570909 224.831719 
L 243.374545 224.310787 
L 245.178182 224.683089 
L 246.981818 225.873217 
L 248.785455 227.698788 
L 254.196364 234.19633 
L 256 235.725022 
L 257.803636 236.56025 
L 259.607273 236.608632 
L 261.410909 235.884533 
L 263.214545 234.50536 
L 265.018182 232.673232 
L 268.625455 228.700479 
L 270.429091 227.096681 
L 272.232727 226.041692 
L 274.036364 225.664093 
L 275.84 225.99844 
L 277.643636 226.982854 
L 279.447273 228.469572 
L 284.858182 233.687861 
L 286.661818 234.89154 
L 288.465455 235.526215 
L 290.269091 235.518607 
L 292.072727 234.883415 
L 293.876364 233.719438 
L 295.68 232.194509 
L 299.287273 228.928621 
L 301.090909 227.628695 
L 302.894545 226.790584 
L 304.698182 226.517517 
L 306.501818 226.834528 
L 308.305455 227.686674 
L 310.109091 228.948067 
L 315.52 233.294283 
L 317.323636 234.274505 
L 319.127273 234.773211 
L 320.930909 234.733177 
L 322.734545 234.171157 
L 324.538182 233.174167 
L 328.145455 230.488185 
L 329.949091 229.171558 
L 331.752727 228.113175 
L 333.556364 227.450901 
L 335.36 227.265612 
L 337.163636 227.571107 
L 338.967273 228.313311 
L 340.770909 229.37872 
L 344.378182 231.832103 
L 346.181818 232.868708 
L 347.985455 233.574165 
L 349.789091 233.84918 
L 351.592727 233.654742 
L 353.396364 233.016892 
L 355.2 232.022611 
L 360.610909 228.383242 
L 362.414545 227.502943 
L 364.218182 227.014998 
L 366.021818 226.985488 
L 367.825455 227.419042 
L 369.629091 228.258713 
L 371.432727 229.394107 
L 375.04 231.939562 
L 376.843636 233.020646 
L 378.647273 233.78343 
L 380.450909 234.13522 
L 382.254545 234.038847 
L 384.058182 233.516911 
L 385.861818 232.647974 
L 391.272727 229.310141 
L 393.076364 228.459831 
L 394.88 227.950103 
L 396.683636 227.844528 
L 398.487273 228.151429 
L 398.487273 228.151429 
" style="fill:none;stroke:#c44e52;stroke-dasharray:5.55,2.4;stroke-dashoffset:0;stroke-width:1.5;"/>
   </g>
   <g id="line2d_29">
    <path clip-path="url(#p71b203e629)" d="M 73.832727 204.509504 
L 75.636364 201.419573 
L 77.44 201.450201 
L 79.243636 204.662309 
L 81.047273 210.77116 
L 82.850909 219.15955 
L 88.261818 248.059697 
L 90.065455 255.021609 
L 91.869091 258.786588 
L 93.672727 258.537791 
L 95.476364 253.793427 
L 97.28 244.467135 
L 99.083636 230.891892 
L 100.887273 213.804389 
L 104.494545 173.697988 
L 106.298182 153.520219 
L 108.101818 135.268809 
L 109.905455 120.340252 
L 111.709091 109.89342 
L 113.512727 104.748136 
L 115.316364 105.314525 
L 117.12 111.559647 
L 118.923636 123.014191 
L 120.727273 138.818147 
L 122.530909 157.800574 
L 127.941818 219.764611 
L 129.745455 237.481269 
L 131.549091 251.860878 
L 133.352727 262.230374 
L 135.156364 268.283992 
L 136.96 270.0864 
L 138.763636 268.041759 
L 140.567273 262.833121 
L 142.370909 255.339326 
L 147.781818 228.82736 
L 149.585455 221.506252 
L 151.389091 215.918891 
L 153.192727 212.276424 
L 154.996364 210.521759 
L 156.8 210.351512 
L 158.603636 211.260552 
L 160.407273 212.60353 
L 162.210909 213.666519 
L 164.014545 213.741411 
L 165.818182 212.195941 
L 167.621818 208.533195 
L 169.425455 202.435856 
L 171.229091 193.792307 
L 173.032727 182.703552 
L 174.836364 169.471807 
L 176.64 154.573136 
L 183.854545 91.500327 
L 185.658182 78.38414 
L 187.461818 67.562842 
L 189.265455 59.460523 
L 191.069091 54.352781 
L 192.872727 52.3584 
L 194.676364 53.440948 
L 196.48 57.41917 
L 198.283636 63.984702 
L 200.087273 72.72547 
L 201.890909 83.153122 
L 205.498182 106.914201 
L 209.105455 130.980577 
L 210.909091 141.947369 
L 212.712727 151.725236 
L 214.516364 160.082005 
L 216.32 166.898454 
L 218.123636 172.169971 
L 219.927273 176.000706 
L 221.730909 178.590318 
L 223.534545 180.213991 
L 225.338182 181.19695 
L 228.945455 182.614988 
L 230.749091 183.682645 
L 232.552727 185.318704 
L 234.356364 187.667272 
L 236.16 190.773356 
L 237.963636 194.579065 
L 239.767273 198.92914 
L 243.374545 208.24776 
L 245.178182 212.582634 
L 246.981818 216.251179 
L 248.785455 218.939427 
L 250.589091 220.384586 
L 252.392727 220.396124 
L 254.196364 218.869789 
L 256 215.793674 
L 257.803636 211.246378 
L 259.607273 205.388147 
L 261.410909 198.446596 
L 263.214545 190.699065 
L 270.429091 157.922928 
L 272.232727 150.823652 
L 274.036364 144.712593 
L 275.84 139.817727 
L 277.643636 136.336599 
L 279.447273 134.434022 
L 281.250909 134.23778 
L 283.054545 135.831596 
L 284.858182 139.245362 
L 286.661818 144.443488 
L 288.465455 151.313005 
L 290.269091 159.653664 
L 292.072727 169.172588 
L 299.287273 210.281392 
L 301.090909 218.691398 
L 302.894545 225.316875 
L 304.698182 229.762593 
L 306.501818 231.771246 
L 308.305455 231.255445 
L 310.109091 228.316253 
L 311.912727 223.244719 
L 313.716364 216.50452 
L 320.930909 185.728837 
L 322.734545 180.335533 
L 324.538182 176.806461 
L 326.341818 175.27889 
L 328.145455 175.650921 
L 329.949091 177.588011 
L 331.752727 180.556309 
L 333.556364 183.880451 
L 335.36 186.820535 
L 337.163636 188.660394 
L 338.967273 188.797587 
L 340.770909 186.824743 
L 342.574545 182.592354 
L 344.378182 176.244715 
L 346.181818 168.22338 
L 349.789091 150.191867 
L 351.592727 142.110875 
L 353.396364 136.012962 
L 355.2 132.801479 
L 357.003636 133.152176 
L 358.807273 137.420995 
L 360.610909 145.581847 
L 362.414545 157.202799 
L 364.218182 171.46512 
L 367.825455 203.113817 
L 369.629091 217.665657 
L 371.432727 229.462939 
L 373.236364 237.28179 
L 375.04 240.223798 
L 376.843636 237.819059 
L 378.647273 230.088885 
L 380.450909 217.56047 
L 382.254545 201.230749 
L 387.665455 144.406955 
L 389.469091 128.522879 
L 391.272727 116.776346 
L 393.076364 110.276452 
L 394.88 109.66379 
L 396.683636 115.050281 
L 398.487273 126.011359 
L 398.487273 126.011359 
" style="fill:none;stroke:#55a868;stroke-linecap:square;stroke-width:1.5;"/>
    <defs>
     <path d="M 0 -1.5 
L -0.336771 -0.463525 
L -1.426585 -0.463525 
L -0.544907 0.177051 
L -0.881678 1.213525 
L -0 0.572949 
L 0.881678 1.213525 
L 0.544907 0.177051 
L 1.426585 -0.463525 
L 0.336771 -0.463525 
z
" id="m43892ef8f3" style="stroke:#55a868;stroke-linejoin:bevel;"/>
    </defs>
    <g clip-path="url(#p71b203e629)">
     <use style="fill:#55a868;stroke:#55a868;stroke-linejoin:bevel;" x="73.832727" xlink:href="#m43892ef8f3" y="204.509504"/>
     <use style="fill:#55a868;stroke:#55a868;stroke-linejoin:bevel;" x="75.636364" xlink:href="#m43892ef8f3" y="201.419573"/>
     <use style="fill:#55a868;stroke:#55a868;stroke-linejoin:bevel;" x="77.44" xlink:href="#m43892ef8f3" y="201.450201"/>
     <use style="fill:#55a868;stroke:#55a868;stroke-linejoin:bevel;" x="79.243636" xlink:href="#m43892ef8f3" y="204.662309"/>
     <use style="fill:#55a868;stroke:#55a868;stroke-linejoin:bevel;" x="81.047273" xlink:href="#m43892ef8f3" y="210.77116"/>
     <use style="fill:#55a868;stroke:#55a868;stroke-linejoin:bevel;" x="82.850909" xlink:href="#m43892ef8f3" y="219.15955"/>
     <use style="fill:#55a868;stroke:#55a868;stroke-linejoin:bevel;" x="84.654545" xlink:href="#m43892ef8f3" y="228.925762"/>
     <use style="fill:#55a868;stroke:#55a868;stroke-linejoin:bevel;" x="86.458182" xlink:href="#m43892ef8f3" y="238.962494"/>
     <use style="fill:#55a868;stroke:#55a868;stroke-linejoin:bevel;" x="88.261818" xlink:href="#m43892ef8f3" y="248.059697"/>
     <use style="fill:#55a868;stroke:#55a868;stroke-linejoin:bevel;" x="90.065455" xlink:href="#m43892ef8f3" y="255.021609"/>
     <use style="fill:#55a868;stroke:#55a868;stroke-linejoin:bevel;" x="91.869091" xlink:href="#m43892ef8f3" y="258.786588"/>
     <use style="fill:#55a868;stroke:#55a868;stroke-linejoin:bevel;" x="93.672727" xlink:href="#m43892ef8f3" y="258.537791"/>
     <use style="fill:#55a868;stroke:#55a868;stroke-linejoin:bevel;" x="95.476364" xlink:href="#m43892ef8f3" y="253.793427"/>
     <use style="fill:#55a868;stroke:#55a868;stroke-linejoin:bevel;" x="97.28" xlink:href="#m43892ef8f3" y="244.467135"/>
     <use style="fill:#55a868;stroke:#55a868;stroke-linejoin:bevel;" x="99.083636" xlink:href="#m43892ef8f3" y="230.891892"/>
     <use style="fill:#55a868;stroke:#55a868;stroke-linejoin:bevel;" x="100.887273" xlink:href="#m43892ef8f3" y="213.804389"/>
     <use style="fill:#55a868;stroke:#55a868;stroke-linejoin:bevel;" x="102.690909" xlink:href="#m43892ef8f3" y="194.290706"/>
     <use style="fill:#55a868;stroke:#55a868;stroke-linejoin:bevel;" x="104.494545" xlink:href="#m43892ef8f3" y="173.697988"/>
     <use style="fill:#55a868;stroke:#55a868;stroke-linejoin:bevel;" x="106.298182" xlink:href="#m43892ef8f3" y="153.520219"/>
     <use style="fill:#55a868;stroke:#55a868;stroke-linejoin:bevel;" x="108.101818" xlink:href="#m43892ef8f3" y="135.268809"/>
     <use style="fill:#55a868;stroke:#55a868;stroke-linejoin:bevel;" x="109.905455" xlink:href="#m43892ef8f3" y="120.340252"/>
     <use style="fill:#55a868;stroke:#55a868;stroke-linejoin:bevel;" x="111.709091" xlink:href="#m43892ef8f3" y="109.89342"/>
     <use style="fill:#55a868;stroke:#55a868;stroke-linejoin:bevel;" x="113.512727" xlink:href="#m43892ef8f3" y="104.748136"/>
     <use style="fill:#55a868;stroke:#55a868;stroke-linejoin:bevel;" x="115.316364" xlink:href="#m43892ef8f3" y="105.314525"/>
     <use style="fill:#55a868;stroke:#55a868;stroke-linejoin:bevel;" x="117.12" xlink:href="#m43892ef8f3" y="111.559647"/>
     <use style="fill:#55a868;stroke:#55a868;stroke-linejoin:bevel;" x="118.923636" xlink:href="#m43892ef8f3" y="123.014191"/>
     <use style="fill:#55a868;stroke:#55a868;stroke-linejoin:bevel;" x="120.727273" xlink:href="#m43892ef8f3" y="138.818147"/>
     <use style="fill:#55a868;stroke:#55a868;stroke-linejoin:bevel;" x="122.530909" xlink:href="#m43892ef8f3" y="157.800574"/>
     <use style="fill:#55a868;stroke:#55a868;stroke-linejoin:bevel;" x="124.334545" xlink:href="#m43892ef8f3" y="178.585407"/>
     <use style="fill:#55a868;stroke:#55a868;stroke-linejoin:bevel;" x="126.138182" xlink:href="#m43892ef8f3" y="199.712845"/>
     <use style="fill:#55a868;stroke:#55a868;stroke-linejoin:bevel;" x="127.941818" xlink:href="#m43892ef8f3" y="219.764611"/>
     <use style="fill:#55a868;stroke:#55a868;stroke-linejoin:bevel;" x="129.745455" xlink:href="#m43892ef8f3" y="237.481269"/>
     <use style="fill:#55a868;stroke:#55a868;stroke-linejoin:bevel;" x="131.549091" xlink:href="#m43892ef8f3" y="251.860878"/>
     <use style="fill:#55a868;stroke:#55a868;stroke-linejoin:bevel;" x="133.352727" xlink:href="#m43892ef8f3" y="262.230374"/>
     <use style="fill:#55a868;stroke:#55a868;stroke-linejoin:bevel;" x="135.156364" xlink:href="#m43892ef8f3" y="268.283992"/>
     <use style="fill:#55a868;stroke:#55a868;stroke-linejoin:bevel;" x="136.96" xlink:href="#m43892ef8f3" y="270.0864"/>
     <use style="fill:#55a868;stroke:#55a868;stroke-linejoin:bevel;" x="138.763636" xlink:href="#m43892ef8f3" y="268.041759"/>
     <use style="fill:#55a868;stroke:#55a868;stroke-linejoin:bevel;" x="140.567273" xlink:href="#m43892ef8f3" y="262.833121"/>
     <use style="fill:#55a868;stroke:#55a868;stroke-linejoin:bevel;" x="142.370909" xlink:href="#m43892ef8f3" y="255.339326"/>
     <use style="fill:#55a868;stroke:#55a868;stroke-linejoin:bevel;" x="144.174545" xlink:href="#m43892ef8f3" y="246.538365"/>
     <use style="fill:#55a868;stroke:#55a868;stroke-linejoin:bevel;" x="145.978182" xlink:href="#m43892ef8f3" y="237.407142"/>
     <use style="fill:#55a868;stroke:#55a868;stroke-linejoin:bevel;" x="147.781818" xlink:href="#m43892ef8f3" y="228.82736"/>
     <use style="fill:#55a868;stroke:#55a868;stroke-linejoin:bevel;" x="149.585455" xlink:href="#m43892ef8f3" y="221.506252"/>
     <use style="fill:#55a868;stroke:#55a868;stroke-linejoin:bevel;" x="151.389091" xlink:href="#m43892ef8f3" y="215.918891"/>
     <use style="fill:#55a868;stroke:#55a868;stroke-linejoin:bevel;" x="153.192727" xlink:href="#m43892ef8f3" y="212.276424"/>
     <use style="fill:#55a868;stroke:#55a868;stroke-linejoin:bevel;" x="154.996364" xlink:href="#m43892ef8f3" y="210.521759"/>
     <use style="fill:#55a868;stroke:#55a868;stroke-linejoin:bevel;" x="156.8" xlink:href="#m43892ef8f3" y="210.351512"/>
     <use style="fill:#55a868;stroke:#55a868;stroke-linejoin:bevel;" x="158.603636" xlink:href="#m43892ef8f3" y="211.260552"/>
     <use style="fill:#55a868;stroke:#55a868;stroke-linejoin:bevel;" x="160.407273" xlink:href="#m43892ef8f3" y="212.60353"/>
     <use style="fill:#55a868;stroke:#55a868;stroke-linejoin:bevel;" x="162.210909" xlink:href="#m43892ef8f3" y="213.666519"/>
     <use style="fill:#55a868;stroke:#55a868;stroke-linejoin:bevel;" x="164.014545" xlink:href="#m43892ef8f3" y="213.741411"/>
     <use style="fill:#55a868;stroke:#55a868;stroke-linejoin:bevel;" x="165.818182" xlink:href="#m43892ef8f3" y="212.195941"/>
     <use style="fill:#55a868;stroke:#55a868;stroke-linejoin:bevel;" x="167.621818" xlink:href="#m43892ef8f3" y="208.533195"/>
     <use style="fill:#55a868;stroke:#55a868;stroke-linejoin:bevel;" x="169.425455" xlink:href="#m43892ef8f3" y="202.435856"/>
     <use style="fill:#55a868;stroke:#55a868;stroke-linejoin:bevel;" x="171.229091" xlink:href="#m43892ef8f3" y="193.792307"/>
     <use style="fill:#55a868;stroke:#55a868;stroke-linejoin:bevel;" x="173.032727" xlink:href="#m43892ef8f3" y="182.703552"/>
     <use style="fill:#55a868;stroke:#55a868;stroke-linejoin:bevel;" x="174.836364" xlink:href="#m43892ef8f3" y="169.471807"/>
     <use style="fill:#55a868;stroke:#55a868;stroke-linejoin:bevel;" x="176.64" xlink:href="#m43892ef8f3" y="154.573136"/>
     <use style="fill:#55a868;stroke:#55a868;stroke-linejoin:bevel;" x="178.443636" xlink:href="#m43892ef8f3" y="138.617728"/>
     <use style="fill:#55a868;stroke:#55a868;stroke-linejoin:bevel;" x="180.247273" xlink:href="#m43892ef8f3" y="122.302088"/>
     <use style="fill:#55a868;stroke:#55a868;stroke-linejoin:bevel;" x="182.050909" xlink:href="#m43892ef8f3" y="106.357678"/>
     <use style="fill:#55a868;stroke:#55a868;stroke-linejoin:bevel;" x="183.854545" xlink:href="#m43892ef8f3" y="91.500327"/>
     <use style="fill:#55a868;stroke:#55a868;stroke-linejoin:bevel;" x="185.658182" xlink:href="#m43892ef8f3" y="78.38414"/>
     <use style="fill:#55a868;stroke:#55a868;stroke-linejoin:bevel;" x="187.461818" xlink:href="#m43892ef8f3" y="67.562842"/>
     <use style="fill:#55a868;stroke:#55a868;stroke-linejoin:bevel;" x="189.265455" xlink:href="#m43892ef8f3" y="59.460523"/>
     <use style="fill:#55a868;stroke:#55a868;stroke-linejoin:bevel;" x="191.069091" xlink:href="#m43892ef8f3" y="54.352781"/>
     <use style="fill:#55a868;stroke:#55a868;stroke-linejoin:bevel;" x="192.872727" xlink:href="#m43892ef8f3" y="52.3584"/>
     <use style="fill:#55a868;stroke:#55a868;stroke-linejoin:bevel;" x="194.676364" xlink:href="#m43892ef8f3" y="53.440948"/>
     <use style="fill:#55a868;stroke:#55a868;stroke-linejoin:bevel;" x="196.48" xlink:href="#m43892ef8f3" y="57.41917"/>
     <use style="fill:#55a868;stroke:#55a868;stroke-linejoin:bevel;" x="198.283636" xlink:href="#m43892ef8f3" y="63.984702"/>
     <use style="fill:#55a868;stroke:#55a868;stroke-linejoin:bevel;" x="200.087273" xlink:href="#m43892ef8f3" y="72.72547"/>
     <use style="fill:#55a868;stroke:#55a868;stroke-linejoin:bevel;" x="201.890909" xlink:href="#m43892ef8f3" y="83.153122"/>
     <use style="fill:#55a868;stroke:#55a868;stroke-linejoin:bevel;" x="203.694545" xlink:href="#m43892ef8f3" y="94.732863"/>
     <use style="fill:#55a868;stroke:#55a868;stroke-linejoin:bevel;" x="205.498182" xlink:href="#m43892ef8f3" y="106.914201"/>
     <use style="fill:#55a868;stroke:#55a868;stroke-linejoin:bevel;" x="207.301818" xlink:href="#m43892ef8f3" y="119.161151"/>
     <use style="fill:#55a868;stroke:#55a868;stroke-linejoin:bevel;" x="209.105455" xlink:href="#m43892ef8f3" y="130.980577"/>
     <use style="fill:#55a868;stroke:#55a868;stroke-linejoin:bevel;" x="210.909091" xlink:href="#m43892ef8f3" y="141.947369"/>
     <use style="fill:#55a868;stroke:#55a868;stroke-linejoin:bevel;" x="212.712727" xlink:href="#m43892ef8f3" y="151.725236"/>
     <use style="fill:#55a868;stroke:#55a868;stroke-linejoin:bevel;" x="214.516364" xlink:href="#m43892ef8f3" y="160.082005"/>
     <use style="fill:#55a868;stroke:#55a868;stroke-linejoin:bevel;" x="216.32" xlink:href="#m43892ef8f3" y="166.898454"/>
     <use style="fill:#55a868;stroke:#55a868;stroke-linejoin:bevel;" x="218.123636" xlink:href="#m43892ef8f3" y="172.169971"/>
     <use style="fill:#55a868;stroke:#55a868;stroke-linejoin:bevel;" x="219.927273" xlink:href="#m43892ef8f3" y="176.000706"/>
     <use style="fill:#55a868;stroke:#55a868;stroke-linejoin:bevel;" x="221.730909" xlink:href="#m43892ef8f3" y="178.590318"/>
     <use style="fill:#55a868;stroke:#55a868;stroke-linejoin:bevel;" x="223.534545" xlink:href="#m43892ef8f3" y="180.213991"/>
     <use style="fill:#55a868;stroke:#55a868;stroke-linejoin:bevel;" x="225.338182" xlink:href="#m43892ef8f3" y="181.19695"/>
     <use style="fill:#55a868;stroke:#55a868;stroke-linejoin:bevel;" x="227.141818" xlink:href="#m43892ef8f3" y="181.885238"/>
     <use style="fill:#55a868;stroke:#55a868;stroke-linejoin:bevel;" x="228.945455" xlink:href="#m43892ef8f3" y="182.614988"/>
     <use style="fill:#55a868;stroke:#55a868;stroke-linejoin:bevel;" x="230.749091" xlink:href="#m43892ef8f3" y="183.682645"/>
     <use style="fill:#55a868;stroke:#55a868;stroke-linejoin:bevel;" x="232.552727" xlink:href="#m43892ef8f3" y="185.318704"/>
     <use style="fill:#55a868;stroke:#55a868;stroke-linejoin:bevel;" x="234.356364" xlink:href="#m43892ef8f3" y="187.667272"/>
     <use style="fill:#55a868;stroke:#55a868;stroke-linejoin:bevel;" x="236.16" xlink:href="#m43892ef8f3" y="190.773356"/>
     <use style="fill:#55a868;stroke:#55a868;stroke-linejoin:bevel;" x="237.963636" xlink:href="#m43892ef8f3" y="194.579065"/>
     <use style="fill:#55a868;stroke:#55a868;stroke-linejoin:bevel;" x="239.767273" xlink:href="#m43892ef8f3" y="198.92914"/>
     <use style="fill:#55a868;stroke:#55a868;stroke-linejoin:bevel;" x="241.570909" xlink:href="#m43892ef8f3" y="203.58526"/>
     <use style="fill:#55a868;stroke:#55a868;stroke-linejoin:bevel;" x="243.374545" xlink:href="#m43892ef8f3" y="208.24776"/>
     <use style="fill:#55a868;stroke:#55a868;stroke-linejoin:bevel;" x="245.178182" xlink:href="#m43892ef8f3" y="212.582634"/>
     <use style="fill:#55a868;stroke:#55a868;stroke-linejoin:bevel;" x="246.981818" xlink:href="#m43892ef8f3" y="216.251179"/>
     <use style="fill:#55a868;stroke:#55a868;stroke-linejoin:bevel;" x="248.785455" xlink:href="#m43892ef8f3" y="218.939427"/>
     <use style="fill:#55a868;stroke:#55a868;stroke-linejoin:bevel;" x="250.589091" xlink:href="#m43892ef8f3" y="220.384586"/>
     <use style="fill:#55a868;stroke:#55a868;stroke-linejoin:bevel;" x="252.392727" xlink:href="#m43892ef8f3" y="220.396124"/>
     <use style="fill:#55a868;stroke:#55a868;stroke-linejoin:bevel;" x="254.196364" xlink:href="#m43892ef8f3" y="218.869789"/>
     <use style="fill:#55a868;stroke:#55a868;stroke-linejoin:bevel;" x="256" xlink:href="#m43892ef8f3" y="215.793674"/>
     <use style="fill:#55a868;stroke:#55a868;stroke-linejoin:bevel;" x="257.803636" xlink:href="#m43892ef8f3" y="211.246378"/>
     <use style="fill:#55a868;stroke:#55a868;stroke-linejoin:bevel;" x="259.607273" xlink:href="#m43892ef8f3" y="205.388147"/>
     <use style="fill:#55a868;stroke:#55a868;stroke-linejoin:bevel;" x="261.410909" xlink:href="#m43892ef8f3" y="198.446596"/>
     <use style="fill:#55a868;stroke:#55a868;stroke-linejoin:bevel;" x="263.214545" xlink:href="#m43892ef8f3" y="190.699065"/>
     <use style="fill:#55a868;stroke:#55a868;stroke-linejoin:bevel;" x="265.018182" xlink:href="#m43892ef8f3" y="182.45384"/>
     <use style="fill:#55a868;stroke:#55a868;stroke-linejoin:bevel;" x="266.821818" xlink:href="#m43892ef8f3" y="174.032293"/>
     <use style="fill:#55a868;stroke:#55a868;stroke-linejoin:bevel;" x="268.625455" xlink:href="#m43892ef8f3" y="165.753585"/>
     <use style="fill:#55a868;stroke:#55a868;stroke-linejoin:bevel;" x="270.429091" xlink:href="#m43892ef8f3" y="157.922928"/>
     <use style="fill:#55a868;stroke:#55a868;stroke-linejoin:bevel;" x="272.232727" xlink:href="#m43892ef8f3" y="150.823652"/>
     <use style="fill:#55a868;stroke:#55a868;stroke-linejoin:bevel;" x="274.036364" xlink:href="#m43892ef8f3" y="144.712593"/>
     <use style="fill:#55a868;stroke:#55a868;stroke-linejoin:bevel;" x="275.84" xlink:href="#m43892ef8f3" y="139.817727"/>
     <use style="fill:#55a868;stroke:#55a868;stroke-linejoin:bevel;" x="277.643636" xlink:href="#m43892ef8f3" y="136.336599"/>
     <use style="fill:#55a868;stroke:#55a868;stroke-linejoin:bevel;" x="279.447273" xlink:href="#m43892ef8f3" y="134.434022"/>
     <use style="fill:#55a868;stroke:#55a868;stroke-linejoin:bevel;" x="281.250909" xlink:href="#m43892ef8f3" y="134.23778"/>
     <use style="fill:#55a868;stroke:#55a868;stroke-linejoin:bevel;" x="283.054545" xlink:href="#m43892ef8f3" y="135.831596"/>
     <use style="fill:#55a868;stroke:#55a868;stroke-linejoin:bevel;" x="284.858182" xlink:href="#m43892ef8f3" y="139.245362"/>
     <use style="fill:#55a868;stroke:#55a868;stroke-linejoin:bevel;" x="286.661818" xlink:href="#m43892ef8f3" y="144.443488"/>
     <use style="fill:#55a868;stroke:#55a868;stroke-linejoin:bevel;" x="288.465455" xlink:href="#m43892ef8f3" y="151.313005"/>
     <use style="fill:#55a868;stroke:#55a868;stroke-linejoin:bevel;" x="290.269091" xlink:href="#m43892ef8f3" y="159.653664"/>
     <use style="fill:#55a868;stroke:#55a868;stroke-linejoin:bevel;" x="292.072727" xlink:href="#m43892ef8f3" y="169.172588"/>
     <use style="fill:#55a868;stroke:#55a868;stroke-linejoin:bevel;" x="293.876364" xlink:href="#m43892ef8f3" y="179.485933"/>
     <use style="fill:#55a868;stroke:#55a868;stroke-linejoin:bevel;" x="295.68" xlink:href="#m43892ef8f3" y="190.129478"/>
     <use style="fill:#55a868;stroke:#55a868;stroke-linejoin:bevel;" x="297.483636" xlink:href="#m43892ef8f3" y="200.579167"/>
     <use style="fill:#55a868;stroke:#55a868;stroke-linejoin:bevel;" x="299.287273" xlink:href="#m43892ef8f3" y="210.281392"/>
     <use style="fill:#55a868;stroke:#55a868;stroke-linejoin:bevel;" x="301.090909" xlink:href="#m43892ef8f3" y="218.691398"/>
     <use style="fill:#55a868;stroke:#55a868;stroke-linejoin:bevel;" x="302.894545" xlink:href="#m43892ef8f3" y="225.316875"/>
     <use style="fill:#55a868;stroke:#55a868;stroke-linejoin:bevel;" x="304.698182" xlink:href="#m43892ef8f3" y="229.762593"/>
     <use style="fill:#55a868;stroke:#55a868;stroke-linejoin:bevel;" x="306.501818" xlink:href="#m43892ef8f3" y="231.771246"/>
     <use style="fill:#55a868;stroke:#55a868;stroke-linejoin:bevel;" x="308.305455" xlink:href="#m43892ef8f3" y="231.255445"/>
     <use style="fill:#55a868;stroke:#55a868;stroke-linejoin:bevel;" x="310.109091" xlink:href="#m43892ef8f3" y="228.316253"/>
     <use style="fill:#55a868;stroke:#55a868;stroke-linejoin:bevel;" x="311.912727" xlink:href="#m43892ef8f3" y="223.244719"/>
     <use style="fill:#55a868;stroke:#55a868;stroke-linejoin:bevel;" x="313.716364" xlink:href="#m43892ef8f3" y="216.50452"/>
     <use style="fill:#55a868;stroke:#55a868;stroke-linejoin:bevel;" x="315.52" xlink:href="#m43892ef8f3" y="208.695846"/>
     <use style="fill:#55a868;stroke:#55a868;stroke-linejoin:bevel;" x="317.323636" xlink:href="#m43892ef8f3" y="200.502897"/>
     <use style="fill:#55a868;stroke:#55a868;stroke-linejoin:bevel;" x="319.127273" xlink:href="#m43892ef8f3" y="192.629459"/>
     <use style="fill:#55a868;stroke:#55a868;stroke-linejoin:bevel;" x="320.930909" xlink:href="#m43892ef8f3" y="185.728837"/>
     <use style="fill:#55a868;stroke:#55a868;stroke-linejoin:bevel;" x="322.734545" xlink:href="#m43892ef8f3" y="180.335533"/>
     <use style="fill:#55a868;stroke:#55a868;stroke-linejoin:bevel;" x="324.538182" xlink:href="#m43892ef8f3" y="176.806461"/>
     <use style="fill:#55a868;stroke:#55a868;stroke-linejoin:bevel;" x="326.341818" xlink:href="#m43892ef8f3" y="175.27889"/>
     <use style="fill:#55a868;stroke:#55a868;stroke-linejoin:bevel;" x="328.145455" xlink:href="#m43892ef8f3" y="175.650921"/>
     <use style="fill:#55a868;stroke:#55a868;stroke-linejoin:bevel;" x="329.949091" xlink:href="#m43892ef8f3" y="177.588011"/>
     <use style="fill:#55a868;stroke:#55a868;stroke-linejoin:bevel;" x="331.752727" xlink:href="#m43892ef8f3" y="180.556309"/>
     <use style="fill:#55a868;stroke:#55a868;stroke-linejoin:bevel;" x="333.556364" xlink:href="#m43892ef8f3" y="183.880451"/>
     <use style="fill:#55a868;stroke:#55a868;stroke-linejoin:bevel;" x="335.36" xlink:href="#m43892ef8f3" y="186.820535"/>
     <use style="fill:#55a868;stroke:#55a868;stroke-linejoin:bevel;" x="337.163636" xlink:href="#m43892ef8f3" y="188.660394"/>
     <use style="fill:#55a868;stroke:#55a868;stroke-linejoin:bevel;" x="338.967273" xlink:href="#m43892ef8f3" y="188.797587"/>
     <use style="fill:#55a868;stroke:#55a868;stroke-linejoin:bevel;" x="340.770909" xlink:href="#m43892ef8f3" y="186.824743"/>
     <use style="fill:#55a868;stroke:#55a868;stroke-linejoin:bevel;" x="342.574545" xlink:href="#m43892ef8f3" y="182.592354"/>
     <use style="fill:#55a868;stroke:#55a868;stroke-linejoin:bevel;" x="344.378182" xlink:href="#m43892ef8f3" y="176.244715"/>
     <use style="fill:#55a868;stroke:#55a868;stroke-linejoin:bevel;" x="346.181818" xlink:href="#m43892ef8f3" y="168.22338"/>
     <use style="fill:#55a868;stroke:#55a868;stroke-linejoin:bevel;" x="347.985455" xlink:href="#m43892ef8f3" y="159.235945"/>
     <use style="fill:#55a868;stroke:#55a868;stroke-linejoin:bevel;" x="349.789091" xlink:href="#m43892ef8f3" y="150.191867"/>
     <use style="fill:#55a868;stroke:#55a868;stroke-linejoin:bevel;" x="351.592727" xlink:href="#m43892ef8f3" y="142.110875"/>
     <use style="fill:#55a868;stroke:#55a868;stroke-linejoin:bevel;" x="353.396364" xlink:href="#m43892ef8f3" y="136.012962"/>
     <use style="fill:#55a868;stroke:#55a868;stroke-linejoin:bevel;" x="355.2" xlink:href="#m43892ef8f3" y="132.801479"/>
     <use style="fill:#55a868;stroke:#55a868;stroke-linejoin:bevel;" x="357.003636" xlink:href="#m43892ef8f3" y="133.152176"/>
     <use style="fill:#55a868;stroke:#55a868;stroke-linejoin:bevel;" x="358.807273" xlink:href="#m43892ef8f3" y="137.420995"/>
     <use style="fill:#55a868;stroke:#55a868;stroke-linejoin:bevel;" x="360.610909" xlink:href="#m43892ef8f3" y="145.581847"/>
     <use style="fill:#55a868;stroke:#55a868;stroke-linejoin:bevel;" x="362.414545" xlink:href="#m43892ef8f3" y="157.202799"/>
     <use style="fill:#55a868;stroke:#55a868;stroke-linejoin:bevel;" x="364.218182" xlink:href="#m43892ef8f3" y="171.46512"/>
     <use style="fill:#55a868;stroke:#55a868;stroke-linejoin:bevel;" x="366.021818" xlink:href="#m43892ef8f3" y="187.2251"/>
     <use style="fill:#55a868;stroke:#55a868;stroke-linejoin:bevel;" x="367.825455" xlink:href="#m43892ef8f3" y="203.113817"/>
     <use style="fill:#55a868;stroke:#55a868;stroke-linejoin:bevel;" x="369.629091" xlink:href="#m43892ef8f3" y="217.665657"/>
     <use style="fill:#55a868;stroke:#55a868;stroke-linejoin:bevel;" x="371.432727" xlink:href="#m43892ef8f3" y="229.462939"/>
     <use style="fill:#55a868;stroke:#55a868;stroke-linejoin:bevel;" x="373.236364" xlink:href="#m43892ef8f3" y="237.28179"/>
     <use style="fill:#55a868;stroke:#55a868;stroke-linejoin:bevel;" x="375.04" xlink:href="#m43892ef8f3" y="240.223798"/>
     <use style="fill:#55a868;stroke:#55a868;stroke-linejoin:bevel;" x="376.843636" xlink:href="#m43892ef8f3" y="237.819059"/>
     <use style="fill:#55a868;stroke:#55a868;stroke-linejoin:bevel;" x="378.647273" xlink:href="#m43892ef8f3" y="230.088885"/>
     <use style="fill:#55a868;stroke:#55a868;stroke-linejoin:bevel;" x="380.450909" xlink:href="#m43892ef8f3" y="217.56047"/>
     <use style="fill:#55a868;stroke:#55a868;stroke-linejoin:bevel;" x="382.254545" xlink:href="#m43892ef8f3" y="201.230749"/>
     <use style="fill:#55a868;stroke:#55a868;stroke-linejoin:bevel;" x="384.058182" xlink:href="#m43892ef8f3" y="182.482054"/>
     <use style="fill:#55a868;stroke:#55a868;stroke-linejoin:bevel;" x="385.861818" xlink:href="#m43892ef8f3" y="162.957313"/>
     <use style="fill:#55a868;stroke:#55a868;stroke-linejoin:bevel;" x="387.665455" xlink:href="#m43892ef8f3" y="144.406955"/>
     <use style="fill:#55a868;stroke:#55a868;stroke-linejoin:bevel;" x="389.469091" xlink:href="#m43892ef8f3" y="128.522879"/>
     <use style="fill:#55a868;stroke:#55a868;stroke-linejoin:bevel;" x="391.272727" xlink:href="#m43892ef8f3" y="116.776346"/>
     <use style="fill:#55a868;stroke:#55a868;stroke-linejoin:bevel;" x="393.076364" xlink:href="#m43892ef8f3" y="110.276452"/>
     <use style="fill:#55a868;stroke:#55a868;stroke-linejoin:bevel;" x="394.88" xlink:href="#m43892ef8f3" y="109.66379"/>
     <use style="fill:#55a868;stroke:#55a868;stroke-linejoin:bevel;" x="396.683636" xlink:href="#m43892ef8f3" y="115.050281"/>
     <use style="fill:#55a868;stroke:#55a868;stroke-linejoin:bevel;" x="398.487273" xlink:href="#m43892ef8f3" y="126.011359"/>
    </g>
   </g>
   <g id="patch_3">
    <path d="M 57.6 280.9728 
L 57.6 41.472 
" style="fill:none;stroke:#000000;stroke-linecap:square;stroke-linejoin:miter;stroke-width:0.8;"/>
   </g>
   <g id="patch_4">
    <path d="M 414.72 280.9728 
L 414.72 41.472 
" style="fill:none;stroke:#000000;stroke-linecap:square;stroke-linejoin:miter;stroke-width:0.8;"/>
   </g>
   <g id="patch_5">
    <path d="M 57.6 280.9728 
L 414.72 280.9728 
" style="fill:none;stroke:#000000;stroke-linecap:square;stroke-linejoin:miter;stroke-width:0.8;"/>
   </g>
   <g id="patch_6">
    <path d="M 57.6 41.472 
L 414.72 41.472 
" style="fill:none;stroke:#000000;stroke-linecap:square;stroke-linejoin:miter;stroke-width:0.8;"/>
   </g>
   <g id="legend_1">
    <g id="patch_7">
     <path d="M 121.385 341.576045 
L 354.935 341.576045 
Q 356.935 341.576045 356.935 339.576045 
L 356.935 325.89792 
Q 356.935 323.89792 354.935 323.89792 
L 121.385 323.89792 
Q 119.385 323.89792 119.385 325.89792 
L 119.385 339.576045 
Q 119.385 341.576045 121.385 341.576045 
z
" style="fill:#4c4c4c;opacity:0.5;stroke:#4c4c4c;stroke-linejoin:miter;"/>
    </g>
    <g id="patch_8">
     <path d="M 119.385 339.576045 
L 352.935 339.576045 
Q 354.935 339.576045 354.935 337.576045 
L 354.935 323.89792 
Q 354.935 321.89792 352.935 321.89792 
L 119.385 321.89792 
Q 117.385 321.89792 117.385 323.89792 
L 117.385 337.576045 
Q 117.385 339.576045 119.385 339.576045 
z
" style="fill:#ffffff;opacity:0.8;stroke:#cccccc;stroke-linejoin:miter;"/>
    </g>
    <g id="line2d_30">
     <path d="M 121.385 329.996357 
L 141.385 329.996357 
" style="fill:none;stroke:#4c72b0;stroke-dasharray:5.55,2.4;stroke-dashoffset:0;stroke-width:1.5;"/>
    </g>
    <g id="line2d_31"/>
    <g id="text_16">
     <!-- s1 direct -->
     <defs>
      <path d="M 48.78125 52.59375 
L 48.78125 44.1875 
Q 44.96875 46.296875 41.140625 47.34375 
Q 37.3125 48.390625 33.40625 48.390625 
Q 24.65625 48.390625 19.8125 42.84375 
Q 14.984375 37.3125 14.984375 27.296875 
Q 14.984375 17.28125 19.8125 11.734375 
Q 24.65625 6.203125 33.40625 6.203125 
Q 37.3125 6.203125 41.140625 7.25 
Q 44.96875 8.296875 48.78125 10.40625 
L 48.78125 2.09375 
Q 45.015625 0.34375 40.984375 -0.53125 
Q 36.96875 -1.421875 32.421875 -1.421875 
Q 20.0625 -1.421875 12.78125 6.34375 
Q 5.515625 14.109375 5.515625 27.296875 
Q 5.515625 40.671875 12.859375 48.328125 
Q 20.21875 56 33.015625 56 
Q 37.15625 56 41.109375 55.140625 
Q 45.0625 54.296875 48.78125 52.59375 
z
" id="DejaVuSans-63"/>
     </defs>
     <g style="fill:#1a1a1a;" transform="translate(149.385 333.496357)scale(0.1 -0.1)">
      <use xlink:href="#DejaVuSans-73"/>
      <use x="52.099609" xlink:href="#DejaVuSans-31"/>
      <use x="115.722656" xlink:href="#DejaVuSans-20"/>
      <use x="147.509766" xlink:href="#DejaVuSans-64"/>
      <use x="210.986328" xlink:href="#DejaVuSans-69"/>
      <use x="238.769531" xlink:href="#DejaVuSans-72"/>
      <use x="279.851562" xlink:href="#DejaVuSans-65"/>
      <use x="341.375" xlink:href="#DejaVuSans-63"/>
      <use x="396.355469" xlink:href="#DejaVuSans-74"/>
     </g>
    </g>
    <g id="line2d_32">
     <path d="M 212.94125 329.996357 
L 232.94125 329.996357 
" style="fill:none;stroke:#c44e52;stroke-dasharray:5.55,2.4;stroke-dashoffset:0;stroke-width:1.5;"/>
    </g>
    <g id="line2d_33"/>
    <g id="text_17">
     <!-- s2 direct -->
     <g style="fill:#1a1a1a;" transform="translate(240.94125 333.496357)scale(0.1 -0.1)">
      <use xlink:href="#DejaVuSans-73"/>
      <use x="52.099609" xlink:href="#DejaVuSans-32"/>
      <use x="115.722656" xlink:href="#DejaVuSans-20"/>
      <use x="147.509766" xlink:href="#DejaVuSans-64"/>
      <use x="210.986328" xlink:href="#DejaVuSans-69"/>
      <use x="238.769531" xlink:href="#DejaVuSans-72"/>
      <use x="279.851562" xlink:href="#DejaVuSans-65"/>
      <use x="341.375" xlink:href="#DejaVuSans-63"/>
      <use x="396.355469" xlink:href="#DejaVuSans-74"/>
     </g>
    </g>
    <g id="line2d_34">
     <path d="M 304.4975 329.996357 
L 324.4975 329.996357 
" style="fill:none;stroke:#55a868;stroke-linecap:square;stroke-width:1.5;"/>
    </g>
    <g id="line2d_35">
     <g>
      <use style="fill:#55a868;stroke:#55a868;stroke-linejoin:bevel;" x="314.4975" xlink:href="#m43892ef8f3" y="329.996357"/>
     </g>
    </g>
    <g id="text_18">
     <!-- mix -->
     <defs>
      <path d="M 54.890625 54.6875 
L 35.109375 28.078125 
L 55.90625 0 
L 45.3125 0 
L 29.390625 21.484375 
L 13.484375 0 
L 2.875 0 
L 24.125 28.609375 
L 4.6875 54.6875 
L 15.28125 54.6875 
L 29.78125 35.203125 
L 44.28125 54.6875 
z
" id="DejaVuSans-78"/>
     </defs>
     <g style="fill:#1a1a1a;" transform="translate(332.4975 333.496357)scale(0.1 -0.1)">
      <use xlink:href="#DejaVuSans-6d"/>
      <use x="97.412109" xlink:href="#DejaVuSans-69"/>
      <use x="125.195312" xlink:href="#DejaVuSans-78"/>
     </g>
    </g>
   </g>
  </g>
 </g>
 <defs>
  <clipPath id="p71b203e629">
   <rect height="239.5008" width="357.12" x="57.6" y="41.472"/>
  </clipPath>
 </defs>
</svg>
