<?xml version="1.0" encoding="utf-8" standalone="no"?>
<!DOCTYPE svg PUBLIC "-//W3C//DTD SVG 1.1//EN"
  "http://www.w3.org/Graphics/SVG/1.1/DTD/svg11.dtd">
<!-- Created with matplotlib (http://matplotlib.org/) -->
<svg height="345pt" version="1.1" viewBox="0 0 460 345" width="460pt" xmlns="http://www.w3.org/2000/svg" xmlns:xlink="http://www.w3.org/1999/xlink">
 <defs>
  <style type="text/css">
*{stroke-linecap:butt;stroke-linejoin:round;}
  </style>
 </defs>
 <g id="figure_1">
  <g id="patch_1">
   <path d="M 0 345.6 
L 460.8 345.6 
L 460.8 0 
L 0 0 
z
" style="fill:#ffffff;"/>
  </g>
  <g id="axes_1">
   <g id="patch_2">
    <path d="M 57.6 280.9728 
L 414.72 280.9728 
L 414.72 41.472 
L 57.6 41.472 
z
" style="fill:#ffffff;"/>
   </g>
   <g id="matplotlib.axis_1">
    <g id="xtick_1">
     <g id="line2d_1">
      <path clip-path="url(#p5470ecc24d)" d="M 89.634497 280.9728 
L 89.634497 41.472 
" style="fill:none;stroke:#b0b0b0;stroke-linecap:square;stroke-width:0.8;"/>
     </g>
     <g id="line2d_2">
      <defs>
       <path d="M 0 0 
L 0 3.5 
" id="m19b9cf998d" style="stroke:#1a1a1a;stroke-width:0.8;"/>
      </defs>
      <g>
       <use style="fill:#1a1a1a;stroke:#1a1a1a;stroke-width:0.8;" x="89.634497" xlink:href="#m19b9cf998d" y="280.9728"/>
      </g>
     </g>
     <g id="text_1">
      <!-- −0.0006 -->
      <defs>
       <path d="M 10.59375 35.5 
L 73.1875 35.5 
L 73.1875 27.203125 
L 10.59375 27.203125 
z
" id="DejaVuSans-2212"/>
       <path d="M 31.78125 66.40625 
Q 24.171875 66.40625 20.328125 58.90625 
Q 16.5 51.421875 16.5 36.375 
Q 16.5 21.390625 20.328125 13.890625 
Q 24.171875 6.390625 31.78125 6.390625 
Q 39.453125 6.390625 43.28125 13.890625 
Q 47.125 21.390625 47.125 36.375 
Q 47.125 51.421875 43.28125 58.90625 
Q 39.453125 66.40625 31.78125 66.40625 
z
M 31.78125 74.21875 
Q 44.046875 74.21875 50.515625 64.515625 
Q 56.984375 54.828125 56.984375 36.375 
Q 56.984375 17.96875 50.515625 8.265625 
Q 44.046875 -1.421875 31.78125 -1.421875 
Q 19.53125 -1.421875 13.0625 8.265625 
Q 6.59375 17.96875 6.59375 36.375 
Q 6.59375 54.828125 13.0625 64.515625 
Q 19.53125 74.21875 31.78125 74.21875 
z
" id="DejaVuSans-30"/>
       <path d="M 10.6875 12.40625 
L 21 12.40625 
L 21 0 
L 10.6875 0 
z
" id="DejaVuSans-2e"/>
       <path d="M 33.015625 40.375 
Q 26.375 40.375 22.484375 35.828125 
Q 18.609375 31.296875 18.609375 23.390625 
Q 18.609375 15.53125 22.484375 10.953125 
Q 26.375 6.390625 33.015625 6.390625 
Q 39.65625 6.390625 43.53125 10.953125 
Q 47.40625 15.53125 47.40625 23.390625 
Q 47.40625 31.296875 43.53125 35.828125 
Q 39.65625 40.375 33.015625 40.375 
z
M 52.59375 71.296875 
L 52.59375 62.3125 
Q 48.875 64.0625 45.09375 64.984375 
Q 41.3125 65.921875 37.59375 65.921875 
Q 27.828125 65.921875 22.671875 59.328125 
Q 17.53125 52.734375 16.796875 39.40625 
Q 19.671875 43.65625 24.015625 45.921875 
Q 28.375 48.1875 33.59375 48.1875 
Q 44.578125 48.1875 50.953125 41.515625 
Q 57.328125 34.859375 57.328125 23.390625 
Q 57.328125 12.15625 50.6875 5.359375 
Q 44.046875 -1.421875 33.015625 -1.421875 
Q 20.359375 -1.421875 13.671875 8.265625 
Q 6.984375 17.96875 6.984375 36.375 
Q 6.984375 53.65625 15.1875 63.9375 
Q 23.390625 74.21875 37.203125 74.21875 
Q 40.921875 74.21875 44.703125 73.484375 
Q 48.484375 72.75 52.59375 71.296875 
z
" id="DejaVuSans-36"/>
      </defs>
      <g style="fill:#1a1a1a;" transform="translate(67.949341 295.571237)scale(0.1 -0.1)">
       <use xlink:href="#DejaVuSans-2212"/>
       <use x="83.789062" xlink:href="#DejaVuSans-30"/>
       <use x="147.412109" xlink:href="#DejaVuSans-2e"/>
       <use x="179.199219" xlink:href="#DejaVuSans-30"/>
       <use x="242.822266" xlink:href="#DejaVuSans-30"/>
       <use x="306.445312" xlink:href="#DejaVuSans-30"/>
       <use x="370.068359" xlink:href="#DejaVuSans-36"/>
      </g>
     </g>
    </g>
    <g id="xtick_2">
     <g id="line2d_3">
      <path clip-path="url(#p5470ecc24d)" d="M 138.476331 280.9728 
L 138.476331 41.472 
" style="fill:none;stroke:#b0b0b0;stroke-linecap:square;stroke-width:0.8;"/>
     </g>
     <g id="line2d_4">
      <g>
       <use style="fill:#1a1a1a;stroke:#1a1a1a;stroke-width:0.8;" x="138.476331" xlink:href="#m19b9cf998d" y="280.9728"/>
      </g>
     </g>
     <g id="text_2">
      <!-- −0.0004 -->
      <defs>
       <path d="M 37.796875 64.3125 
L 12.890625 25.390625 
L 37.796875 25.390625 
z
M 35.203125 72.90625 
L 47.609375 72.90625 
L 47.609375 25.390625 
L 58.015625 25.390625 
L 58.015625 17.1875 
L 47.609375 17.1875 
L 47.609375 0 
L 37.796875 0 
L 37.796875 17.1875 
L 4.890625 17.1875 
L 4.890625 26.703125 
z
" id="DejaVuSans-34"/>
      </defs>
      <g style="fill:#1a1a1a;" transform="translate(116.791175 295.571237)scale(0.1 -0.1)">
       <use xlink:href="#DejaVuSans-2212"/>
       <use x="83.789062" xlink:href="#DejaVuSans-30"/>
       <use x="147.412109" xlink:href="#DejaVuSans-2e"/>
       <use x="179.199219" xlink:href="#DejaVuSans-30"/>
       <use x="242.822266" xlink:href="#DejaVuSans-30"/>
       <use x="306.445312" xlink:href="#DejaVuSans-30"/>
       <use x="370.068359" xlink:href="#DejaVuSans-34"/>
      </g>
     </g>
    </g>
    <g id="xtick_3">
     <g id="line2d_5">
      <path clip-path="url(#p5470ecc24d)" d="M 187.318166 280.9728 
L 187.318166 41.472 
" style="fill:none;stroke:#b0b0b0;stroke-linecap:square;stroke-width:0.8;"/>
     </g>
     <g id="line2d_6">
      <g>
       <use style="fill:#1a1a1a;stroke:#1a1a1a;stroke-width:0.8;" x="187.318166" xlink:href="#m19b9cf998d" y="280.9728"/>
      </g>
     </g>
     <g id="text_3">
      <!-- −0.0002 -->
      <defs>
       <path d="M 19.1875 8.296875 
L 53.609375 8.296875 
L 53.609375 0 
L 7.328125 0 
L 7.328125 8.296875 
Q 12.9375 14.109375 22.625 23.890625 
Q 32.328125 33.6875 34.8125 36.53125 
Q 39.546875 41.84375 41.421875 45.53125 
Q 43.3125 49.21875 43.3125 52.78125 
Q 43.3125 58.59375 39.234375 62.25 
Q 35.15625 65.921875 28.609375 65.921875 
Q 23.96875 65.921875 18.8125 64.3125 
Q 13.671875 62.703125 7.8125 59.421875 
L 7.8125 69.390625 
Q 13.765625 71.78125 18.9375 73 
Q 24.125 74.21875 28.421875 74.21875 
Q 39.75 74.21875 46.484375 68.546875 
Q 53.21875 62.890625 53.21875 53.421875 
Q 53.21875 48.921875 51.53125 44.890625 
Q 49.859375 40.875 45.40625 35.40625 
Q 44.1875 33.984375 37.640625 27.21875 
Q 31.109375 20.453125 19.1875 8.296875 
z
" id="DejaVuSans-32"/>
      </defs>
      <g style="fill:#1a1a1a;" transform="translate(165.633009 295.571237)scale(0.1 -0.1)">
       <use xlink:href="#DejaVuSans-2212"/>
       <use x="83.789062" xlink:href="#DejaVuSans-30"/>
       <use x="147.412109" xlink:href="#DejaVuSans-2e"/>
       <use x="179.199219" xlink:href="#DejaVuSans-30"/>
       <use x="242.822266" xlink:href="#DejaVuSans-30"/>
       <use x="306.445312" xlink:href="#DejaVuSans-30"/>
       <use x="370.068359" xlink:href="#DejaVuSans-32"/>
      </g>
     </g>
    </g>
    <g id="xtick_4">
     <g id="line2d_7">
      <path clip-path="url(#p5470ecc24d)" d="M 236.16 280.9728 
L 236.16 41.472 
" style="fill:none;stroke:#b0b0b0;stroke-linecap:square;stroke-width:0.8;"/>
     </g>
     <g id="line2d_8">
      <g>
       <use style="fill:#1a1a1a;stroke:#1a1a1a;stroke-width:0.8;" x="236.16" xlink:href="#m19b9cf998d" y="280.9728"/>
      </g>
     </g>
     <g id="text_4">
      <!-- 0.0000 -->
      <g style="fill:#1a1a1a;" transform="translate(218.664687 295.571237)scale(0.1 -0.1)">
       <use xlink:href="#DejaVuSans-30"/>
       <use x="63.623047" xlink:href="#DejaVuSans-2e"/>
       <use x="95.410156" xlink:href="#DejaVuSans-30"/>
       <use x="159.033203" xlink:href="#DejaVuSans-30"/>
       <use x="222.65625" xlink:href="#DejaVuSans-30"/>
       <use x="286.279297" xlink:href="#DejaVuSans-30"/>
      </g>
     </g>
    </g>
    <g id="xtick_5">
     <g id="line2d_9">
      <path clip-path="url(#p5470ecc24d)" d="M 285.001834 280.9728 
L 285.001834 41.472 
" style="fill:none;stroke:#b0b0b0;stroke-linecap:square;stroke-width:0.8;"/>
     </g>
     <g id="line2d_10">
      <g>
       <use style="fill:#1a1a1a;stroke:#1a1a1a;stroke-width:0.8;" x="285.001834" xlink:href="#m19b9cf998d" y="280.9728"/>
      </g>
     </g>
     <g id="text_5">
      <!-- 0.0002 -->
      <g style="fill:#1a1a1a;" transform="translate(267.506522 295.571237)scale(0.1 -0.1)">
       <use xlink:href="#DejaVuSans-30"/>
       <use x="63.623047" xlink:href="#DejaVuSans-2e"/>
       <use x="95.410156" xlink:href="#DejaVuSans-30"/>
       <use x="159.033203" xlink:href="#DejaVuSans-30"/>
       <use x="222.65625" xlink:href="#DejaVuSans-30"/>
       <use x="286.279297" xlink:href="#DejaVuSans-32"/>
      </g>
     </g>
    </g>
    <g id="xtick_6">
     <g id="line2d_11">
      <path clip-path="url(#p5470ecc24d)" d="M 333.843669 280.9728 
L 333.843669 41.472 
" style="fill:none;stroke:#b0b0b0;stroke-linecap:square;stroke-width:0.8;"/>
     </g>
     <g id="line2d_12">
      <g>
       <use style="fill:#1a1a1a;stroke:#1a1a1a;stroke-width:0.8;" x="333.843669" xlink:href="#m19b9cf998d" y="280.9728"/>
      </g>
     </g>
     <g id="text_6">
      <!-- 0.0004 -->
      <g style="fill:#1a1a1a;" transform="translate(316.348356 295.571237)scale(0.1 -0.1)">
       <use xlink:href="#DejaVuSans-30"/>
       <use x="63.623047" xlink:href="#DejaVuSans-2e"/>
       <use x="95.410156" xlink:href="#DejaVuSans-30"/>
       <use x="159.033203" xlink:href="#DejaVuSans-30"/>
       <use x="222.65625" xlink:href="#DejaVuSans-30"/>
       <use x="286.279297" xlink:href="#DejaVuSans-34"/>
      </g>
     </g>
    </g>
    <g id="xtick_7">
     <g id="line2d_13">
      <path clip-path="url(#p5470ecc24d)" d="M 382.685503 280.9728 
L 382.685503 41.472 
" style="fill:none;stroke:#b0b0b0;stroke-linecap:square;stroke-width:0.8;"/>
     </g>
     <g id="line2d_14">
      <g>
       <use style="fill:#1a1a1a;stroke:#1a1a1a;stroke-width:0.8;" x="382.685503" xlink:href="#m19b9cf998d" y="280.9728"/>
      </g>
     </g>
     <g id="text_7">
      <!-- 0.0006 -->
      <g style="fill:#1a1a1a;" transform="translate(365.19019 295.571237)scale(0.1 -0.1)">
       <use xlink:href="#DejaVuSans-30"/>
       <use x="63.623047" xlink:href="#DejaVuSans-2e"/>
       <use x="95.410156" xlink:href="#DejaVuSans-30"/>
       <use x="159.033203" xlink:href="#DejaVuSans-30"/>
       <use x="222.65625" xlink:href="#DejaVuSans-30"/>
       <use x="286.279297" xlink:href="#DejaVuSans-36"/>
      </g>
     </g>
    </g>
    <g id="text_8">
     <!-- TDOA(s) -->
     <defs>
      <path d="M -0.296875 72.90625 
L 61.375 72.90625 
L 61.375 64.59375 
L 35.5 64.59375 
L 35.5 0 
L 25.59375 0 
L 25.59375 64.59375 
L -0.296875 64.59375 
z
" id="DejaVuSans-54"/>
      <path d="M 19.671875 64.796875 
L 19.671875 8.109375 
L 31.59375 8.109375 
Q 46.6875 8.109375 53.6875 14.9375 
Q 60.6875 21.78125 60.6875 36.53125 
Q 60.6875 51.171875 53.6875 57.984375 
Q 46.6875 64.796875 31.59375 64.796875 
z
M 9.8125 72.90625 
L 30.078125 72.90625 
Q 51.265625 72.90625 61.171875 64.09375 
Q 71.09375 55.28125 71.09375 36.53125 
Q 71.09375 17.671875 61.125 8.828125 
Q 51.171875 0 30.078125 0 
L 9.8125 0 
z
" id="DejaVuSans-44"/>
      <path d="M 39.40625 66.21875 
Q 28.65625 66.21875 22.328125 58.203125 
Q 16.015625 50.203125 16.015625 36.375 
Q 16.015625 22.609375 22.328125 14.59375 
Q 28.65625 6.59375 39.40625 6.59375 
Q 50.140625 6.59375 56.421875 14.59375 
Q 62.703125 22.609375 62.703125 36.375 
Q 62.703125 50.203125 56.421875 58.203125 
Q 50.140625 66.21875 39.40625 66.21875 
z
M 39.40625 74.21875 
Q 54.734375 74.21875 63.90625 63.9375 
Q 73.09375 53.65625 73.09375 36.375 
Q 73.09375 19.140625 63.90625 8.859375 
Q 54.734375 -1.421875 39.40625 -1.421875 
Q 24.03125 -1.421875 14.8125 8.828125 
Q 5.609375 19.09375 5.609375 36.375 
Q 5.609375 53.65625 14.8125 63.9375 
Q 24.03125 74.21875 39.40625 74.21875 
z
" id="DejaVuSans-4f"/>
      <path d="M 34.1875 63.1875 
L 20.796875 26.90625 
L 47.609375 26.90625 
z
M 28.609375 72.90625 
L 39.796875 72.90625 
L 67.578125 0 
L 57.328125 0 
L 50.6875 18.703125 
L 17.828125 18.703125 
L 11.1875 0 
L 0.78125 0 
z
" id="DejaVuSans-41"/>
      <path d="M 31 75.875 
Q 24.46875 64.65625 21.28125 53.65625 
Q 18.109375 42.671875 18.109375 31.390625 
Q 18.109375 20.125 21.3125 9.0625 
Q 24.515625 -2 31 -13.1875 
L 23.1875 -13.1875 
Q 15.875 -1.703125 12.234375 9.375 
Q 8.59375 20.453125 8.59375 31.390625 
Q 8.59375 42.28125 12.203125 53.3125 
Q 15.828125 64.359375 23.1875 75.875 
z
" id="DejaVuSans-28"/>
      <path d="M 44.28125 53.078125 
L 44.28125 44.578125 
Q 40.484375 46.53125 36.375 47.5 
Q 32.28125 48.484375 27.875 48.484375 
Q 21.1875 48.484375 17.84375 46.4375 
Q 14.5 44.390625 14.5 40.28125 
Q 14.5 37.15625 16.890625 35.375 
Q 19.28125 33.59375 26.515625 31.984375 
L 29.59375 31.296875 
Q 39.15625 29.25 43.1875 25.515625 
Q 47.21875 21.78125 47.21875 15.09375 
Q 47.21875 7.46875 41.1875 3.015625 
Q 35.15625 -1.421875 24.609375 -1.421875 
Q 20.21875 -1.421875 15.453125 -0.5625 
Q 10.6875 0.296875 5.421875 2 
L 5.421875 11.28125 
Q 10.40625 8.6875 15.234375 7.390625 
Q 20.0625 6.109375 24.8125 6.109375 
Q 31.15625 6.109375 34.5625 8.28125 
Q 37.984375 10.453125 37.984375 14.40625 
Q 37.984375 18.0625 35.515625 20.015625 
Q 33.0625 21.96875 24.703125 23.78125 
L 21.578125 24.515625 
Q 13.234375 26.265625 9.515625 29.90625 
Q 5.8125 33.546875 5.8125 39.890625 
Q 5.8125 47.609375 11.28125 51.796875 
Q 16.75 56 26.8125 56 
Q 31.78125 56 36.171875 55.265625 
Q 40.578125 54.546875 44.28125 53.078125 
z
" id="DejaVuSans-73"/>
      <path d="M 8.015625 75.875 
L 15.828125 75.875 
Q 23.140625 64.359375 26.78125 53.3125 
Q 30.421875 42.28125 30.421875 31.390625 
Q 30.421875 20.453125 26.78125 9.375 
Q 23.140625 -1.703125 15.828125 -13.1875 
L 8.015625 -13.1875 
Q 14.5 -2 17.703125 9.0625 
Q 20.90625 20.125 20.90625 31.390625 
Q 20.90625 42.671875 17.703125 53.65625 
Q 14.5 64.65625 8.015625 75.875 
z
" id="DejaVuSans-29"/>
     </defs>
     <g style="fill:#1a1a1a;" transform="translate(215.394375 309.249362)scale(0.1 -0.1)">
      <use xlink:href="#DejaVuSans-54"/>
      <use x="61.083984" xlink:href="#DejaVuSans-44"/>
      <use x="138.085938" xlink:href="#DejaVuSans-4f"/>
      <use x="216.78125" xlink:href="#DejaVuSans-41"/>
      <use x="285.189453" xlink:href="#DejaVuSans-28"/>
      <use x="324.203125" xlink:href="#DejaVuSans-73"/>
      <use x="376.302734" xlink:href="#DejaVuSans-29"/>
     </g>
    </g>
   </g>
   <g id="matplotlib.axis_2">
    <g id="ytick_1">
     <g id="line2d_15">
      <path clip-path="url(#p5470ecc24d)" d="M 57.6 270.0864 
L 414.72 270.0864 
" style="fill:none;stroke:#b0b0b0;stroke-linecap:square;stroke-width:0.8;"/>
     </g>
     <g id="line2d_16">
      <defs>
       <path d="M 0 0 
L -3.5 0 
" id="me46fda3024" style="stroke:#1a1a1a;stroke-width:0.8;"/>
      </defs>
      <g>
       <use style="fill:#1a1a1a;stroke:#1a1a1a;stroke-width:0.8;" x="57.6" xlink:href="#me46fda3024" y="270.0864"/>
      </g>
     </g>
     <g id="text_9">
      <!-- 0.0 -->
      <g style="fill:#1a1a1a;" transform="translate(34.696875 273.885619)scale(0.1 -0.1)">
       <use xlink:href="#DejaVuSans-30"/>
       <use x="63.623047" xlink:href="#DejaVuSans-2e"/>
       <use x="95.410156" xlink:href="#DejaVuSans-30"/>
      </g>
     </g>
    </g>
    <g id="ytick_2">
     <g id="line2d_17">
      <path clip-path="url(#p5470ecc24d)" d="M 57.6 226.5408 
L 414.72 226.5408 
" style="fill:none;stroke:#b0b0b0;stroke-linecap:square;stroke-width:0.8;"/>
     </g>
     <g id="line2d_18">
      <g>
       <use style="fill:#1a1a1a;stroke:#1a1a1a;stroke-width:0.8;" x="57.6" xlink:href="#me46fda3024" y="226.5408"/>
      </g>
     </g>
     <g id="text_10">
      <!-- 0.2 -->
      <g style="fill:#1a1a1a;" transform="translate(34.696875 230.340019)scale(0.1 -0.1)">
       <use xlink:href="#DejaVuSans-30"/>
       <use x="63.623047" xlink:href="#DejaVuSans-2e"/>
       <use x="95.410156" xlink:href="#DejaVuSans-32"/>
      </g>
     </g>
    </g>
    <g id="ytick_3">
     <g id="line2d_19">
      <path clip-path="url(#p5470ecc24d)" d="M 57.6 182.9952 
L 414.72 182.9952 
" style="fill:none;stroke:#b0b0b0;stroke-linecap:square;stroke-width:0.8;"/>
     </g>
     <g id="line2d_20">
      <g>
       <use style="fill:#1a1a1a;stroke:#1a1a1a;stroke-width:0.8;" x="57.6" xlink:href="#me46fda3024" y="182.9952"/>
      </g>
     </g>
     <g id="text_11">
      <!-- 0.4 -->
      <g style="fill:#1a1a1a;" transform="translate(34.696875 186.794419)scale(0.1 -0.1)">
       <use xlink:href="#DejaVuSans-30"/>
       <use x="63.623047" xlink:href="#DejaVuSans-2e"/>
       <use x="95.410156" xlink:href="#DejaVuSans-34"/>
      </g>
     </g>
    </g>
    <g id="ytick_4">
     <g id="line2d_21">
      <path clip-path="url(#p5470ecc24d)" d="M 57.6 139.4496 
L 414.72 139.4496 
" style="fill:none;stroke:#b0b0b0;stroke-linecap:square;stroke-width:0.8;"/>
     </g>
     <g id="line2d_22">
      <g>
       <use style="fill:#1a1a1a;stroke:#1a1a1a;stroke-width:0.8;" x="57.6" xlink:href="#me46fda3024" y="139.4496"/>
      </g>
     </g>
     <g id="text_12">
      <!-- 0.6 -->
      <g style="fill:#1a1a1a;" transform="translate(34.696875 143.248819)scale(0.1 -0.1)">
       <use xlink:href="#DejaVuSans-30"/>
       <use x="63.623047" xlink:href="#DejaVuSans-2e"/>
       <use x="95.410156" xlink:href="#DejaVuSans-36"/>
      </g>
     </g>
    </g>
    <g id="ytick_5">
     <g id="line2d_23">
      <path clip-path="url(#p5470ecc24d)" d="M 57.6 95.904 
L 414.72 95.904 
" style="fill:none;stroke:#b0b0b0;stroke-linecap:square;stroke-width:0.8;"/>
     </g>
     <g id="line2d_24">
      <g>
       <use style="fill:#1a1a1a;stroke:#1a1a1a;stroke-width:0.8;" x="57.6" xlink:href="#me46fda3024" y="95.904"/>
      </g>
     </g>
     <g id="text_13">
      <!-- 0.8 -->
      <defs>
       <path d="M 31.78125 34.625 
Q 24.75 34.625 20.71875 30.859375 
Q 16.703125 27.09375 16.703125 20.515625 
Q 16.703125 13.921875 20.71875 10.15625 
Q 24.75 6.390625 31.78125 6.390625 
Q 38.8125 6.390625 42.859375 10.171875 
Q 46.921875 13.96875 46.921875 20.515625 
Q 46.921875 27.09375 42.890625 30.859375 
Q 38.875 34.625 31.78125 34.625 
z
M 21.921875 38.8125 
Q 15.578125 40.375 12.03125 44.71875 
Q 8.5 49.078125 8.5 55.328125 
Q 8.5 64.0625 14.71875 69.140625 
Q 20.953125 74.21875 31.78125 74.21875 
Q 42.671875 74.21875 48.875 69.140625 
Q 55.078125 64.0625 55.078125 55.328125 
Q 55.078125 49.078125 51.53125 44.71875 
Q 48 40.375 41.703125 38.8125 
Q 48.828125 37.15625 52.796875 32.3125 
Q 56.78125 27.484375 56.78125 20.515625 
Q 56.78125 9.90625 50.3125 4.234375 
Q 43.84375 -1.421875 31.78125 -1.421875 
Q 19.734375 -1.421875 13.25 4.234375 
Q 6.78125 9.90625 6.78125 20.515625 
Q 6.78125 27.484375 10.78125 32.3125 
Q 14.796875 37.15625 21.921875 38.8125 
z
M 18.3125 54.390625 
Q 18.3125 48.734375 21.84375 45.5625 
Q 25.390625 42.390625 31.78125 42.390625 
Q 38.140625 42.390625 41.71875 45.5625 
Q 45.3125 48.734375 45.3125 54.390625 
Q 45.3125 60.0625 41.71875 63.234375 
Q 38.140625 66.40625 31.78125 66.40625 
Q 25.390625 66.40625 21.84375 63.234375 
Q 18.3125 60.0625 18.3125 54.390625 
z
" id="DejaVuSans-38"/>
      </defs>
      <g style="fill:#1a1a1a;" transform="translate(34.696875 99.703219)scale(0.1 -0.1)">
       <use xlink:href="#DejaVuSans-30"/>
       <use x="63.623047" xlink:href="#DejaVuSans-2e"/>
       <use x="95.410156" xlink:href="#DejaVuSans-38"/>
      </g>
     </g>
    </g>
    <g id="ytick_6">
     <g id="line2d_25">
      <path clip-path="url(#p5470ecc24d)" d="M 57.6 52.3584 
L 414.72 52.3584 
" style="fill:none;stroke:#b0b0b0;stroke-linecap:square;stroke-width:0.8;"/>
     </g>
     <g id="line2d_26">
      <g>
       <use style="fill:#1a1a1a;stroke:#1a1a1a;stroke-width:0.8;" x="57.6" xlink:href="#me46fda3024" y="52.3584"/>
      </g>
     </g>
     <g id="text_14">
      <!-- 1.0 -->
      <defs>
       <path d="M 12.40625 8.296875 
L 28.515625 8.296875 
L 28.515625 63.921875 
L 10.984375 60.40625 
L 10.984375 69.390625 
L 28.421875 72.90625 
L 38.28125 72.90625 
L 38.28125 8.296875 
L 54.390625 8.296875 
L 54.390625 0 
L 12.40625 0 
z
" id="DejaVuSans-31"/>
      </defs>
      <g style="fill:#1a1a1a;" transform="translate(34.696875 56.157619)scale(0.1 -0.1)">
       <use xlink:href="#DejaVuSans-31"/>
       <use x="63.623047" xlink:href="#DejaVuSans-2e"/>
       <use x="95.410156" xlink:href="#DejaVuSans-30"/>
      </g>
     </g>
    </g>
    <g id="text_15">
     <!-- Normalized Correlation Magnitude -->
     <defs>
      <path d="M 9.8125 72.90625 
L 23.09375 72.90625 
L 55.421875 11.921875 
L 55.421875 72.90625 
L 64.984375 72.90625 
L 64.984375 0 
L 51.703125 0 
L 19.390625 60.984375 
L 19.390625 0 
L 9.8125 0 
z
" id="DejaVuSans-4e"/>
      <path d="M 30.609375 48.390625 
Q 23.390625 48.390625 19.1875 42.75 
Q 14.984375 37.109375 14.984375 27.296875 
Q 14.984375 17.484375 19.15625 11.84375 
Q 23.34375 6.203125 30.609375 6.203125 
Q 37.796875 6.203125 41.984375 11.859375 
Q 46.1875 17.53125 46.1875 27.296875 
Q 46.1875 37.015625 41.984375 42.703125 
Q 37.796875 48.390625 30.609375 48.390625 
z
M 30.609375 56 
Q 42.328125 56 49.015625 48.375 
Q 55.71875 40.765625 55.71875 27.296875 
Q 55.71875 13.875 49.015625 6.21875 
Q 42.328125 -1.421875 30.609375 -1.421875 
Q 18.84375 -1.421875 12.171875 6.21875 
Q 5.515625 13.875 5.515625 27.296875 
Q 5.515625 40.765625 12.171875 48.375 
Q 18.84375 56 30.609375 56 
z
" id="DejaVuSans-6f"/>
      <path d="M 41.109375 46.296875 
Q 39.59375 47.171875 37.8125 47.578125 
Q 36.03125 48 33.890625 48 
Q 26.265625 48 22.1875 43.046875 
Q 18.109375 38.09375 18.109375 28.8125 
L 18.109375 0 
L 9.078125 0 
L 9.078125 54.6875 
L 18.109375 54.6875 
L 18.109375 46.1875 
Q 20.953125 51.171875 25.484375 53.578125 
Q 30.03125 56 36.53125 56 
Q 37.453125 56 38.578125 55.875 
Q 39.703125 55.765625 41.0625 55.515625 
z
" id="DejaVuSans-72"/>
      <path d="M 52 44.1875 
Q 55.375 50.25 60.0625 53.125 
Q 64.75 56 71.09375 56 
Q 79.640625 56 84.28125 50.015625 
Q 88.921875 44.046875 88.921875 33.015625 
L 88.921875 0 
L 79.890625 0 
L 79.890625 32.71875 
Q 79.890625 40.578125 77.09375 44.375 
Q 74.3125 48.1875 68.609375 48.1875 
Q 61.625 48.1875 57.5625 43.546875 
Q 53.515625 38.921875 53.515625 30.90625 
L 53.515625 0 
L 44.484375 0 
L 44.484375 32.71875 
Q 44.484375 40.625 41.703125 44.40625 
Q 38.921875 48.1875 33.109375 48.1875 
Q 26.21875 48.1875 22.15625 43.53125 
Q 18.109375 38.875 18.109375 30.90625 
L 18.109375 0 
L 9.078125 0 
L 9.078125 54.6875 
L 18.109375 54.6875 
L 18.109375 46.1875 
Q 21.1875 51.21875 25.484375 53.609375 
Q 29.78125 56 35.6875 56 
Q 41.65625 56 45.828125 52.96875 
Q 50 49.953125 52 44.1875 
z
" id="DejaVuSans-6d"/>
      <path d="M 34.28125 27.484375 
Q 23.390625 27.484375 19.1875 25 
Q 14.984375 22.515625 14.984375 16.5 
Q 14.984375 11.71875 18.140625 8.90625 
Q 21.296875 6.109375 26.703125 6.109375 
Q 34.1875 6.109375 38.703125 11.40625 
Q 43.21875 16.703125 43.21875 25.484375 
L 43.21875 27.484375 
z
M 52.203125 31.203125 
L 52.203125 0 
L 43.21875 0 
L 43.21875 8.296875 
Q 40.140625 3.328125 35.546875 0.953125 
Q 30.953125 -1.421875 24.3125 -1.421875 
Q 15.921875 -1.421875 10.953125 3.296875 
Q 6 8.015625 6 15.921875 
Q 6 25.140625 12.171875 29.828125 
Q 18.359375 34.515625 30.609375 34.515625 
L 43.21875 34.515625 
L 43.21875 35.40625 
Q 43.21875 41.609375 39.140625 45 
Q 35.0625 48.390625 27.6875 48.390625 
Q 23 48.390625 18.546875 47.265625 
Q 14.109375 46.140625 10.015625 43.890625 
L 10.015625 52.203125 
Q 14.9375 54.109375 19.578125 55.046875 
Q 24.21875 56 28.609375 56 
Q 40.484375 56 46.34375 49.84375 
Q 52.203125 43.703125 52.203125 31.203125 
z
" id="DejaVuSans-61"/>
      <path d="M 9.421875 75.984375 
L 18.40625 75.984375 
L 18.40625 0 
L 9.421875 0 
z
" id="DejaVuSans-6c"/>
      <path d="M 9.421875 54.6875 
L 18.40625 54.6875 
L 18.40625 0 
L 9.421875 0 
z
M 9.421875 75.984375 
L 18.40625 75.984375 
L 18.40625 64.59375 
L 9.421875 64.59375 
z
" id="DejaVuSans-69"/>
      <path d="M 5.515625 54.6875 
L 48.1875 54.6875 
L 48.1875 46.484375 
L 14.40625 7.171875 
L 48.1875 7.171875 
L 48.1875 0 
L 4.296875 0 
L 4.296875 8.203125 
L 38.09375 47.515625 
L 5.515625 47.515625 
z
" id="DejaVuSans-7a"/>
      <path d="M 56.203125 29.59375 
L 56.203125 25.203125 
L 14.890625 25.203125 
Q 15.484375 15.921875 20.484375 11.0625 
Q 25.484375 6.203125 34.421875 6.203125 
Q 39.59375 6.203125 44.453125 7.46875 
Q 49.3125 8.734375 54.109375 11.28125 
L 54.109375 2.78125 
Q 49.265625 0.734375 44.1875 -0.34375 
Q 39.109375 -1.421875 33.890625 -1.421875 
Q 20.796875 -1.421875 13.15625 6.1875 
Q 5.515625 13.8125 5.515625 26.8125 
Q 5.515625 40.234375 12.765625 48.109375 
Q 20.015625 56 32.328125 56 
Q 43.359375 56 49.78125 48.890625 
Q 56.203125 41.796875 56.203125 29.59375 
z
M 47.21875 32.234375 
Q 47.125 39.59375 43.09375 43.984375 
Q 39.0625 48.390625 32.421875 48.390625 
Q 24.90625 48.390625 20.390625 44.140625 
Q 15.875 39.890625 15.1875 32.171875 
z
" id="DejaVuSans-65"/>
      <path d="M 45.40625 46.390625 
L 45.40625 75.984375 
L 54.390625 75.984375 
L 54.390625 0 
L 45.40625 0 
L 45.40625 8.203125 
Q 42.578125 3.328125 38.25 0.953125 
Q 33.9375 -1.421875 27.875 -1.421875 
Q 17.96875 -1.421875 11.734375 6.484375 
Q 5.515625 14.40625 5.515625 27.296875 
Q 5.515625 40.1875 11.734375 48.09375 
Q 17.96875 56 27.875 56 
Q 33.9375 56 38.25 53.625 
Q 42.578125 51.265625 45.40625 46.390625 
z
M 14.796875 27.296875 
Q 14.796875 17.390625 18.875 11.75 
Q 22.953125 6.109375 30.078125 6.109375 
Q 37.203125 6.109375 41.296875 11.75 
Q 45.40625 17.390625 45.40625 27.296875 
Q 45.40625 37.203125 41.296875 42.84375 
Q 37.203125 48.484375 30.078125 48.484375 
Q 22.953125 48.484375 18.875 42.84375 
Q 14.796875 37.203125 14.796875 27.296875 
z
" id="DejaVuSans-64"/>
      <path id="DejaVuSans-20"/>
      <path d="M 64.40625 67.28125 
L 64.40625 56.890625 
Q 59.421875 61.53125 53.78125 63.8125 
Q 48.140625 66.109375 41.796875 66.109375 
Q 29.296875 66.109375 22.65625 58.46875 
Q 16.015625 50.828125 16.015625 36.375 
Q 16.015625 21.96875 22.65625 14.328125 
Q 29.296875 6.6875 41.796875 6.6875 
Q 48.140625 6.6875 53.78125 8.984375 
Q 59.421875 11.28125 64.40625 15.921875 
L 64.40625 5.609375 
Q 59.234375 2.09375 53.4375 0.328125 
Q 47.65625 -1.421875 41.21875 -1.421875 
Q 24.65625 -1.421875 15.125 8.703125 
Q 5.609375 18.84375 5.609375 36.375 
Q 5.609375 53.953125 15.125 64.078125 
Q 24.65625 74.21875 41.21875 74.21875 
Q 47.75 74.21875 53.53125 72.484375 
Q 59.328125 70.75 64.40625 67.28125 
z
" id="DejaVuSans-43"/>
      <path d="M 18.3125 70.21875 
L 18.3125 54.6875 
L 36.8125 54.6875 
L 36.8125 47.703125 
L 18.3125 47.703125 
L 18.3125 18.015625 
Q 18.3125 11.328125 20.140625 9.421875 
Q 21.96875 7.515625 27.59375 7.515625 
L 36.8125 7.515625 
L 36.8125 0 
L 27.59375 0 
Q 17.1875 0 13.234375 3.875 
Q 9.28125 7.765625 9.28125 18.015625 
L 9.28125 47.703125 
L 2.6875 47.703125 
L 2.6875 54.6875 
L 9.28125 54.6875 
L 9.28125 70.21875 
z
" id="DejaVuSans-74"/>
      <path d="M 54.890625 33.015625 
L 54.890625 0 
L 45.90625 0 
L 45.90625 32.71875 
Q 45.90625 40.484375 42.875 44.328125 
Q 39.84375 48.1875 33.796875 48.1875 
Q 26.515625 48.1875 22.3125 43.546875 
Q 18.109375 38.921875 18.109375 30.90625 
L 18.109375 0 
L 9.078125 0 
L 9.078125 54.6875 
L 18.109375 54.6875 
L 18.109375 46.1875 
Q 21.34375 51.125 25.703125 53.5625 
Q 30.078125 56 35.796875 56 
Q 45.21875 56 50.046875 50.171875 
Q 54.890625 44.34375 54.890625 33.015625 
z
" id="DejaVuSans-6e"/>
      <path d="M 9.8125 72.90625 
L 24.515625 72.90625 
L 43.109375 23.296875 
L 61.8125 72.90625 
L 76.515625 72.90625 
L 76.515625 0 
L 66.890625 0 
L 66.890625 64.015625 
L 48.09375 14.015625 
L 38.1875 14.015625 
L 19.390625 64.015625 
L 19.390625 0 
L 9.8125 0 
z
" id="DejaVuSans-4d"/>
      <path d="M 45.40625 27.984375 
Q 45.40625 37.75 41.375 43.109375 
Q 37.359375 48.484375 30.078125 48.484375 
Q 22.859375 48.484375 18.828125 43.109375 
Q 14.796875 37.75 14.796875 27.984375 
Q 14.796875 18.265625 18.828125 12.890625 
Q 22.859375 7.515625 30.078125 7.515625 
Q 37.359375 7.515625 41.375 12.890625 
Q 45.40625 18.265625 45.40625 27.984375 
z
M 54.390625 6.78125 
Q 54.390625 -7.171875 48.1875 -13.984375 
Q 42 -20.796875 29.203125 -20.796875 
Q 24.46875 -20.796875 20.265625 -20.09375 
Q 16.0625 -19.390625 12.109375 -17.921875 
L 12.109375 -9.1875 
Q 16.0625 -11.328125 19.921875 -12.34375 
Q 23.78125 -13.375 27.78125 -13.375 
Q 36.625 -13.375 41.015625 -8.765625 
Q 45.40625 -4.15625 45.40625 5.171875 
L 45.40625 9.625 
Q 42.625 4.78125 38.28125 2.390625 
Q 33.9375 0 27.875 0 
Q 17.828125 0 11.671875 7.65625 
Q 5.515625 15.328125 5.515625 27.984375 
Q 5.515625 40.671875 11.671875 48.328125 
Q 17.828125 56 27.875 56 
Q 33.9375 56 38.28125 53.609375 
Q 42.625 51.21875 45.40625 46.390625 
L 45.40625 54.6875 
L 54.390625 54.6875 
z
" id="DejaVuSans-67"/>
      <path d="M 8.5 21.578125 
L 8.5 54.6875 
L 17.484375 54.6875 
L 17.484375 21.921875 
Q 17.484375 14.15625 20.5 10.265625 
Q 23.53125 6.390625 29.59375 6.390625 
Q 36.859375 6.390625 41.078125 11.03125 
Q 45.3125 15.671875 45.3125 23.6875 
L 45.3125 54.6875 
L 54.296875 54.6875 
L 54.296875 0 
L 45.3125 0 
L 45.3125 8.40625 
Q 42.046875 3.421875 37.71875 1 
Q 33.40625 -1.421875 27.6875 -1.421875 
Q 18.265625 -1.421875 13.375 4.4375 
Q 8.5 10.296875 8.5 21.578125 
z
M 31.109375 56 
z
" id="DejaVuSans-75"/>
     </defs>
     <g style="fill:#1a1a1a;" transform="translate(28.617187 247.098962)rotate(-90)scale(0.1 -0.1)">
      <use xlink:href="#DejaVuSans-4e"/>
      <use x="74.804688" xlink:href="#DejaVuSans-6f"/>
      <use x="135.986328" xlink:href="#DejaVuSans-72"/>
      <use x="177.083984" xlink:href="#DejaVuSans-6d"/>
      <use x="274.496094" xlink:href="#DejaVuSans-61"/>
      <use x="335.775391" xlink:href="#DejaVuSans-6c"/>
      <use x="363.558594" xlink:href="#DejaVuSans-69"/>
      <use x="391.341797" xlink:href="#DejaVuSans-7a"/>
      <use x="443.832031" xlink:href="#DejaVuSans-65"/>
      <use x="505.355469" xlink:href="#DejaVuSans-64"/>
      <use x="568.832031" xlink:href="#DejaVuSans-20"/>
      <use x="600.619141" xlink:href="#DejaVuSans-43"/>
      <use x="670.443359" xlink:href="#DejaVuSans-6f"/>
      <use x="731.625" xlink:href="#DejaVuSans-72"/>
      <use x="772.722656" xlink:href="#DejaVuSans-72"/>
      <use x="813.804688" xlink:href="#DejaVuSans-65"/>
      <use x="875.328125" xlink:href="#DejaVuSans-6c"/>
      <use x="903.111328" xlink:href="#DejaVuSans-61"/>
      <use x="964.390625" xlink:href="#DejaVuSans-74"/>
      <use x="1003.599609" xlink:href="#DejaVuSans-69"/>
      <use x="1031.382812" xlink:href="#DejaVuSans-6f"/>
      <use x="1092.564453" xlink:href="#DejaVuSans-6e"/>
      <use x="1155.943359" xlink:href="#DejaVuSans-20"/>
      <use x="1187.730469" xlink:href="#DejaVuSans-4d"/>
      <use x="1274.009766" xlink:href="#DejaVuSans-61"/>
      <use x="1335.289062" xlink:href="#DejaVuSans-67"/>
      <use x="1398.765625" xlink:href="#DejaVuSans-6e"/>
      <use x="1462.144531" xlink:href="#DejaVuSans-69"/>
      <use x="1489.927734" xlink:href="#DejaVuSans-74"/>
      <use x="1529.136719" xlink:href="#DejaVuSans-75"/>
      <use x="1592.515625" xlink:href="#DejaVuSans-64"/>
      <use x="1655.992188" xlink:href="#DejaVuSans-65"/>
     </g>
    </g>
   </g>
   <g id="line2d_27">
    <path clip-path="url(#p5470ecc24d)" d="M 73.832727 211.262959 
L 75.636364 209.032494 
L 77.44 209.765531 
L 79.243636 213.667233 
L 81.047273 220.541462 
L 82.850909 229.777236 
L 86.458182 251.072226 
L 88.261818 260.37912 
L 90.065455 266.816441 
L 91.869091 269.035839 
L 93.672727 265.987208 
L 95.476364 257.054306 
L 97.28 242.151278 
L 99.083636 221.767814 
L 100.887273 196.956013 
L 106.298182 113.031128 
L 108.101818 88.717405 
L 109.905455 69.558993 
L 111.709091 57.099459 
L 113.512727 52.3584 
L 115.316364 55.732089 
L 117.12 66.954285 
L 118.923636 85.121395 
L 120.727273 108.779394 
L 124.334545 164.874965 
L 126.138182 193.079482 
L 127.941818 218.701774 
L 129.745455 240.101432 
L 131.549091 256.109532 
L 133.352727 266.114011 
L 135.156364 270.0864 
L 136.96 268.549072 
L 138.763636 262.488558 
L 140.567273 253.226111 
L 144.174545 231.103976 
L 145.978182 221.120311 
L 147.781818 213.397017 
L 149.585455 208.649269 
L 151.389091 207.173159 
L 153.192727 208.847865 
L 154.996364 213.184237 
L 156.8 219.411707 
L 160.407273 233.741533 
L 162.210909 239.958215 
L 164.014545 244.520547 
L 165.818182 246.965845 
L 167.621818 247.12938 
L 169.425455 245.145351 
L 171.229091 241.411221 
L 173.032727 236.521756 
L 176.64 226.114178 
L 178.443636 221.960909 
L 180.247273 219.212417 
L 182.050909 218.150196 
L 183.854545 218.822585 
L 185.658182 221.050669 
L 187.461818 224.462779 
L 192.872727 236.492566 
L 194.676364 239.314811 
L 196.48 240.884283 
L 198.283636 241.049867 
L 200.087273 239.851172 
L 201.890909 237.505228 
L 203.694545 234.370733 
L 207.301818 227.553559 
L 209.105455 224.783389 
L 210.909091 222.930419 
L 212.712727 222.205901 
L 214.516364 222.664031 
L 216.32 224.200597 
L 218.123636 226.572436 
L 223.534545 235.038353 
L 225.338182 237.041097 
L 227.141818 238.151427 
L 228.945455 238.250547 
L 230.749091 237.357865 
L 232.552727 235.624005 
L 234.356364 233.306714 
L 237.963636 228.255381 
L 239.767273 226.200865 
L 241.570909 224.831719 
L 243.374545 224.310787 
L 245.178182 224.683089 
L 246.981818 225.873217 
L 248.785455 227.698788 
L 254.196364 234.19633 
L 256 235.725022 
L 257.803636 236.56025 
L 259.607273 236.608632 
L 261.410909 235.884533 
L 263.214545 234.50536 
L 265.018182 232.673232 
L 268.625455 228.700479 
L 270.429091 227.096681 
L 272.232727 226.041692 
L 274.036364 225.664093 
L 275.84 225.99844 
L 277.643636 226.982854 
L 279.447273 228.469572 
L 284.858182 233.687861 
L 286.661818 234.89154 
L 288.465455 235.526215 
L 290.269091 235.518607 
L 292.072727 234.883415 
L 293.876364 233.719438 
L 295.68 232.194509 
L 299.287273 228.928621 
L 301.090909 227.628695 
L 302.894545 226.790584 
L 304.698182 226.517517 
L 306.501818 226.834528 
L 308.305455 227.686674 
L 310.109091 228.948067 
L 315.52 233.294283 
L 317.323636 234.274505 
L 319.127273 234.773211 
L 320.930909 234.733177 
L 322.734545 234.171157 
L 324.538182 233.174167 
L 328.145455 230.488185 
L 329.949091 229.171558 
L 331.752727 228.113175 
L 333.556364 227.450901 
L 335.36 227.265612 
L 337.163636 227.571107 
L 338.967273 228.313311 
L 340.770909 229.37872 
L 344.378182 231.832103 
L 346.181818 232.868708 
L 347.985455 233.574165 
L 349.789091 233.84918 
L 351.592727 233.654742 
L 353.396364 233.016892 
L 355.2 232.022611 
L 360.610909 228.383242 
L 362.414545 227.502943 
L 364.218182 227.014998 
L 366.021818 226.985488 
L 367.825455 227.419042 
L 369.629091 228.258713 
L 371.432727 229.394107 
L 375.04 231.939562 
L 376.843636 233.020646 
L 378.647273 233.78343 
L 380.450909 234.13522 
L 382.254545 234.038847 
L 384.058182 233.516911 
L 385.861818 232.647974 
L 391.272727 229.310141 
L 393.076364 228.459831 
L 394.88 227.950103 
L 396.683636 227.844528 
L 398.487273 228.151429 
L 398.487273 228.151429 
" style="fill:none;stroke:#c44e52;stroke-dasharray:5.55,2.4;stroke-dashoffset:0;stroke-width:1.5;"/>
   </g>
   <g id="line2d_28">
    <path clip-path="url(#p5470ecc24d)" d="M 73.832727 165.028596 
L 75.636364 161.12287 
L 77.44 160.231174 
L 79.243636 162.589696 
L 81.047273 168.082414 
L 82.850909 176.216691 
L 84.654545 186.142013 
L 86.458182 196.712903 
L 88.261818 206.591771 
L 90.065455 214.382329 
L 91.869091 218.78003 
L 93.672727 218.723181 
L 95.476364 213.52744 
L 97.28 202.987495 
L 99.083636 187.432729 
L 100.887273 167.728395 
L 108.101818 78.934254 
L 109.905455 63.630074 
L 111.709091 54.439465 
L 113.512727 52.3584 
L 115.316364 57.792848 
L 117.12 70.512251 
L 118.923636 89.666377 
L 120.727273 113.864105 
L 127.941818 222.719753 
L 129.745455 243.306054 
L 131.549091 258.358317 
L 133.352727 267.288924 
L 135.156364 270.0864 
L 136.96 267.282204 
L 138.763636 259.86307 
L 140.567273 249.140392 
L 145.978182 211.784091 
L 147.781818 201.888516 
L 149.585455 194.681308 
L 151.389091 190.419869 
L 153.192727 188.960681 
L 154.996364 189.816444 
L 156.8 192.250374 
L 160.407273 198.375101 
L 162.210909 200.432984 
L 164.014545 201.018207 
L 165.818182 199.854329 
L 167.621818 196.962114 
L 169.425455 192.642668 
L 174.836364 177.023071 
L 176.64 173.22192 
L 178.443636 171.088948 
L 180.247273 170.921168 
L 182.050909 172.758477 
L 183.854545 176.378852 
L 185.658182 181.328046 
L 189.265455 192.613732 
L 191.069091 197.513483 
L 192.872727 201.050754 
L 194.676364 202.766129 
L 196.48 202.423688 
L 198.283636 200.037392 
L 200.087273 195.865959 
L 201.890909 190.377622 
L 205.498182 177.992875 
L 207.301818 172.465108 
L 209.105455 168.194319 
L 210.909091 165.611084 
L 212.712727 164.944229 
L 214.516364 166.202371 
L 216.32 169.18301 
L 218.123636 173.506923 
L 223.534545 189.315662 
L 225.338182 193.787731 
L 227.141818 197.206801 
L 228.945455 199.403111 
L 230.749091 200.379083 
L 232.552727 200.29647 
L 234.356364 199.443871 
L 237.963636 196.928923 
L 239.767273 196.026738 
L 241.570909 195.773664 
L 243.374545 196.350578 
L 245.178182 197.811897 
L 246.981818 200.086795 
L 248.785455 202.997476 
L 254.196364 212.884105 
L 256 215.670889 
L 257.803636 217.883951 
L 259.607273 219.460701 
L 261.410909 220.434489 
L 263.214545 220.92255 
L 266.821818 221.177938 
L 268.625455 221.34861 
L 270.429091 221.773036 
L 272.232727 222.545742 
L 274.036364 223.682259 
L 275.84 225.117266 
L 279.447273 228.292763 
L 281.250909 229.64603 
L 283.054545 230.584176 
L 284.858182 230.95854 
L 286.661818 230.686451 
L 288.465455 229.765033 
L 290.269091 228.273174 
L 292.072727 226.361426 
L 295.68 222.107395 
L 297.483636 220.205379 
L 299.287273 218.702291 
L 301.090909 217.711686 
L 302.894545 217.268319 
L 304.698182 217.324164 
L 306.501818 217.756394 
L 310.109091 219.004933 
L 311.912727 219.405961 
L 313.716364 219.4139 
L 315.52 218.910631 
L 317.323636 217.852096 
L 319.127273 216.274168 
L 320.930909 214.286652 
L 326.341818 207.661599 
L 328.145455 205.867523 
L 329.949091 204.514827 
L 331.752727 203.646409 
L 333.556364 203.225732 
L 335.36 203.142348 
L 338.967273 203.288052 
L 340.770909 203.123139 
L 342.574545 202.57197 
L 344.378182 201.534809 
L 346.181818 199.994586 
L 347.985455 198.02524 
L 353.396364 191.450696 
L 355.2 189.887677 
L 357.003636 189.049192 
L 358.807273 189.095353 
L 360.610909 190.087778 
L 362.414545 191.975458 
L 364.218182 194.595811 
L 369.629091 203.999657 
L 371.432727 206.546648 
L 373.236364 208.328978 
L 375.04 209.199985 
L 376.843636 209.144289 
L 378.647273 208.28622 
L 380.450909 206.879743 
L 382.254545 205.280497 
L 384.058182 203.90293 
L 385.861818 203.167644 
L 387.665455 203.445503 
L 389.469091 205.005705 
L 391.272727 207.974763 
L 393.076364 212.312105 
L 394.88 217.806057 
L 398.487273 230.687243 
L 398.487273 230.687243 
" style="fill:none;stroke:#c44e52;stroke-linecap:square;stroke-width:1.5;"/>
    <defs>
     <path d="M -1.5 0 
L 1.5 0 
M 0 1.5 
L 0 -1.5 
" id="mf1bd6bffaf" style="stroke:#c44e52;"/>
    </defs>
    <g clip-path="url(#p5470ecc24d)">
     <use style="fill:#c44e52;stroke:#c44e52;" x="73.832727" xlink:href="#mf1bd6bffaf" y="165.028596"/>
     <use style="fill:#c44e52;stroke:#c44e52;" x="75.636364" xlink:href="#mf1bd6bffaf" y="161.12287"/>
     <use style="fill:#c44e52;stroke:#c44e52;" x="77.44" xlink:href="#mf1bd6bffaf" y="160.231174"/>
     <use style="fill:#c44e52;stroke:#c44e52;" x="79.243636" xlink:href="#mf1bd6bffaf" y="162.589696"/>
     <use style="fill:#c44e52;stroke:#c44e52;" x="81.047273" xlink:href="#mf1bd6bffaf" y="168.082414"/>
     <use style="fill:#c44e52;stroke:#c44e52;" x="82.850909" xlink:href="#mf1bd6bffaf" y="176.216691"/>
     <use style="fill:#c44e52;stroke:#c44e52;" x="84.654545" xlink:href="#mf1bd6bffaf" y="186.142013"/>
     <use style="fill:#c44e52;stroke:#c44e52;" x="86.458182" xlink:href="#mf1bd6bffaf" y="196.712903"/>
     <use style="fill:#c44e52;stroke:#c44e52;" x="88.261818" xlink:href="#mf1bd6bffaf" y="206.591771"/>
     <use style="fill:#c44e52;stroke:#c44e52;" x="90.065455" xlink:href="#mf1bd6bffaf" y="214.382329"/>
     <use style="fill:#c44e52;stroke:#c44e52;" x="91.869091" xlink:href="#mf1bd6bffaf" y="218.78003"/>
     <use style="fill:#c44e52;stroke:#c44e52;" x="93.672727" xlink:href="#mf1bd6bffaf" y="218.723181"/>
     <use style="fill:#c44e52;stroke:#c44e52;" x="95.476364" xlink:href="#mf1bd6bffaf" y="213.52744"/>
     <use style="fill:#c44e52;stroke:#c44e52;" x="97.28" xlink:href="#mf1bd6bffaf" y="202.987495"/>
     <use style="fill:#c44e52;stroke:#c44e52;" x="99.083636" xlink:href="#mf1bd6bffaf" y="187.432729"/>
     <use style="fill:#c44e52;stroke:#c44e52;" x="100.887273" xlink:href="#mf1bd6bffaf" y="167.728395"/>
     <use style="fill:#c44e52;stroke:#c44e52;" x="102.690909" xlink:href="#mf1bd6bffaf" y="145.219689"/>
     <use style="fill:#c44e52;stroke:#c44e52;" x="104.494545" xlink:href="#mf1bd6bffaf" y="121.622464"/>
     <use style="fill:#c44e52;stroke:#c44e52;" x="106.298182" xlink:href="#mf1bd6bffaf" y="98.870484"/>
     <use style="fill:#c44e52;stroke:#c44e52;" x="108.101818" xlink:href="#mf1bd6bffaf" y="78.934254"/>
     <use style="fill:#c44e52;stroke:#c44e52;" x="109.905455" xlink:href="#mf1bd6bffaf" y="63.630074"/>
     <use style="fill:#c44e52;stroke:#c44e52;" x="111.709091" xlink:href="#mf1bd6bffaf" y="54.439465"/>
     <use style="fill:#c44e52;stroke:#c44e52;" x="113.512727" xlink:href="#mf1bd6bffaf" y="52.3584"/>
     <use style="fill:#c44e52;stroke:#c44e52;" x="115.316364" xlink:href="#mf1bd6bffaf" y="57.792848"/>
     <use style="fill:#c44e52;stroke:#c44e52;" x="117.12" xlink:href="#mf1bd6bffaf" y="70.512251"/>
     <use style="fill:#c44e52;stroke:#c44e52;" x="118.923636" xlink:href="#mf1bd6bffaf" y="89.666377"/>
     <use style="fill:#c44e52;stroke:#c44e52;" x="120.727273" xlink:href="#mf1bd6bffaf" y="113.864105"/>
     <use style="fill:#c44e52;stroke:#c44e52;" x="122.530909" xlink:href="#mf1bd6bffaf" y="141.305929"/>
     <use style="fill:#c44e52;stroke:#c44e52;" x="124.334545" xlink:href="#mf1bd6bffaf" y="169.956134"/>
     <use style="fill:#c44e52;stroke:#c44e52;" x="126.138182" xlink:href="#mf1bd6bffaf" y="197.736323"/>
     <use style="fill:#c44e52;stroke:#c44e52;" x="127.941818" xlink:href="#mf1bd6bffaf" y="222.719753"/>
     <use style="fill:#c44e52;stroke:#c44e52;" x="129.745455" xlink:href="#mf1bd6bffaf" y="243.306054"/>
     <use style="fill:#c44e52;stroke:#c44e52;" x="131.549091" xlink:href="#mf1bd6bffaf" y="258.358317"/>
     <use style="fill:#c44e52;stroke:#c44e52;" x="133.352727" xlink:href="#mf1bd6bffaf" y="267.288924"/>
     <use style="fill:#c44e52;stroke:#c44e52;" x="135.156364" xlink:href="#mf1bd6bffaf" y="270.0864"/>
     <use style="fill:#c44e52;stroke:#c44e52;" x="136.96" xlink:href="#mf1bd6bffaf" y="267.282204"/>
     <use style="fill:#c44e52;stroke:#c44e52;" x="138.763636" xlink:href="#mf1bd6bffaf" y="259.86307"/>
     <use style="fill:#c44e52;stroke:#c44e52;" x="140.567273" xlink:href="#mf1bd6bffaf" y="249.140392"/>
     <use style="fill:#c44e52;stroke:#c44e52;" x="142.370909" xlink:href="#mf1bd6bffaf" y="236.592606"/>
     <use style="fill:#c44e52;stroke:#c44e52;" x="144.174545" xlink:href="#mf1bd6bffaf" y="223.699048"/>
     <use style="fill:#c44e52;stroke:#c44e52;" x="145.978182" xlink:href="#mf1bd6bffaf" y="211.784091"/>
     <use style="fill:#c44e52;stroke:#c44e52;" x="147.781818" xlink:href="#mf1bd6bffaf" y="201.888516"/>
     <use style="fill:#c44e52;stroke:#c44e52;" x="149.585455" xlink:href="#mf1bd6bffaf" y="194.681308"/>
     <use style="fill:#c44e52;stroke:#c44e52;" x="151.389091" xlink:href="#mf1bd6bffaf" y="190.419869"/>
     <use style="fill:#c44e52;stroke:#c44e52;" x="153.192727" xlink:href="#mf1bd6bffaf" y="188.960681"/>
     <use style="fill:#c44e52;stroke:#c44e52;" x="154.996364" xlink:href="#mf1bd6bffaf" y="189.816444"/>
     <use style="fill:#c44e52;stroke:#c44e52;" x="156.8" xlink:href="#mf1bd6bffaf" y="192.250374"/>
     <use style="fill:#c44e52;stroke:#c44e52;" x="158.603636" xlink:href="#mf1bd6bffaf" y="195.394326"/>
     <use style="fill:#c44e52;stroke:#c44e52;" x="160.407273" xlink:href="#mf1bd6bffaf" y="198.375101"/>
     <use style="fill:#c44e52;stroke:#c44e52;" x="162.210909" xlink:href="#mf1bd6bffaf" y="200.432984"/>
     <use style="fill:#c44e52;stroke:#c44e52;" x="164.014545" xlink:href="#mf1bd6bffaf" y="201.018207"/>
     <use style="fill:#c44e52;stroke:#c44e52;" x="165.818182" xlink:href="#mf1bd6bffaf" y="199.854329"/>
     <use style="fill:#c44e52;stroke:#c44e52;" x="167.621818" xlink:href="#mf1bd6bffaf" y="196.962114"/>
     <use style="fill:#c44e52;stroke:#c44e52;" x="169.425455" xlink:href="#mf1bd6bffaf" y="192.642668"/>
     <use style="fill:#c44e52;stroke:#c44e52;" x="171.229091" xlink:href="#mf1bd6bffaf" y="187.423763"/>
     <use style="fill:#c44e52;stroke:#c44e52;" x="173.032727" xlink:href="#mf1bd6bffaf" y="181.977793"/>
     <use style="fill:#c44e52;stroke:#c44e52;" x="174.836364" xlink:href="#mf1bd6bffaf" y="177.023071"/>
     <use style="fill:#c44e52;stroke:#c44e52;" x="176.64" xlink:href="#mf1bd6bffaf" y="173.22192"/>
     <use style="fill:#c44e52;stroke:#c44e52;" x="178.443636" xlink:href="#mf1bd6bffaf" y="171.088948"/>
     <use style="fill:#c44e52;stroke:#c44e52;" x="180.247273" xlink:href="#mf1bd6bffaf" y="170.921168"/>
     <use style="fill:#c44e52;stroke:#c44e52;" x="182.050909" xlink:href="#mf1bd6bffaf" y="172.758477"/>
     <use style="fill:#c44e52;stroke:#c44e52;" x="183.854545" xlink:href="#mf1bd6bffaf" y="176.378852"/>
     <use style="fill:#c44e52;stroke:#c44e52;" x="185.658182" xlink:href="#mf1bd6bffaf" y="181.328046"/>
     <use style="fill:#c44e52;stroke:#c44e52;" x="187.461818" xlink:href="#mf1bd6bffaf" y="186.97916"/>
     <use style="fill:#c44e52;stroke:#c44e52;" x="189.265455" xlink:href="#mf1bd6bffaf" y="192.613732"/>
     <use style="fill:#c44e52;stroke:#c44e52;" x="191.069091" xlink:href="#mf1bd6bffaf" y="197.513483"/>
     <use style="fill:#c44e52;stroke:#c44e52;" x="192.872727" xlink:href="#mf1bd6bffaf" y="201.050754"/>
     <use style="fill:#c44e52;stroke:#c44e52;" x="194.676364" xlink:href="#mf1bd6bffaf" y="202.766129"/>
     <use style="fill:#c44e52;stroke:#c44e52;" x="196.48" xlink:href="#mf1bd6bffaf" y="202.423688"/>
     <use style="fill:#c44e52;stroke:#c44e52;" x="198.283636" xlink:href="#mf1bd6bffaf" y="200.037392"/>
     <use style="fill:#c44e52;stroke:#c44e52;" x="200.087273" xlink:href="#mf1bd6bffaf" y="195.865959"/>
     <use style="fill:#c44e52;stroke:#c44e52;" x="201.890909" xlink:href="#mf1bd6bffaf" y="190.377622"/>
     <use style="fill:#c44e52;stroke:#c44e52;" x="203.694545" xlink:href="#mf1bd6bffaf" y="184.189943"/>
     <use style="fill:#c44e52;stroke:#c44e52;" x="205.498182" xlink:href="#mf1bd6bffaf" y="177.992875"/>
     <use style="fill:#c44e52;stroke:#c44e52;" x="207.301818" xlink:href="#mf1bd6bffaf" y="172.465108"/>
     <use style="fill:#c44e52;stroke:#c44e52;" x="209.105455" xlink:href="#mf1bd6bffaf" y="168.194319"/>
     <use style="fill:#c44e52;stroke:#c44e52;" x="210.909091" xlink:href="#mf1bd6bffaf" y="165.611084"/>
     <use style="fill:#c44e52;stroke:#c44e52;" x="212.712727" xlink:href="#mf1bd6bffaf" y="164.944229"/>
     <use style="fill:#c44e52;stroke:#c44e52;" x="214.516364" xlink:href="#mf1bd6bffaf" y="166.202371"/>
     <use style="fill:#c44e52;stroke:#c44e52;" x="216.32" xlink:href="#mf1bd6bffaf" y="169.18301"/>
     <use style="fill:#c44e52;stroke:#c44e52;" x="218.123636" xlink:href="#mf1bd6bffaf" y="173.506923"/>
     <use style="fill:#c44e52;stroke:#c44e52;" x="219.927273" xlink:href="#mf1bd6bffaf" y="178.672588"/>
     <use style="fill:#c44e52;stroke:#c44e52;" x="221.730909" xlink:href="#mf1bd6bffaf" y="184.122954"/>
     <use style="fill:#c44e52;stroke:#c44e52;" x="223.534545" xlink:href="#mf1bd6bffaf" y="189.315662"/>
     <use style="fill:#c44e52;stroke:#c44e52;" x="225.338182" xlink:href="#mf1bd6bffaf" y="193.787731"/>
     <use style="fill:#c44e52;stroke:#c44e52;" x="227.141818" xlink:href="#mf1bd6bffaf" y="197.206801"/>
     <use style="fill:#c44e52;stroke:#c44e52;" x="228.945455" xlink:href="#mf1bd6bffaf" y="199.403111"/>
     <use style="fill:#c44e52;stroke:#c44e52;" x="230.749091" xlink:href="#mf1bd6bffaf" y="200.379083"/>
     <use style="fill:#c44e52;stroke:#c44e52;" x="232.552727" xlink:href="#mf1bd6bffaf" y="200.29647"/>
     <use style="fill:#c44e52;stroke:#c44e52;" x="234.356364" xlink:href="#mf1bd6bffaf" y="199.443871"/>
     <use style="fill:#c44e52;stroke:#c44e52;" x="236.16" xlink:href="#mf1bd6bffaf" y="198.189909"/>
     <use style="fill:#c44e52;stroke:#c44e52;" x="237.963636" xlink:href="#mf1bd6bffaf" y="196.928923"/>
     <use style="fill:#c44e52;stroke:#c44e52;" x="239.767273" xlink:href="#mf1bd6bffaf" y="196.026738"/>
     <use style="fill:#c44e52;stroke:#c44e52;" x="241.570909" xlink:href="#mf1bd6bffaf" y="195.773664"/>
     <use style="fill:#c44e52;stroke:#c44e52;" x="243.374545" xlink:href="#mf1bd6bffaf" y="196.350578"/>
     <use style="fill:#c44e52;stroke:#c44e52;" x="245.178182" xlink:href="#mf1bd6bffaf" y="197.811897"/>
     <use style="fill:#c44e52;stroke:#c44e52;" x="246.981818" xlink:href="#mf1bd6bffaf" y="200.086795"/>
     <use style="fill:#c44e52;stroke:#c44e52;" x="248.785455" xlink:href="#mf1bd6bffaf" y="202.997476"/>
     <use style="fill:#c44e52;stroke:#c44e52;" x="250.589091" xlink:href="#mf1bd6bffaf" y="206.29105"/>
     <use style="fill:#c44e52;stroke:#c44e52;" x="252.392727" xlink:href="#mf1bd6bffaf" y="209.679848"/>
     <use style="fill:#c44e52;stroke:#c44e52;" x="254.196364" xlink:href="#mf1bd6bffaf" y="212.884105"/>
     <use style="fill:#c44e52;stroke:#c44e52;" x="256" xlink:href="#mf1bd6bffaf" y="215.670889"/>
     <use style="fill:#c44e52;stroke:#c44e52;" x="257.803636" xlink:href="#mf1bd6bffaf" y="217.883951"/>
     <use style="fill:#c44e52;stroke:#c44e52;" x="259.607273" xlink:href="#mf1bd6bffaf" y="219.460701"/>
     <use style="fill:#c44e52;stroke:#c44e52;" x="261.410909" xlink:href="#mf1bd6bffaf" y="220.434489"/>
     <use style="fill:#c44e52;stroke:#c44e52;" x="263.214545" xlink:href="#mf1bd6bffaf" y="220.92255"/>
     <use style="fill:#c44e52;stroke:#c44e52;" x="265.018182" xlink:href="#mf1bd6bffaf" y="221.102003"/>
     <use style="fill:#c44e52;stroke:#c44e52;" x="266.821818" xlink:href="#mf1bd6bffaf" y="221.177938"/>
     <use style="fill:#c44e52;stroke:#c44e52;" x="268.625455" xlink:href="#mf1bd6bffaf" y="221.34861"/>
     <use style="fill:#c44e52;stroke:#c44e52;" x="270.429091" xlink:href="#mf1bd6bffaf" y="221.773036"/>
     <use style="fill:#c44e52;stroke:#c44e52;" x="272.232727" xlink:href="#mf1bd6bffaf" y="222.545742"/>
     <use style="fill:#c44e52;stroke:#c44e52;" x="274.036364" xlink:href="#mf1bd6bffaf" y="223.682259"/>
     <use style="fill:#c44e52;stroke:#c44e52;" x="275.84" xlink:href="#mf1bd6bffaf" y="225.117266"/>
     <use style="fill:#c44e52;stroke:#c44e52;" x="277.643636" xlink:href="#mf1bd6bffaf" y="226.715385"/>
     <use style="fill:#c44e52;stroke:#c44e52;" x="279.447273" xlink:href="#mf1bd6bffaf" y="228.292763"/>
     <use style="fill:#c44e52;stroke:#c44e52;" x="281.250909" xlink:href="#mf1bd6bffaf" y="229.64603"/>
     <use style="fill:#c44e52;stroke:#c44e52;" x="283.054545" xlink:href="#mf1bd6bffaf" y="230.584176"/>
     <use style="fill:#c44e52;stroke:#c44e52;" x="284.858182" xlink:href="#mf1bd6bffaf" y="230.95854"/>
     <use style="fill:#c44e52;stroke:#c44e52;" x="286.661818" xlink:href="#mf1bd6bffaf" y="230.686451"/>
     <use style="fill:#c44e52;stroke:#c44e52;" x="288.465455" xlink:href="#mf1bd6bffaf" y="229.765033"/>
     <use style="fill:#c44e52;stroke:#c44e52;" x="290.269091" xlink:href="#mf1bd6bffaf" y="228.273174"/>
     <use style="fill:#c44e52;stroke:#c44e52;" x="292.072727" xlink:href="#mf1bd6bffaf" y="226.361426"/>
     <use style="fill:#c44e52;stroke:#c44e52;" x="293.876364" xlink:href="#mf1bd6bffaf" y="224.231354"/>
     <use style="fill:#c44e52;stroke:#c44e52;" x="295.68" xlink:href="#mf1bd6bffaf" y="222.107395"/>
     <use style="fill:#c44e52;stroke:#c44e52;" x="297.483636" xlink:href="#mf1bd6bffaf" y="220.205379"/>
     <use style="fill:#c44e52;stroke:#c44e52;" x="299.287273" xlink:href="#mf1bd6bffaf" y="218.702291"/>
     <use style="fill:#c44e52;stroke:#c44e52;" x="301.090909" xlink:href="#mf1bd6bffaf" y="217.711686"/>
     <use style="fill:#c44e52;stroke:#c44e52;" x="302.894545" xlink:href="#mf1bd6bffaf" y="217.268319"/>
     <use style="fill:#c44e52;stroke:#c44e52;" x="304.698182" xlink:href="#mf1bd6bffaf" y="217.324164"/>
     <use style="fill:#c44e52;stroke:#c44e52;" x="306.501818" xlink:href="#mf1bd6bffaf" y="217.756394"/>
     <use style="fill:#c44e52;stroke:#c44e52;" x="308.305455" xlink:href="#mf1bd6bffaf" y="218.38609"/>
     <use style="fill:#c44e52;stroke:#c44e52;" x="310.109091" xlink:href="#mf1bd6bffaf" y="219.004933"/>
     <use style="fill:#c44e52;stroke:#c44e52;" x="311.912727" xlink:href="#mf1bd6bffaf" y="219.405961"/>
     <use style="fill:#c44e52;stroke:#c44e52;" x="313.716364" xlink:href="#mf1bd6bffaf" y="219.4139"/>
     <use style="fill:#c44e52;stroke:#c44e52;" x="315.52" xlink:href="#mf1bd6bffaf" y="218.910631"/>
     <use style="fill:#c44e52;stroke:#c44e52;" x="317.323636" xlink:href="#mf1bd6bffaf" y="217.852096"/>
     <use style="fill:#c44e52;stroke:#c44e52;" x="319.127273" xlink:href="#mf1bd6bffaf" y="216.274168"/>
     <use style="fill:#c44e52;stroke:#c44e52;" x="320.930909" xlink:href="#mf1bd6bffaf" y="214.286652"/>
     <use style="fill:#c44e52;stroke:#c44e52;" x="322.734545" xlink:href="#mf1bd6bffaf" y="212.05631"/>
     <use style="fill:#c44e52;stroke:#c44e52;" x="324.538182" xlink:href="#mf1bd6bffaf" y="209.781412"/>
     <use style="fill:#c44e52;stroke:#c44e52;" x="326.341818" xlink:href="#mf1bd6bffaf" y="207.661599"/>
     <use style="fill:#c44e52;stroke:#c44e52;" x="328.145455" xlink:href="#mf1bd6bffaf" y="205.867523"/>
     <use style="fill:#c44e52;stroke:#c44e52;" x="329.949091" xlink:href="#mf1bd6bffaf" y="204.514827"/>
     <use style="fill:#c44e52;stroke:#c44e52;" x="331.752727" xlink:href="#mf1bd6bffaf" y="203.646409"/>
     <use style="fill:#c44e52;stroke:#c44e52;" x="333.556364" xlink:href="#mf1bd6bffaf" y="203.225732"/>
     <use style="fill:#c44e52;stroke:#c44e52;" x="335.36" xlink:href="#mf1bd6bffaf" y="203.142348"/>
     <use style="fill:#c44e52;stroke:#c44e52;" x="337.163636" xlink:href="#mf1bd6bffaf" y="203.229017"/>
     <use style="fill:#c44e52;stroke:#c44e52;" x="338.967273" xlink:href="#mf1bd6bffaf" y="203.288052"/>
     <use style="fill:#c44e52;stroke:#c44e52;" x="340.770909" xlink:href="#mf1bd6bffaf" y="203.123139"/>
     <use style="fill:#c44e52;stroke:#c44e52;" x="342.574545" xlink:href="#mf1bd6bffaf" y="202.57197"/>
     <use style="fill:#c44e52;stroke:#c44e52;" x="344.378182" xlink:href="#mf1bd6bffaf" y="201.534809"/>
     <use style="fill:#c44e52;stroke:#c44e52;" x="346.181818" xlink:href="#mf1bd6bffaf" y="199.994586"/>
     <use style="fill:#c44e52;stroke:#c44e52;" x="347.985455" xlink:href="#mf1bd6bffaf" y="198.02524"/>
     <use style="fill:#c44e52;stroke:#c44e52;" x="349.789091" xlink:href="#mf1bd6bffaf" y="195.786655"/>
     <use style="fill:#c44e52;stroke:#c44e52;" x="351.592727" xlink:href="#mf1bd6bffaf" y="193.506436"/>
     <use style="fill:#c44e52;stroke:#c44e52;" x="353.396364" xlink:href="#mf1bd6bffaf" y="191.450696"/>
     <use style="fill:#c44e52;stroke:#c44e52;" x="355.2" xlink:href="#mf1bd6bffaf" y="189.887677"/>
     <use style="fill:#c44e52;stroke:#c44e52;" x="357.003636" xlink:href="#mf1bd6bffaf" y="189.049192"/>
     <use style="fill:#c44e52;stroke:#c44e52;" x="358.807273" xlink:href="#mf1bd6bffaf" y="189.095353"/>
     <use style="fill:#c44e52;stroke:#c44e52;" x="360.610909" xlink:href="#mf1bd6bffaf" y="190.087778"/>
     <use style="fill:#c44e52;stroke:#c44e52;" x="362.414545" xlink:href="#mf1bd6bffaf" y="191.975458"/>
     <use style="fill:#c44e52;stroke:#c44e52;" x="364.218182" xlink:href="#mf1bd6bffaf" y="194.595811"/>
     <use style="fill:#c44e52;stroke:#c44e52;" x="366.021818" xlink:href="#mf1bd6bffaf" y="197.69143"/>
     <use style="fill:#c44e52;stroke:#c44e52;" x="367.825455" xlink:href="#mf1bd6bffaf" y="200.940852"/>
     <use style="fill:#c44e52;stroke:#c44e52;" x="369.629091" xlink:href="#mf1bd6bffaf" y="203.999657"/>
     <use style="fill:#c44e52;stroke:#c44e52;" x="371.432727" xlink:href="#mf1bd6bffaf" y="206.546648"/>
     <use style="fill:#c44e52;stroke:#c44e52;" x="373.236364" xlink:href="#mf1bd6bffaf" y="208.328978"/>
     <use style="fill:#c44e52;stroke:#c44e52;" x="375.04" xlink:href="#mf1bd6bffaf" y="209.199985"/>
     <use style="fill:#c44e52;stroke:#c44e52;" x="376.843636" xlink:href="#mf1bd6bffaf" y="209.144289"/>
     <use style="fill:#c44e52;stroke:#c44e52;" x="378.647273" xlink:href="#mf1bd6bffaf" y="208.28622"/>
     <use style="fill:#c44e52;stroke:#c44e52;" x="380.450909" xlink:href="#mf1bd6bffaf" y="206.879743"/>
     <use style="fill:#c44e52;stroke:#c44e52;" x="382.254545" xlink:href="#mf1bd6bffaf" y="205.280497"/>
     <use style="fill:#c44e52;stroke:#c44e52;" x="384.058182" xlink:href="#mf1bd6bffaf" y="203.90293"/>
     <use style="fill:#c44e52;stroke:#c44e52;" x="385.861818" xlink:href="#mf1bd6bffaf" y="203.167644"/>
     <use style="fill:#c44e52;stroke:#c44e52;" x="387.665455" xlink:href="#mf1bd6bffaf" y="203.445503"/>
     <use style="fill:#c44e52;stroke:#c44e52;" x="389.469091" xlink:href="#mf1bd6bffaf" y="205.005705"/>
     <use style="fill:#c44e52;stroke:#c44e52;" x="391.272727" xlink:href="#mf1bd6bffaf" y="207.974763"/>
     <use style="fill:#c44e52;stroke:#c44e52;" x="393.076364" xlink:href="#mf1bd6bffaf" y="212.312105"/>
     <use style="fill:#c44e52;stroke:#c44e52;" x="394.88" xlink:href="#mf1bd6bffaf" y="217.806057"/>
     <use style="fill:#c44e52;stroke:#c44e52;" x="396.683636" xlink:href="#mf1bd6bffaf" y="224.091434"/>
     <use style="fill:#c44e52;stroke:#c44e52;" x="398.487273" xlink:href="#mf1bd6bffaf" y="230.687243"/>
    </g>
   </g>
   <g id="patch_3">
    <path d="M 57.6 280.9728 
L 57.6 41.472 
" style="fill:none;stroke:#000000;stroke-linecap:square;stroke-linejoin:miter;stroke-width:0.8;"/>
   </g>
   <g id="patch_4">
    <path d="M 414.72 280.9728 
L 414.72 41.472 
" style="fill:none;stroke:#000000;stroke-linecap:square;stroke-linejoin:miter;stroke-width:0.8;"/>
   </g>
   <g id="patch_5">
    <path d="M 57.6 280.9728 
L 414.72 280.9728 
" style="fill:none;stroke:#000000;stroke-linecap:square;stroke-linejoin:miter;stroke-width:0.8;"/>
   </g>
   <g id="patch_6">
    <path d="M 57.6 41.472 
L 414.72 41.472 
" style="fill:none;stroke:#000000;stroke-linecap:square;stroke-linejoin:miter;stroke-width:0.8;"/>
   </g>
   <g id="legend_1">
    <g id="patch_7">
     <path d="M 170.595937 341.576045 
L 305.724063 341.576045 
Q 307.724063 341.576045 307.724063 339.576045 
L 307.724063 325.89792 
Q 307.724063 323.89792 305.724063 323.89792 
L 170.595937 323.89792 
Q 168.595937 323.89792 168.595937 325.89792 
L 168.595937 339.576045 
Q 168.595937 341.576045 170.595937 341.576045 
z
" style="fill:#4c4c4c;opacity:0.5;stroke:#4c4c4c;stroke-linejoin:miter;"/>
    </g>
    <g id="patch_8">
     <path d="M 168.595937 339.576045 
L 303.724063 339.576045 
Q 305.724063 339.576045 305.724063 337.576045 
L 305.724063 323.89792 
Q 305.724063 321.89792 303.724063 321.89792 
L 168.595937 321.89792 
Q 166.595937 321.89792 166.595937 323.89792 
L 166.595937 337.576045 
Q 166.595937 339.576045 168.595937 339.576045 
z
" style="fill:#ffffff;opacity:0.8;stroke:#cccccc;stroke-linejoin:miter;"/>
    </g>
    <g id="line2d_29">
     <path d="M 170.595937 329.996357 
L 190.595937 329.996357 
" style="fill:none;stroke:#c44e52;stroke-dasharray:5.55,2.4;stroke-dashoffset:0;stroke-width:1.5;"/>
    </g>
    <g id="line2d_30"/>
    <g id="text_16">
     <!-- s2 direct -->
     <defs>
      <path d="M 48.78125 52.59375 
L 48.78125 44.1875 
Q 44.96875 46.296875 41.140625 47.34375 
Q 37.3125 48.390625 33.40625 48.390625 
Q 24.65625 48.390625 19.8125 42.84375 
Q 14.984375 37.3125 14.984375 27.296875 
Q 14.984375 17.28125 19.8125 11.734375 
Q 24.65625 6.203125 33.40625 6.203125 
Q 37.3125 6.203125 41.140625 7.25 
Q 44.96875 8.296875 48.78125 10.40625 
L 48.78125 2.09375 
Q 45.015625 0.34375 40.984375 -0.53125 
Q 36.96875 -1.421875 32.421875 -1.421875 
Q 20.0625 -1.421875 12.78125 6.34375 
Q 5.515625 14.109375 5.515625 27.296875 
Q 5.515625 40.671875 12.859375 48.328125 
Q 20.21875 56 33.015625 56 
Q 37.15625 56 41.109375 55.140625 
Q 45.0625 54.296875 48.78125 52.59375 
z
" id="DejaVuSans-63"/>
     </defs>
     <g style="fill:#1a1a1a;" transform="translate(198.595937 333.496357)scale(0.1 -0.1)">
      <use xlink:href="#DejaVuSans-73"/>
      <use x="52.099609" xlink:href="#DejaVuSans-32"/>
      <use x="115.722656" xlink:href="#DejaVuSans-20"/>
      <use x="147.509766" xlink:href="#DejaVuSans-64"/>
      <use x="210.986328" xlink:href="#DejaVuSans-69"/>
      <use x="238.769531" xlink:href="#DejaVuSans-72"/>
      <use x="279.851562" xlink:href="#DejaVuSans-65"/>
      <use x="341.375" xlink:href="#DejaVuSans-63"/>
      <use x="396.355469" xlink:href="#DejaVuSans-74"/>
     </g>
    </g>
    <g id="line2d_31">
     <path d="M 262.152187 329.996357 
L 282.152187 329.996357 
" style="fill:none;stroke:#c44e52;stroke-linecap:square;stroke-width:1.5;"/>
    </g>
    <g id="line2d_32">
     <g>
      <use style="fill:#c44e52;stroke:#c44e52;" x="272.152187" xlink:href="#mf1bd6bffaf" y="329.996357"/>
     </g>
    </g>
    <g id="text_17">
     <!-- s2 -->
     <g style="fill:#1a1a1a;" transform="translate(290.152187 333.496357)scale(0.1 -0.1)">
      <use xlink:href="#DejaVuSans-73"/>
      <use x="52.099609" xlink:href="#DejaVuSans-32"/>
     </g>
    </g>
   </g>
  </g>
 </g>
 <defs>
  <clipPath id="p5470ecc24d">
   <rect height="239.5008" width="357.12" x="57.6" y="41.472"/>
  </clipPath>
 </defs>
</svg>
