<?xml version="1.0" encoding="UTF-8" standalone="no"?>
<svg
   xmlns:dc="http://purl.org/dc/elements/1.1/"
   xmlns:cc="http://creativecommons.org/ns#"
   xmlns:rdf="http://www.w3.org/1999/02/22-rdf-syntax-ns#"
   xmlns:svg="http://www.w3.org/2000/svg"
   xmlns="http://www.w3.org/2000/svg"
   xmlns:sodipodi="http://sodipodi.sourceforge.net/DTD/sodipodi-0.dtd"
   xmlns:inkscape="http://www.inkscape.org/namespaces/inkscape"
   width="309.42pt"
   height="108.69pt"
   viewBox="0 0 309.42 108.69"
   version="1.2"
   id="svg1040"
   sodipodi:docname="inria.svg"
   inkscape:version="0.92.3 (2405546, 2018-03-11)">
  <metadata
     id="metadata1046">
    <rdf:RDF>
      <cc:Work
         rdf:about="">
        <dc:format>image/svg+xml</dc:format>
        <dc:type
           rdf:resource="http://purl.org/dc/dcmitype/StillImage" />
        <dc:title></dc:title>
      </cc:Work>
    </rdf:RDF>
  </metadata>
  <defs
     id="defs1044" />
  <sodipodi:namedview
     pagecolor="#ffffff"
     bordercolor="#666666"
     borderopacity="1"
     objecttolerance="10"
     gridtolerance="10"
     guidetolerance="10"
     inkscape:pageopacity="0"
     inkscape:pageshadow="2"
     inkscape:window-width="1853"
     inkscape:window-height="1052"
     id="namedview1042"
     showgrid="false"
     inkscape:zoom="3.1020384"
     inkscape:cx="206.28001"
     inkscape:cy="72.460002"
     inkscape:window-x="67"
     inkscape:window-y="0"
     inkscape:window-maximized="1"
     inkscape:current-layer="surface5225" />
  <g
     id="surface5225">
    <path
       style=" stroke:none;fill-rule:nonzero;fill:rgb(18.788147%,23.35968%,32.266235%);fill-opacity:1;"
       d="M 98.328125 50.328125 L 98.328125 43.226562 L 99.9375 43.226562 L 99.9375 50.328125 Z M 98.285156 41.878906 L 98.285156 40.214844 L 99.980469 40.214844 L 99.980469 41.878906 L 98.285156 41.878906 "
       id="path987" />
    <path
       style=" stroke:none;fill-rule:nonzero;fill:rgb(18.788147%,23.35968%,32.266235%);fill-opacity:1;"
       d="M 103.410156 45.410156 L 103.410156 50.328125 L 101.800781 50.328125 L 101.800781 43.226562 L 103.328125 43.226562 L 103.328125 44.179688 C 104.210938 43.40625 104.953125 43.085938 105.765625 43.085938 C 107.121094 43.085938 107.851562 43.996094 107.851562 45.566406 L 107.851562 50.328125 L 106.238281 50.328125 L 106.238281 45.761719 C 106.238281 44.960938 105.933594 44.585938 105.273438 44.585938 C 104.796875 44.585938 104.238281 44.765625 103.410156 45.410156 "
       id="path989" />
    <path
       style=" stroke:none;fill-rule:nonzero;fill:rgb(18.788147%,23.35968%,32.266235%);fill-opacity:1;"
       d="M 111.515625 44.625 L 111.515625 50.328125 L 109.90625 50.328125 L 109.90625 44.625 L 108.757812 44.625 L 108.757812 43.226562 L 109.90625 43.226562 L 109.90625 42.484375 C 109.90625 40.929688 110.648438 39.820312 112.386719 39.820312 C 113.015625 39.820312 113.730469 39.960938 114.273438 40.171875 L 113.882812 41.558594 C 113.421875 41.40625 113.015625 41.335938 112.679688 41.335938 C 111.921875 41.335938 111.515625 41.613281 111.515625 42.484375 L 111.515625 43.226562 L 113.730469 43.226562 L 113.730469 44.625 L 111.515625 44.625 "
       id="path991" />
    <path
       style=" stroke:none;fill-rule:nonzero;fill:rgb(18.788147%,23.35968%,32.266235%);fill-opacity:1;"
       d="M 117.257812 44.527344 C 116.316406 44.527344 115.800781 45.214844 115.800781 46.347656 L 115.800781 47.191406 C 115.800781 48.324219 116.316406 49.023438 117.257812 49.023438 C 118.195312 49.023438 118.714844 48.324219 118.714844 47.191406 L 118.714844 46.347656 C 118.714844 45.214844 118.195312 44.527344 117.257812 44.527344 Z M 120.367188 47.191406 C 120.367188 49.179688 119.234375 50.46875 117.257812 50.46875 C 115.269531 50.46875 114.148438 49.179688 114.148438 47.191406 L 114.148438 46.347656 C 114.148438 44.375 115.253906 43.085938 117.257812 43.085938 C 119.246094 43.085938 120.367188 44.375 120.367188 46.347656 L 120.367188 47.191406 "
       id="path993" />
    <path
       style=" stroke:none;fill-rule:nonzero;fill:rgb(18.788147%,23.35968%,32.266235%);fill-opacity:1;"
       d="M 123.429688 45.550781 L 123.429688 50.328125 L 121.820312 50.328125 L 121.820312 43.226562 L 123.347656 43.226562 L 123.347656 44.316406 C 124.300781 43.421875 124.972656 43.085938 125.824219 43.085938 L 125.824219 44.695312 C 124.941406 44.695312 124.160156 44.960938 123.429688 45.550781 "
       id="path995" />
    <path
       style=" stroke:none;fill-rule:nonzero;fill:rgb(18.788147%,23.35968%,32.266235%);fill-opacity:1;"
       d="M 128.5 50.328125 L 126.886719 50.328125 L 126.886719 43.226562 L 128.414062 43.226562 L 128.414062 44.164062 C 129.28125 43.40625 129.996094 43.085938 130.78125 43.085938 C 131.648438 43.085938 132.253906 43.492188 132.5625 44.234375 C 133.484375 43.421875 134.257812 43.085938 135.082031 43.085938 C 136.386719 43.085938 137.101562 43.996094 137.101562 45.566406 L 137.101562 50.328125 L 135.488281 50.328125 L 135.488281 45.761719 C 135.488281 44.960938 135.195312 44.585938 134.59375 44.585938 C 134.128906 44.585938 133.597656 44.765625 132.800781 45.410156 L 132.800781 50.328125 L 131.1875 50.328125 L 131.1875 45.761719 C 131.1875 44.960938 130.894531 44.585938 130.292969 44.585938 C 129.828125 44.585938 129.296875 44.765625 128.5 45.410156 L 128.5 50.328125 "
       id="path997" />
    <path
       style=" stroke:none;fill-rule:nonzero;fill:rgb(18.788147%,23.35968%,32.266235%);fill-opacity:1;"
       d="M 140.511719 49.121094 C 140.933594 49.121094 141.4375 48.996094 142.289062 48.171875 L 142.289062 47.566406 C 141.800781 47.484375 141.324219 47.441406 140.859375 47.441406 C 140.132812 47.441406 139.851562 47.75 139.851562 48.308594 C 139.851562 48.816406 140.078125 49.121094 140.511719 49.121094 Z M 142.484375 49.375 C 141.6875 50.117188 140.972656 50.46875 140.117188 50.46875 C 138.871094 50.46875 138.296875 49.570312 138.296875 48.339844 C 138.296875 47.105469 138.898438 46.25 140.75 46.25 C 141.238281 46.25 141.757812 46.320312 142.289062 46.417969 L 142.289062 45.59375 C 142.289062 44.808594 141.828125 44.570312 141.101562 44.570312 C 140.539062 44.570312 139.867188 44.710938 139.109375 45.03125 L 138.648438 43.660156 C 139.613281 43.269531 140.441406 43.085938 141.210938 43.085938 C 143.285156 43.085938 143.832031 44.277344 143.832031 45.59375 L 143.832031 48.324219 C 143.832031 48.605469 143.957031 48.914062 144.417969 48.914062 L 144.574219 48.914062 L 144.574219 50.398438 L 144.25 50.398438 C 143.300781 50.398438 142.738281 49.949219 142.484375 49.375 "
       id="path999" />
    <path
       style=" stroke:none;fill-rule:nonzero;fill:rgb(18.788147%,23.35968%,32.266235%);fill-opacity:1;"
       d="M 148.085938 50.46875 C 146.445312 50.46875 145.859375 49.375 145.859375 47.820312 L 145.859375 44.625 L 144.710938 44.625 L 144.710938 43.226562 L 145.859375 43.226562 L 145.859375 41.375 L 147.46875 41.375 L 147.46875 43.226562 L 149.683594 43.226562 L 149.683594 44.625 L 147.46875 44.625 L 147.46875 47.820312 C 147.46875 48.6875 147.804688 48.953125 148.421875 48.953125 C 148.714844 48.953125 149.050781 48.898438 149.484375 48.730469 L 149.890625 50.089844 C 149.402344 50.3125 148.742188 50.46875 148.085938 50.46875 "
       id="path1001" />
    <path
       style=" stroke:none;fill-rule:nonzero;fill:rgb(18.788147%,23.35968%,32.266235%);fill-opacity:1;"
       d="M 150.828125 50.328125 L 150.828125 43.226562 L 152.4375 43.226562 L 152.4375 50.328125 Z M 150.785156 41.878906 L 150.785156 40.214844 L 152.480469 40.214844 L 152.480469 41.878906 L 150.785156 41.878906 "
       id="path1003" />
    <path
       style=" stroke:none;fill-rule:nonzero;fill:rgb(18.788147%,23.35968%,32.266235%);fill-opacity:1;"
       d="M 155.53125 47.191406 C 155.53125 48.394531 155.9375 48.984375 156.890625 48.984375 C 157.351562 48.984375 157.941406 48.871094 158.640625 48.605469 L 159.105469 49.964844 C 158.261719 50.300781 157.535156 50.46875 156.808594 50.46875 C 154.929688 50.46875 153.921875 49.179688 153.921875 47.191406 L 153.921875 46.363281 C 153.921875 44.375 154.929688 43.085938 156.808594 43.085938 C 157.507812 43.085938 158.222656 43.253906 159.03125 43.574219 L 158.570312 44.960938 C 157.886719 44.695312 157.339844 44.570312 156.890625 44.570312 C 155.9375 44.570312 155.53125 45.160156 155.53125 46.363281 L 155.53125 47.191406 "
       id="path1005" />
    <path
       style=" stroke:none;fill-rule:nonzero;fill:rgb(18.788147%,23.35968%,32.266235%);fill-opacity:1;"
       d="M 163.398438 48.367188 C 163.398438 47.960938 163.148438 47.765625 162.40625 47.566406 L 161.609375 47.359375 C 160.375 47.035156 159.800781 46.265625 159.800781 45.230469 C 159.800781 44.023438 160.613281 43.085938 162.378906 43.085938 C 163.09375 43.085938 163.878906 43.238281 164.730469 43.617188 L 164.269531 44.992188 C 163.484375 44.613281 162.855469 44.484375 162.363281 44.484375 C 161.71875 44.484375 161.367188 44.695312 161.367188 45.160156 C 161.367188 45.507812 161.550781 45.691406 162.195312 45.859375 L 162.992188 46.070312 C 164.355469 46.433594 164.953125 47.148438 164.953125 48.253906 C 164.953125 49.558594 164.101562 50.46875 162.195312 50.46875 C 161.382812 50.46875 160.542969 50.285156 159.632812 49.90625 L 160.066406 48.578125 C 160.949219 48.925781 161.648438 49.066406 162.210938 49.066406 C 162.898438 49.066406 163.398438 48.84375 163.398438 48.367188 "
       id="path1007" />
    <path
       style=" stroke:none;fill-rule:nonzero;fill:rgb(18.788147%,23.35968%,32.266235%);fill-opacity:1;"
       d="M 204.679688 50.328125 L 203.066406 50.328125 L 203.066406 43.226562 L 204.597656 43.226562 L 204.597656 44.164062 C 205.464844 43.40625 206.179688 43.085938 206.964844 43.085938 C 207.832031 43.085938 208.433594 43.492188 208.742188 44.234375 C 209.664062 43.421875 210.4375 43.085938 211.261719 43.085938 C 212.566406 43.085938 213.28125 43.996094 213.28125 45.566406 L 213.28125 50.328125 L 211.667969 50.328125 L 211.667969 45.761719 C 211.667969 44.960938 211.375 44.585938 210.773438 44.585938 C 210.3125 44.585938 209.777344 44.765625 208.980469 45.410156 L 208.980469 50.328125 L 207.367188 50.328125 L 207.367188 45.761719 C 207.367188 44.960938 207.074219 44.585938 206.472656 44.585938 C 206.011719 44.585938 205.476562 44.765625 204.679688 45.410156 L 204.679688 50.328125 "
       id="path1009" />
    <path
       style=" stroke:none;fill-rule:nonzero;fill:rgb(18.788147%,23.35968%,32.266235%);fill-opacity:1;"
       d="M 216.691406 49.121094 C 217.113281 49.121094 217.617188 48.996094 218.472656 48.171875 L 218.472656 47.566406 C 217.980469 47.484375 217.503906 47.441406 217.042969 47.441406 C 216.3125 47.441406 216.03125 47.75 216.03125 48.308594 C 216.03125 48.816406 216.257812 49.121094 216.691406 49.121094 Z M 218.667969 49.375 C 217.867188 50.117188 217.152344 50.46875 216.300781 50.46875 C 215.054688 50.46875 214.480469 49.570312 214.480469 48.339844 C 214.480469 47.105469 215.082031 46.25 216.929688 46.25 C 217.421875 46.25 217.9375 46.320312 218.472656 46.417969 L 218.472656 45.59375 C 218.472656 44.808594 218.007812 44.570312 217.28125 44.570312 C 216.71875 44.570312 216.046875 44.710938 215.289062 45.03125 L 214.828125 43.660156 C 215.796875 43.269531 216.621094 43.085938 217.394531 43.085938 C 219.464844 43.085938 220.011719 44.277344 220.011719 45.59375 L 220.011719 48.324219 C 220.011719 48.605469 220.136719 48.914062 220.601562 48.914062 L 220.753906 48.914062 L 220.753906 50.398438 L 220.433594 50.398438 C 219.480469 50.398438 218.917969 49.949219 218.667969 49.375 "
       id="path1011" />
    <path
       style=" stroke:none;fill-rule:nonzero;fill:rgb(18.788147%,23.35968%,32.266235%);fill-opacity:1;"
       d="M 224.265625 50.46875 C 222.625 50.46875 222.039062 49.375 222.039062 47.820312 L 222.039062 44.625 L 220.890625 44.625 L 220.890625 43.226562 L 222.039062 43.226562 L 222.039062 41.375 L 223.648438 41.375 L 223.648438 43.226562 L 225.863281 43.226562 L 225.863281 44.625 L 223.648438 44.625 L 223.648438 47.820312 C 223.648438 48.6875 223.984375 48.953125 224.601562 48.953125 C 224.894531 48.953125 225.230469 48.898438 225.664062 48.730469 L 226.070312 50.089844 C 225.582031 50.3125 224.925781 50.46875 224.265625 50.46875 "
       id="path1013" />
    <path
       style=" stroke:none;fill-rule:nonzero;fill:rgb(18.788147%,23.35968%,32.266235%);fill-opacity:1;"
       d="M 228.617188 45.410156 L 228.617188 50.328125 L 227.007812 50.328125 L 227.007812 39.960938 L 228.617188 39.960938 L 228.617188 44.109375 C 229.472656 43.378906 230.1875 43.085938 230.972656 43.085938 C 232.332031 43.085938 233.058594 43.996094 233.058594 45.566406 L 233.058594 50.328125 L 231.449219 50.328125 L 231.449219 45.761719 C 231.449219 44.960938 231.140625 44.585938 230.480469 44.585938 C 230.007812 44.585938 229.445312 44.765625 228.617188 45.410156 "
       id="path1015" />
    <path
       style=" stroke:none;fill-rule:nonzero;fill:rgb(18.788147%,23.35968%,32.266235%);fill-opacity:1;"
       d="M 235.996094 46.042969 L 238.6875 46.042969 C 238.699219 45.957031 238.699219 45.871094 238.699219 45.789062 C 238.699219 44.890625 238.125 44.445312 237.410156 44.445312 C 236.554688 44.445312 236.066406 45.019531 235.996094 46.042969 Z M 237.636719 50.46875 C 235.519531 50.46875 234.425781 49.179688 234.425781 47.191406 L 234.425781 46.347656 C 234.425781 44.375 235.574219 43.085938 237.410156 43.085938 C 238.882812 43.085938 240.28125 43.96875 240.28125 45.957031 C 240.28125 46.347656 240.226562 46.796875 240.101562 47.273438 L 235.980469 47.273438 C 236.011719 48.4375 236.527344 49.011719 237.71875 49.011719 C 238.347656 49.011719 239.035156 48.871094 239.765625 48.5625 L 240.226562 49.921875 C 239.246094 50.3125 238.40625 50.46875 237.636719 50.46875 "
       id="path1017" />
    <path
       style=" stroke:none;fill-rule:nonzero;fill:rgb(18.788147%,23.35968%,32.266235%);fill-opacity:1;"
       d="M 243.390625 50.328125 L 241.777344 50.328125 L 241.777344 43.226562 L 243.304688 43.226562 L 243.304688 44.164062 C 244.171875 43.40625 244.886719 43.085938 245.671875 43.085938 C 246.539062 43.085938 247.144531 43.492188 247.449219 44.234375 C 248.375 43.421875 249.144531 43.085938 249.972656 43.085938 C 251.273438 43.085938 251.988281 43.996094 251.988281 45.566406 L 251.988281 50.328125 L 250.378906 50.328125 L 250.378906 45.761719 C 250.378906 44.960938 250.085938 44.585938 249.480469 44.585938 C 249.019531 44.585938 248.488281 44.765625 247.6875 45.410156 L 247.6875 50.328125 L 246.078125 50.328125 L 246.078125 45.761719 C 246.078125 44.960938 245.78125 44.585938 245.183594 44.585938 C 244.71875 44.585938 244.1875 44.765625 243.390625 45.410156 L 243.390625 50.328125 "
       id="path1019" />
    <path
       style=" stroke:none;fill-rule:nonzero;fill:rgb(18.788147%,23.35968%,32.266235%);fill-opacity:1;"
       d="M 255.398438 49.121094 C 255.820312 49.121094 256.324219 48.996094 257.179688 48.171875 L 257.179688 47.566406 C 256.691406 47.484375 256.214844 47.441406 255.75 47.441406 C 255.023438 47.441406 254.742188 47.75 254.742188 48.308594 C 254.742188 48.816406 254.96875 49.121094 255.398438 49.121094 Z M 257.375 49.375 C 256.578125 50.117188 255.863281 50.46875 255.007812 50.46875 C 253.761719 50.46875 253.1875 49.570312 253.1875 48.339844 C 253.1875 47.105469 253.789062 46.25 255.640625 46.25 C 256.128906 46.25 256.648438 46.320312 257.179688 46.417969 L 257.179688 45.59375 C 257.179688 44.808594 256.71875 44.570312 255.988281 44.570312 C 255.429688 44.570312 254.757812 44.710938 254 45.03125 L 253.539062 43.660156 C 254.503906 43.269531 255.332031 43.085938 256.101562 43.085938 C 258.175781 43.085938 258.722656 44.277344 258.722656 45.59375 L 258.722656 48.324219 C 258.722656 48.605469 258.847656 48.914062 259.308594 48.914062 L 259.464844 48.914062 L 259.464844 50.398438 L 259.140625 50.398438 C 258.1875 50.398438 257.628906 49.949219 257.375 49.375 "
       id="path1021" />
    <path
       style=" stroke:none;fill-rule:nonzero;fill:rgb(18.788147%,23.35968%,32.266235%);fill-opacity:1;"
       d="M 262.976562 50.46875 C 261.335938 50.46875 260.746094 49.375 260.746094 47.820312 L 260.746094 44.625 L 259.597656 44.625 L 259.597656 43.226562 L 260.746094 43.226562 L 260.746094 41.375 L 262.359375 41.375 L 262.359375 43.226562 L 264.570312 43.226562 L 264.570312 44.625 L 262.359375 44.625 L 262.359375 47.820312 C 262.359375 48.6875 262.695312 48.953125 263.3125 48.953125 C 263.605469 48.953125 263.941406 48.898438 264.375 48.730469 L 264.78125 50.089844 C 264.289062 50.3125 263.632812 50.46875 262.976562 50.46875 "
       id="path1023" />
    <path
       style=" stroke:none;fill-rule:nonzero;fill:rgb(18.788147%,23.35968%,32.266235%);fill-opacity:1;"
       d="M 265.71875 50.328125 L 265.71875 43.226562 L 267.328125 43.226562 L 267.328125 50.328125 Z M 265.675781 41.878906 L 265.675781 40.214844 L 267.371094 40.214844 L 267.371094 41.878906 L 265.675781 41.878906 "
       id="path1025" />
    <path
       style=" stroke:none;fill-rule:nonzero;fill:rgb(18.788147%,23.35968%,32.266235%);fill-opacity:1;"
       d="M 270.421875 47.191406 C 270.421875 48.394531 270.828125 48.984375 271.78125 48.984375 C 272.242188 48.984375 272.832031 48.871094 273.53125 48.605469 L 273.992188 49.964844 C 273.152344 50.300781 272.425781 50.46875 271.695312 50.46875 C 269.820312 50.46875 268.8125 49.179688 268.8125 47.191406 L 268.8125 46.363281 C 268.8125 44.375 269.820312 43.085938 271.695312 43.085938 C 272.398438 43.085938 273.109375 43.253906 273.921875 43.574219 L 273.460938 44.960938 C 272.773438 44.695312 272.230469 44.570312 271.78125 44.570312 C 270.828125 44.570312 270.421875 45.160156 270.421875 46.363281 L 270.421875 47.191406 "
       id="path1027" />
    <path
       style=" stroke:none;fill-rule:nonzero;fill:rgb(18.788147%,23.35968%,32.266235%);fill-opacity:1;"
       d="M 278.289062 48.367188 C 278.289062 47.960938 278.039062 47.765625 277.296875 47.566406 L 276.496094 47.359375 C 275.265625 47.035156 274.691406 46.265625 274.691406 45.230469 C 274.691406 44.023438 275.503906 43.085938 277.269531 43.085938 C 277.984375 43.085938 278.765625 43.238281 279.621094 43.617188 L 279.15625 44.992188 C 278.375 44.613281 277.742188 44.484375 277.253906 44.484375 C 276.609375 44.484375 276.257812 44.695312 276.257812 45.160156 C 276.257812 45.507812 276.441406 45.691406 277.085938 45.859375 L 277.882812 46.070312 C 279.242188 46.433594 279.84375 47.148438 279.84375 48.253906 C 279.84375 49.558594 278.988281 50.46875 277.085938 50.46875 C 276.273438 50.46875 275.433594 50.285156 274.523438 49.90625 L 274.957031 48.578125 C 275.839844 48.925781 276.539062 49.066406 277.101562 49.066406 C 277.785156 49.066406 278.289062 48.84375 278.289062 48.367188 "
       id="path1029" />
    <path
       style=" stroke:none;fill-rule:nonzero;fill:rgb(93.536377%,19.630432%,13.647461%);fill-opacity:1;"
       d="M 69.703125 23.6875 C 73.578125 21.351562 77.570312 18.230469 81.152344 14.59375 C 83.953125 11.75 71.628906 13.019531 68.664062 15.550781 C 65.476562 18.277344 62.195312 21.289062 59.195312 24.804688 C 57.441406 26.851562 65.859375 26.003906 69.703125 23.6875 "
       id="path1031" />
    <path
       style=" stroke:none;fill-rule:nonzero;fill:rgb(93.536377%,19.630432%,13.647461%);fill-opacity:1;"
       d="M 188.316406 88.8125 C 178.777344 88.8125 197.882812 67.011719 210.324219 67.011719 C 217.777344 67.011719 197.519531 88.8125 188.316406 88.8125 Z M 292.730469 79.335938 C 276.941406 69.5 233.761719 86.644531 217.382812 88.597656 C 214.316406 88.964844 213.199219 88.1875 213.921875 86.105469 C 215.3125 82.089844 220.785156 74.707031 221.886719 72.160156 C 222.925781 69.734375 222.785156 61.386719 210.4375 61.386719 C 200.347656 61.386719 191.089844 66.070312 184.582031 71.96875 C 178.382812 77.253906 166.375 87.714844 158.980469 87.714844 C 151.324219 87.714844 173.742188 64.589844 174.980469 63.425781 C 178.3125 60.296875 167.808594 61.070312 163.394531 64.433594 C 161.628906 65.773438 154.585938 73.308594 150.175781 80.609375 C 137.429688 89.421875 124.738281 91.464844 130.777344 84.140625 C 133.988281 80.238281 139.417969 75.007812 143.15625 70.867188 C 148.371094 65.082031 147.429688 61.277344 135.914062 61.277344 C 120.5 61.277344 118.867188 62.617188 110.171875 72.800781 C 108.558594 74.695312 109.394531 79.4375 111.058594 77.792969 C 121.492188 67.472656 121.253906 68.3125 135.066406 68.3125 C 132.84375 70.671875 128.886719 73.023438 122.175781 81.542969 C 116.191406 89.144531 120.105469 95.289062 128.601562 95.289062 C 133.296875 95.289062 140.308594 93.085938 146.722656 88.566406 C 145.953125 92.523438 147.542969 95.359375 153.59375 95.359375 C 160.601562 95.359375 168.601562 91.191406 175.230469 86.554688 C 174.402344 91.585938 176.988281 95.359375 184.40625 95.359375 C 190.113281 95.359375 196.761719 93.117188 203.621094 87.171875 C 203.585938 91.714844 206.789062 95.324219 212.765625 95.324219 C 227.316406 95.324219 277.566406 77.074219 295.046875 87.617188 C 297.238281 88.929688 297.140625 82.082031 292.730469 79.335938 "
       id="path1033" />
    <path
       style=" stroke:none;fill-rule:nonzero;fill:rgb(93.536377%,19.630432%,13.647461%);fill-opacity:1;"
       d="M 180.75 55.09375 C 184.621094 52.761719 191.910156 47.105469 195.496094 43.46875 C 198.296875 40.628906 185.96875 41.894531 183.007812 44.425781 C 179.8125 47.15625 174.507812 52.042969 171.507812 55.5625 C 169.757812 57.613281 176.90625 57.40625 180.75 55.09375 "
       id="path1035" />
    <path
       style=" stroke:none;fill-rule:nonzero;fill:rgb(93.536377%,19.630432%,13.647461%);fill-opacity:1;"
       d="M 105.4375 78.316406 C 101.699219 81.964844 93.523438 88.070312 86.375 88.070312 C 81.085938 88.070312 91.617188 78.597656 96.832031 70.960938 C 101.8125 63.664062 97.738281 61.480469 93.628906 61.480469 C 83.449219 61.480469 73.507812 68.625 66.765625 73.648438 C 68.800781 70.921875 71.972656 67.429688 75.355469 62.964844 C 77.226562 60.488281 66.003906 61.375 63.132812 65.15625 C 62.21875 66.355469 61.207031 67.695312 60.132812 69.132812 C 50.390625 80.839844 35.675781 88.738281 28.457031 88.738281 C 24.433594 88.738281 22.96875 85.96875 25.472656 80.730469 C 31.511719 68.097656 52.316406 44.09375 63.625 33.582031 C 68.757812 28.773438 53.332031 30.730469 49.792969 34.285156 C 34.125 50.058594 18.351562 67.652344 13.902344 81.347656 C 11.445312 88.921875 13.714844 95.722656 23.121094 95.722656 C 30.847656 95.722656 39.402344 91.898438 46.667969 87.351562 C 44.882812 89.789062 43.25 92.003906 41.9375 93.785156 C 39.886719 96.5625 50.285156 95.550781 52.476562 92.75 C 60.699219 82.234375 80.457031 69.292969 85.957031 69.292969 C 90.964844 69.292969 73.71875 82.214844 73.878906 90.125 C 74.078125 100.511719 98.144531 94.148438 106.308594 83.457031 C 107.589844 81.789062 106.589844 77.199219 105.4375 78.316406 "
       id="path1037" />
  </g>
</svg>
